<svg width="128" height="210" viewBox="0 0 128 210" fill="none" xmlns="http://www.w3.org/2000/svg">
<path d="M79.707 0L80.3097 0.200885L81.9168 3.41505L83.5238 5.82568L85.5327 8.43718L87.9433 11.2496L89.3495 12.6558L90.7557 14.2629L93.5681 17.0753L95.1752 18.4815L96.7823 20.0885L98.3894 21.4947L102.407 25.5124L104.014 26.9186L105.822 28.9275L109.84 32.9452L111.447 34.3514L114.46 37.5656L115.866 38.9718L117.273 40.5788L119.281 42.7886L122.295 46.8063L124.504 50.2213L126.513 54.4399L127.518 57.855L127.92 60.4665V63.078L127.116 67.0957L125.911 70.7116L123.902 74.9302L122.295 77.3409L119.884 80.555L117.875 82.7648L116.469 84.3718L114.661 86.1798L113.054 87.586L109.84 90.1975L106.224 92.6081L102.206 94.8179L95.7778 97.4294L87.7424 100.242L85.3318 101.447L84.5283 102.251V103.255L86.9389 103.858L89.3495 105.063L91.1575 106.469L92.5637 107.875L94.3717 110.085L96.3805 112.697L98.5902 115.308L100.8 118.121L103.411 121.335L107.429 126.357L110.041 129.973L111.447 132.584L111.648 133.991L111.045 135.999L109.84 137.807L109.438 138.008L107.429 136.401L105.219 134.593L104.215 133.991V135.798L105.621 138.611L107.228 140.821L108.835 142.629V143.633L108.233 143.834L102.005 144.236L99.1929 144.637L95.577 145.843L93.5681 147.048L93.1663 148.454L92.7646 150.865L91.7601 153.276L90.5548 154.883L89.7513 155.887L87.7424 157.092L85.3318 158.097L84.5283 158.9L84.3274 159.905L84.7292 160.909L85.1309 166.936L85.9345 172.962L87.3407 180.194L90.3539 192.046L91.3584 195.06L92.3628 196.064L94.5725 197.872L96.7823 199.479L99.1929 201.689L101.001 203.698L102.206 205.707L103.01 207.916L102.809 209.323L102.407 209.724L92.5637 209.925H88.9477L86.9389 209.724L86.5371 209.323L86.3362 208.519V205.506L87.1398 201.89V200.484L84.3274 196.667L82.9212 194.658L81.1132 191.846L78.9035 188.631L76.0911 184.815L74.0822 182.002L70.8681 177.784L68.4574 174.569L66.6495 172.36L64.4397 170.753L62.8326 169.949L62.6318 171.556L63.0335 173.565L63.4353 180.395L64.2388 185.819L65.4442 190.439L67.453 196.265L69.4619 201.488L71.4707 206.309L71.8725 207.515V208.318L70.2654 208.519H53.9937L50.3778 208.318V207.113L51.1813 205.907L53.391 204.3L56.2034 202.894L61.8282 201.287L61.6273 200.082L59.2167 195.863L56.0025 189.234L53.7928 184.413L50.9804 177.984L48.7707 172.159L47.1636 166.936L45.3556 159.704L44.3512 154.079L43.9494 150.061L43.7485 138.812L43.3468 136.2L42.3423 135.196L41.7397 134.995L38.7264 136.803L38.3246 137.004H36.5167L35.1105 136.2L33.3025 134.392L31.8963 132.183L31.4945 131.379L31.0928 128.768L30.691 128.366L28.4813 128.768L27.2759 129.37L24.0618 131.781L22.6556 131.982L22.2538 131.58L20.6467 124.147L19.0396 119.326L17.4326 116.112L15.2228 112.697L14.0175 111.692H8.39272L6.18298 111.29L4.17413 110.286L2.56704 108.88L1.36173 106.871L0.959961 105.465V102.452L1.56262 100.443L2.56704 98.8356L4.37501 97.0276L5.98209 96.0232L7.38829 95.6214H10.4016L13.214 96.425L15.4237 97.8312L16.8299 99.4382L17.6334 101.648V104.059L17.0308 106.67L17.2317 107.675L19.2405 109.483L21.4503 111.09L24.0618 113.299L26.0706 114.906L28.6821 117.116L30.8919 118.924L33.5034 121.134L34.3069 122.138L34.5078 123.745L34.7087 124.951L34.9096 125.352L37.3202 124.147L39.5299 123.946L40.5344 123.143L43.1459 119.728L48.3689 112.496L50.9804 108.076L53.5919 104.46L54.7972 101.849L54.9981 100.644L54.1946 99.84L51.1813 98.6347L44.3512 96.2241L39.3291 93.8135L34.7087 90.8002L31.8963 88.7913L28.883 86.1798L26.6733 83.9701L23.66 79.9524L21.852 77.14L19.6423 72.9214L18.6379 69.9081L18.0352 67.4975L17.6334 63.6807V59.4621L18.2361 55.4444L19.6423 51.2258L21.852 47.0072L23.8609 44.1948L26.4724 41.1815L28.0795 39.5744L29.6866 38.1682L32.2981 35.9585L35.7131 33.347L38.7264 31.1372L41.9406 28.9275L44.9539 26.7178L48.3689 24.508L52.7884 21.6956L57.4087 18.6823L64.038 14.2629L68.0557 11.4505L70.0645 9.84338L72.8769 7.43276L77.0955 3.21417L78.9035 1.00443L79.707 0Z" fill="#F33030"/>
<path d="M7.38829 95.6216H10.4016L13.214 96.4251L15.4237 97.8313L16.8299 99.4384L17.6334 101.648V104.059L17.0308 106.67L17.2317 107.675L19.2405 109.483L21.4503 111.09L24.0618 113.299L26.0706 114.907L28.6821 117.116L30.8919 118.924L33.5034 121.134L34.3069 122.138L34.5078 123.746L34.7087 124.951L34.9096 125.353L37.3202 124.147L39.5299 123.946L40.5344 123.143L43.1459 119.728L48.3689 112.496L50.9804 108.076L53.5919 104.461L54.7972 101.849L54.9981 100.644L54.1946 99.8402V99.4384L56.6052 99.8402L63.0335 100.845L68.4574 101.246H77.4973L82.5194 100.845L87.3407 100.041V100.443L85.3318 101.447L84.5283 102.251V103.255L86.9389 103.858L89.3495 105.063L91.1575 106.469L92.5637 107.876L94.3716 110.085L96.3805 112.697L98.5902 115.308L100.8 118.121L103.411 121.335L107.429 126.357L110.041 129.973L111.447 132.584L111.648 133.991L111.045 136L109.84 137.807L109.438 138.008L107.429 136.401L105.219 134.593L104.215 133.991V135.799L105.621 138.611L107.228 140.821L108.835 142.629V143.633L108.233 143.834L102.005 144.236L99.1929 144.638L95.577 145.843L93.5681 147.048L93.1663 148.454L92.7646 150.865L91.7601 153.276L90.5548 154.883L89.7513 155.887L87.7424 157.092L85.3318 158.097L84.5283 158.9L84.3274 159.905L84.7291 160.909L85.1309 166.936L85.9345 172.962L87.3407 180.194L90.3539 192.047L91.3584 195.06L92.3628 196.064L94.5725 197.872L96.7823 199.479L99.1929 201.689L101.001 203.698L102.206 205.707L103.01 207.916L102.809 209.323L102.407 209.724L92.5637 209.925H88.9477L86.9389 209.724L86.5371 209.323L86.3362 208.519V205.506L87.1398 201.89V200.484L84.3274 196.667L82.9212 194.658L81.1132 191.846L78.9035 188.631L76.0911 184.815L74.0822 182.002L70.8681 177.784L68.4574 174.57L66.6495 172.36L64.4397 170.753L62.8326 169.949L62.6318 171.556L63.0335 173.565L63.4353 180.395L64.2388 185.819L65.4442 190.439L67.453 196.265L69.4619 201.488L71.4707 206.309L71.8725 207.515V208.318L70.2654 208.519H53.9937L50.3778 208.318V207.113L51.1813 205.908L53.391 204.301L56.2034 202.894L61.8282 201.287L61.6273 200.082L59.2167 195.863L56.0025 189.234L53.7928 184.413L50.9804 177.985L48.7707 172.159L47.1636 166.936L45.3556 159.704L44.3512 154.079L43.9494 150.062L43.7485 138.812L43.3468 136.2L42.3423 135.196L41.7397 134.995L38.7264 136.803L38.3246 137.004H36.5167L35.1105 136.2L33.3025 134.392L31.8963 132.183L31.4945 131.379L31.0928 128.768L30.691 128.366L28.4813 128.768L27.2759 129.37L24.0618 131.781L22.6556 131.982L22.2538 131.58L20.6467 124.147L19.0396 119.326L17.4326 116.112L15.2228 112.697L14.0175 111.692H8.39272L6.18298 111.291L4.17413 110.286L2.56704 108.88L1.36173 106.871L0.959961 105.465V102.452L1.56262 100.443L2.56704 98.8357L4.37501 97.0278L5.98209 96.0234L7.38829 95.6216Z" fill="#F33030"/>
<path d="M81.3139 35.9585H88.3449L91.3581 36.3603L95.5767 37.5656L99.3936 39.3735L101.603 41.1815L103.612 43.1904L105.018 45.4001L105.822 47.2081L106.625 50.824V54.4399L106.224 57.4532L105.42 60.4665L104.014 63.8816L101.603 68.1002L99.1927 71.5152L96.5812 74.7294L96.3803 74.9303H94.7732L86.1351 73.5241L77.4971 72.3187L66.6492 71.1134L55.3997 70.109L47.1634 69.7072H25.6686L24.8651 68.5019L23.4589 64.0824L23.0571 61.4709V57.0515L23.6598 53.2346L25.066 49.4178L26.6731 46.6054L28.0793 44.7975L31.0925 41.7842L34.3067 39.7753L37.5209 38.57L40.1324 37.9673L41.9403 37.7665H43.7483L46.3598 38.57L49.574 40.9806L51.7837 43.1904L53.3908 45.1992L55.8014 48.4134L57.6094 51.4267H58.2121L59.8191 49.4178L62.0289 47.0072L65.0422 43.9939L67.8546 41.7842L70.8678 39.7753L74.2829 37.9673L77.4971 36.762L79.305 36.1594L81.3139 35.9585Z" fill="#FDD7AD"/>
<path d="M79.7074 0L80.31 0.200885L81.9171 3.41505L83.5242 5.82567L85.533 8.43718L87.9437 11.2496L89.3499 12.6558L90.7561 14.2629L93.5685 17.0753L95.1755 18.4814L96.7826 20.0885L98.3897 21.4947L102.407 25.5124L104.014 26.9186L105.822 28.9275L109.84 32.9452L111.447 34.3514L114.461 37.5656L115.867 38.9718L117.273 40.5788L119.282 42.7886L122.295 46.8063L124.505 50.2213L126.514 54.4399L127.518 57.855L127.92 60.4665V63.078L127.116 67.0957L125.911 70.7116L123.902 74.9302L123.299 75.5329L123.701 73.1223L124.907 69.7072L125.308 67.6984H125.71L125.911 65.6895V61.6718L124.706 57.6541L123.701 55.0426L122.295 52.4311L121.291 52.0293L119.483 52.632L117.675 53.0337H114.661L112.251 53.4355L111.045 54.8417L110.041 54.4399L109.84 54.0382L109.438 50.824L108.836 47.8107L107.831 44.9983L106.224 42.1859L104.416 40.1771L102.407 38.3691L99.1932 36.3602L97.1844 35.3558L93.7693 34.3514L91.7605 33.7487L85.9348 33.347H81.9171L78.502 33.9496L75.087 34.954L70.4666 37.1638L67.6542 38.9718L64.641 41.1815L64.0383 41.3824V41.7841L63.0339 42.5877H62.6321V42.9895L61.025 44.3957L58.2126 47.208L57.61 47.0072V46.2036H57.2082L55.802 44.1948L54.1949 42.1859L52.387 40.1771L50.579 38.3691L49.1728 37.3647L48.9719 36.9629L48.1684 36.762L47.9675 36.3602L45.1551 35.3558L43.9498 35.1549H39.3294L35.5126 36.1594L32.2984 37.7664L29.486 39.5744L28.8834 39.7753V40.1771L27.2763 41.5833L25.0665 43.9939L23.0577 47.208L21.8524 49.8196L20.4462 53.8373L19.8435 57.855L19.6426 60.4665L19.4418 61.6718L19.2409 65.6895L19.6426 70.7116L18.6382 69.9081L18.0356 67.4975L17.6338 63.6806V59.4621L18.2364 55.4444L19.6426 51.2258L21.8524 47.0072L23.8612 44.1948L26.4727 41.1815L28.0798 39.5744L29.6869 38.1682L32.2984 35.9585L35.7135 33.347L38.7267 31.1372L41.9409 28.9275L44.9542 26.7177L48.3692 24.508L52.7887 21.6956L57.4091 18.6823L64.0383 14.2629L68.056 11.4505L70.0649 9.84338L72.8773 7.43276L77.0958 3.21417L78.9038 1.00443L79.7074 0Z" fill="#F33030"/>
<path d="M43.9497 147.852H48.3692L54.1949 148.253L64.44 149.459L74.6852 151.066L76.0914 151.467L77.6984 155.083L79.1046 156.891L80.9126 158.298L82.9215 159.101H84.3277L84.7294 160.106L85.1312 166.132L85.9347 172.159L87.3409 179.391L90.3542 191.243L91.3587 194.256L92.3631 195.261L94.5728 197.068L96.7826 198.676L99.1932 200.885L101.001 202.894L102.206 204.903L103.01 207.113L102.809 208.519L102.407 208.921L92.564 209.122H88.948L86.9392 208.921L86.5374 208.519L86.3365 207.715V204.702L87.1401 201.086V199.68L84.3277 195.863L82.9215 193.854L81.1135 191.042L78.9038 187.828L76.0914 184.011L74.0825 181.199L70.8683 176.98L68.4577 173.766L66.6498 171.556L64.44 169.949L62.8329 169.145L62.632 170.752L63.0338 172.761L63.4356 179.591L64.2391 185.015L65.4444 189.636L67.4533 195.461L69.4621 200.684L71.471 205.506L71.8728 206.711V207.515L70.2657 207.715H53.994L50.378 207.515V206.309L51.1816 205.104L53.3913 203.497L56.2037 202.091L61.8285 200.484L61.6276 199.278L59.217 195.06L56.0028 188.43L53.7931 183.609L50.9807 177.181L48.771 171.355L47.1639 166.132L45.3559 158.9L44.3515 153.275L43.9497 149.258V147.852Z" fill="#F33030"/>
<path d="M31.2936 70.3101H39.329L39.7308 70.7118L40.3335 70.3101H44.9538L49.7751 70.5109L50.3777 70.7118L56.4043 71.1136L56.6052 71.3145V75.5331L57.0069 72.118L57.6096 71.9171V71.3145L63.2344 71.5154L70.6671 72.3189L72.676 72.7207L76.4928 73.1225L77.0955 73.3233V73.926H77.4972V73.5242L80.1088 73.7251L86.9389 74.7295L92.9654 75.3322L95.1752 75.734V76.3366L94.3716 77.1402L93.9698 78.1446L94.5725 79.149L94.3716 80.1534L92.5636 82.1623L90.9566 83.5685L88.9477 85.1756L85.9344 87.1844L83.122 88.7915L78.5017 91.2021L74.484 92.8092L70.4663 94.2154L67.0512 95.019L62.8326 95.8225L61.0246 96.0234H55.199L53.9937 95.8225V95.4207H51.9848L51.1813 95.019L48.7706 94.4163L46.1591 93.4119V93.0101L45.1547 92.6083L41.9405 91.0012L40.3335 89.9968L39.7308 89.7959V89.3942L38.7264 88.9924L36.5166 87.3853L33.9051 85.1756L32.298 83.1667L32.0972 82.3632L33.1016 82.1623L33.5034 82.3632L33.3025 81.3588L31.4945 79.3499L30.0883 77.5419V77.1402H29.6865V76.5375L29.0839 76.3366V75.734H28.6821L27.075 73.1225L26.2715 71.7163V70.7118L26.6733 70.5109L31.2936 70.3101Z" fill="#F33030"/>
<path d="M80.7113 38.771H88.3449L90.9564 39.3737L92.3626 39.9763L93.367 42.186L94.3715 43.994L94.5723 45.1993L94.3715 45.4002L94.1706 48.8153L93.9697 49.4179H93.5679L92.9653 51.6277L92.1617 53.6365L90.5546 55.6454L90.1529 56.6498L89.1484 57.6542L87.7422 59.4622L87.1396 60.0648L86.1352 61.6719L85.3316 61.8728V60.0648L85.1307 60.4666H84.729L84.9299 59.4622L85.3316 58.2569V55.4445L84.5281 53.6365L83.1219 52.4312L81.5148 51.8285H79.3051L77.0953 52.6321L75.89 53.4356L74.8856 54.4401L73.6803 56.6498L73.4794 57.6542V60.0648L74.082 61.471L74.8856 62.6764L77.698 64.6852L78.5015 65.087H81.5148L82.921 64.8861L82.7201 65.4887L80.5104 66.0914L78.9033 66.2923L76.8944 66.0914H71.8723V66.2923L68.0555 66.0914L65.444 65.2879L62.0289 64.0826L61.0245 63.8817L61.4263 63.4799L59.2165 62.6764L56.2033 62.2746L48.9714 61.8728H46.3599L44.5519 62.4755H43.9492L44.1501 61.6719L44.9537 60.6675L43.1457 61.471L42.7439 61.2702L43.9492 60.4666L45.5563 58.2569L45.7572 57.6542V54.6409L44.9537 52.6321L43.5475 50.8241L41.7395 49.6188L39.3289 49.0161L37.1191 49.217L35.1103 50.2215L34.1059 51.8285L33.7041 53.4356L33.905 55.4445L34.7085 57.8551L35.5121 58.6586L35.9138 59.6631L37.7218 61.0693L39.128 61.6719V62.0737L40.1324 62.4755L41.5386 62.6764L42.9448 62.2746H43.7484L43.5475 63.279L42.7439 64.0826L42.3422 64.2834H40.936L39.9315 63.4799L38.7262 64.0826L37.7218 63.0781L34.7085 62.8772L32.9006 62.0737L30.8917 60.8684L30.289 59.4622L29.0837 55.8463L28.0793 53.6365L27.8784 51.6277L28.2802 49.217L28.8828 47.2082L29.4855 46.2038H29.8873L30.289 45.4002L32.097 43.7931L34.5076 42.3869L36.7174 41.5834L38.7262 41.1816L41.5386 40.9807L44.9537 41.3825L46.9625 42.186L49.7749 44.3958L50.1767 45.1993H50.5785V45.6011L51.382 46.0029L52.5873 46.8064L54.3953 49.0161L55.1988 49.4179L55.6006 48.8153L56.2033 49.0161L57.6094 51.4268H58.2121L59.8192 49.4179L62.0289 47.0073L64.0378 44.9984H64.4395L64.2387 46.0029L63.2342 46.4046L63.0334 47.0073L61.6272 48.0117L63.4351 46.8064L65.6449 44.9984L70.2652 42.186L73.6803 40.7798L77.8989 39.3737L80.7113 38.771Z" fill="#FDD7AD"/>
<path d="M81.9169 33.146H85.9346L91.7602 33.5478L93.7691 34.1504L97.5859 35.3557L100.599 36.9628L102.809 38.5699L104.818 40.3779L106.626 42.3867L108.233 45.4L109.237 48.4133L109.84 51.8283L110.041 54.0381L110.643 54.6407L111.045 54.8416L111.447 54.0381L112.251 53.2345L114.862 52.8328H117.674L121.09 52.0292L121.692 51.8283L122.697 52.6319L124.304 56.0469L125.509 59.462L126.112 61.6717V65.6894L125.71 67.6983H125.509L125.308 62.6761L123.902 61.0691L122.697 60.6673L120.487 60.4664L120.286 60.6673H117.273V61.0691L116.268 61.6717H114.862L112.652 62.2744L110.242 63.2788H108.836L107.63 63.8815L106.425 65.2877L104.416 68.9036L103.01 71.1133L101.001 73.7248L98.9921 75.9346L97.5859 77.5417L94.5726 80.5549L92.9656 81.7603L93.3673 80.9567L94.3718 79.9523L94.1709 78.5461L93.7691 78.1443L94.3718 76.939L95.1753 76.1355V75.9346L92.9656 75.5328L85.5328 74.7293L77.4974 73.5239V73.9257L76.8947 74.1266L77.0956 73.3231L72.6761 72.9213L69.2611 72.3186L63.2345 71.716L57.6097 71.3142V71.9169L57.208 72.1178L56.6053 76.3363H56.4044V71.3142L50.3779 70.9124L49.7752 70.7116L44.954 70.5107H40.3336L39.5301 70.9124L39.3292 70.5107H31.2938L26.2716 70.7116L26.8743 72.5195L28.6822 75.3319V75.7337H29.084L29.2849 76.3363L29.6867 76.5372V77.1399H30.0884L32.0973 79.7514L33.7044 81.7603L33.5035 82.5638L32.2982 82.3629L32.7 83.5682L34.307 85.3762L36.5168 87.1842L38.7265 88.7912L39.7309 89.3939V89.7957L40.7354 89.9965L42.5433 91.2019L45.3557 92.6081L44.7531 92.8089L40.1327 90.3983L35.9141 87.5859L34.9097 87.9877L32.2982 88.3895L30.6911 87.1842L29.6867 86.3806L28.8831 86.1797L26.6734 83.97L23.6601 79.9523L21.8521 77.1399L19.6424 72.9213L18.8389 70.7116V69.5062L19.4415 70.1089L19.0398 64.685L19.2406 61.0691L19.4415 60.4664L19.8433 56.2478L20.4459 53.2345L22.053 48.8151L23.6601 45.8018L25.2672 43.592L27.4769 41.1814L28.4814 40.177H28.8831V39.7752L31.8964 37.7664L34.9097 36.1593L38.3247 35.1548L39.3292 34.954H43.9495L45.7575 35.3557L48.1681 36.3602V36.7619L49.1726 36.9628L50.177 37.9672L51.7841 39.3734L53.9938 41.5832L56.2035 44.3956L57.208 45.8018V46.2035H57.6097V47.0071L58.6142 46.8062L60.0204 45.1991L62.2301 42.9894H62.6319V42.5876L63.6363 41.7841H64.0381V41.3823L67.654 38.7708L69.8637 37.3646L74.0823 35.1548L77.6983 33.9495L80.5107 33.3469L81.9169 33.146ZM81.3142 35.9584L79.3054 36.1593L75.0868 37.5655L71.8726 39.1726L68.6584 41.1814L65.846 43.3911L63.4354 45.6009L60.4221 48.6142L58.815 50.623L57.8106 51.6274L56.4044 49.4177L54.5965 46.8062L52.9894 44.7973L51.1814 42.5876L49.1726 40.5788L45.9584 38.369L43.7486 37.7664H41.9407L38.9274 38.1681L34.7088 39.5743L32.2982 40.9805L30.4902 42.3867L27.4769 45.4L25.8699 48.0115L24.4637 50.8239L23.4592 54.239L23.0575 57.0514V61.4708L23.6601 64.8859L25.0663 68.9036L25.669 69.7071H47.1637L55.4 70.1089L68.8593 71.3142L80.5107 72.7204L91.3585 74.3275L94.7735 74.9301H96.3806L97.9877 73.1222L100.8 69.3054L103.211 65.2877L104.617 62.4753L105.822 59.2611L106.425 56.4487L106.626 54.4398V50.8239L105.822 47.208L104.416 44.3956L103.01 42.5876L101.001 40.5788L98.9921 39.1726L95.5771 37.5655L91.3585 36.3602L88.3452 35.9584H81.3142Z" fill="#F33030"/>
<path d="M91.3583 106.871L92.5636 107.876L94.3716 110.085L96.3804 112.697L98.5902 115.308L100.8 118.121L103.411 121.335L107.429 126.357L110.041 129.973L111.447 132.584L111.648 133.991L111.045 135.999L109.84 137.807L109.438 138.008L107.429 136.401L105.219 133.79L102.206 130.776L100.8 129.169L99.1928 127.763L96.9831 125.754L95.376 124.348L93.3671 122.741L89.1486 120.732L89.7512 122.741L89.9521 123.143V124.348L89.7512 124.549L89.3494 127.964L86.3362 136.803L85.5326 139.214L83.122 140.017H81.7158L76.4928 138.812L76.2919 138.41L70.0644 137.205L64.4397 136.401L64.2388 135.999L66.8503 129.571L67.8547 127.161L69.4618 123.946L71.6715 119.728L74.0822 115.911L75.8901 113.701L76.8945 113.299V112.898L77.4972 112.496L81.7158 111.491L83.9255 111.09L86.3362 109.884L88.345 109.081L90.153 108.277H90.7556L91.1574 107.273L91.3583 106.871Z" fill="#F33030"/>
<path d="M80.1088 5.02197H80.5106V5.42374L81.515 5.82551L82.5194 6.62906V7.03083H82.9212L83.7247 8.03525L85.1309 9.84322L86.3362 11.2494L89.5504 14.4636V14.8654H89.9522V15.2671H90.354V15.6689L91.1575 16.0707L92.7646 17.6777L94.1708 19.2848L95.1752 20.2893V20.691H95.577L96.9832 22.2981L97.1841 22.9008L97.9876 23.3025V23.7043L98.7911 24.1061L101.403 26.5167L102.809 27.722L104.215 29.3291L106.023 31.3379L107.429 32.5433V32.945L108.233 33.3468L111.648 36.7619L113.054 38.3689L117.473 42.7884L119.683 45.6008L121.692 48.6141L124.705 53.6362L126.312 59.4619L126.513 60.8681V64.8858L125.71 69.1044L124.906 72.3186L124.304 74.1265L123.5 75.5327L123.299 74.9301L123.902 72.5194L124.906 69.707L125.308 67.6982H125.71L125.911 65.6893V61.6716L124.705 57.6539L123.701 55.0424L122.295 52.4309L121.29 52.0291L119.482 52.6318L117.674 53.0336H114.661L112.25 53.4353L111.045 54.8415L110.041 54.4398L109.84 54.038L109.438 50.8238L108.835 47.8105L107.831 44.9982L106.224 42.1858L104.416 40.1769L102.407 38.3689L99.1929 36.3601L97.1841 35.3557L93.769 34.3512L91.7602 33.7486L85.9345 33.3468H81.9168L79.9079 33.5477V33.1459L80.7115 32.945L79.9079 31.7397L80.5106 29.53L80.9123 28.3247L81.3141 26.7176L81.1132 24.307V19.4857L80.5106 18.8831V17.276L80.7115 16.6733L80.5106 15.8698H80.1088L80.3097 15.0662L80.5106 14.0618V11.2494L80.7115 10.8476V9.64233L79.707 7.23171V5.42374L80.1088 5.02197Z" fill="#F33030"/>
<path d="M7.38829 95.6216H10.4016L13.214 96.4251L15.4237 97.8313L16.8299 99.4384L17.6334 101.648V104.059L17.0308 106.67L17.2317 107.675L19.2405 109.483L21.4503 111.09L24.0618 113.299L26.0706 114.907L28.6821 117.116L30.8919 118.924L33.5034 121.134L34.3069 122.138L34.5078 123.746L34.7087 124.951L34.9096 125.353L37.3202 124.147L39.5299 123.946L40.5344 123.143L43.1459 119.728L45.7574 116.112L45.9583 116.514L44.753 119.728L43.3468 124.75L42.1415 130.174L41.3379 133.991L40.5344 135.196L39.5299 136.401L38.3246 137.004H36.5167L35.1105 136.2L33.3025 134.392L31.8963 132.183L31.4945 131.379L31.0928 128.768L30.691 128.366L28.4813 128.768L27.2759 129.37L24.0618 131.781L22.6556 131.982L22.2538 131.58L20.6467 124.147L19.0396 119.326L17.4326 116.112L15.2228 112.697L14.0175 111.692H8.39272L6.18298 111.291L4.17413 110.286L2.56704 108.88L1.36173 106.871L0.959961 105.465V102.452L1.56262 100.443L2.56704 98.8357L4.37501 97.0278L5.98209 96.0234L7.38829 95.6216Z" fill="#3F1F39"/>
<path d="M81.3144 35.9585H88.3454L91.3587 36.3603L95.5773 37.5656L99.3941 39.3735L101.604 41.1815L103.613 43.1904L105.019 45.4001L105.822 47.2081L106.626 50.824V54.4399L106.224 57.4532L105.421 60.4665L104.014 63.8816L101.604 68.1002L99.1932 71.5152L96.5817 74.7294L96.3808 74.9303H94.7737L86.1357 73.5241L77.4976 72.3187V72.1179H78.502V71.5152L77.6985 71.1134V70.3099L79.7073 69.3055L81.9171 68.301L83.1224 67.8993L85.1312 66.8948L85.7339 66.694L86.1357 65.8904L86.7383 65.6895L87.1401 64.886L88.1445 64.4842L88.5463 63.6807L89.5507 62.4754H89.9525L90.3542 61.4709H90.756L91.1578 60.6674L92.9658 58.2568L93.5684 57.0515H93.9702L94.5728 55.0426L95.3764 53.2346L95.979 51.8284L96.5817 49.8196L96.9835 48.6143L97.1843 46.8063H97.5861L97.787 42.9895L96.5817 41.5833L94.1711 40.1771L90.5551 38.9718L87.341 38.57H84.9303L80.7118 38.9718L77.2967 39.7753L72.4755 41.3824L69.2613 42.9895L65.0427 45.601L63.2347 47.2081L61.8285 48.2125L61.4268 48.0116L63.0338 46.8063L63.6365 46.2036L64.2392 45.8019V44.7975L66.248 42.9895L69.8639 40.378L73.0781 38.57L75.6896 37.3647L79.3056 36.1594L81.3144 35.9585Z" fill="#FDD7AD"/>
<path d="M56.8062 103.255L59.4177 103.456L67.0514 104.26H80.3098L80.5107 105.063L79.1045 106.269L77.6983 108.278H77.2965L76.8948 109.282L76.2921 110.085H75.8903L75.4886 111.291L73.4797 114.103L71.6717 117.116L70.0646 119.929L67.2523 125.152L64.6407 130.777L63.4354 134.192L62.8328 136L59.6186 135.799L58.6142 135.598L56.6053 129.772L55.1991 123.143L54.7974 120.331V114.103L55.4 109.282L56.6053 103.657L56.8062 103.255Z" fill="#E0BD0D"/>
<path d="M51.382 149.458H54.998L61.4263 150.061L69.0599 151.266L73.2785 151.869L75.4883 152.472L76.0909 154.079L76.4927 157.494L77.2962 160.306L78.9033 165.128L79.506 167.739V170.351L78.9033 171.355L77.8989 172.359L77.0954 172.761V173.565L75.0865 173.967L74.8856 174.167L72.6759 173.967L71.6715 172.962L69.6626 171.355L68.8591 170.953V170.551L68.0555 170.15L65.6449 167.337L64.2387 165.73L63.4352 164.726V164.324H63.0334L62.029 163.32L61.6272 162.516L60.8236 162.114L58.8148 160.306L58.413 160.105V159.704H58.0113L57.2077 158.699L54.3953 156.891V156.489L53.5918 156.088L52.5873 155.284L51.1812 153.074V149.659L51.382 149.458Z" fill="#F33030"/>
<path d="M79.707 0L80.3097 0.200885L81.9168 3.41505L83.5239 5.82568L85.5327 8.43718L87.9433 11.2496L89.3495 12.6558L90.7557 14.2629L93.5681 17.0753L95.1752 18.4815L96.7823 20.0885L98.3894 21.4947L102.407 25.5124L104.014 26.9186L105.822 28.9275L109.84 32.9452L111.447 34.3514L114.46 37.5656L115.866 38.9718L117.273 40.5788L119.281 42.7886L122.295 46.8063L124.504 50.2213L126.513 54.4399L127.518 57.855L127.92 60.4665V63.078L127.116 67.0957L125.911 70.7116L124.906 72.9214L124.705 72.3187L125.509 69.1046L126.312 64.886V60.8683L125.71 57.855L124.504 53.6364L122.496 50.2213L120.688 47.4089L118.277 43.9939L115.465 40.9806L111.648 37.1638L110.242 35.5567L107.831 33.1461L106.224 31.7399L104.416 29.9319L103.01 28.3248L101.804 26.9186L99.5947 25.1107L97.9876 23.7045L96.5814 22.0974L95.577 21.093V20.6912H95.1752V20.2894L94.5726 20.0885L93.1664 18.4815L90.9566 16.0708L90.354 15.6691V15.2673H89.9522V14.8655H89.5504L86.738 11.6514L84.3274 9.24073L83.5239 8.03541V7.63364L82.9212 7.43276V7.03099H82.5194V6.62922L81.7159 6.22745L80.5106 5.4239V5.02213L79.9079 5.4239V7.23187L80.9124 9.6425V10.8478L80.7115 11.8522V14.8655L80.1088 15.8699H80.5106L80.9124 16.8744L80.7115 17.2761V18.8832L81.3141 19.4859V24.508L81.515 26.7178L80.9124 29.3293L80.3097 30.7355L80.1088 31.7399L80.9124 33.1461H79.9079V33.5479L75.6893 34.7532L74.6849 34.5523L73.2787 33.7487L73.4796 32.7443L74.0823 31.539L74.484 28.5257L74.8858 26.316L74.0823 21.4947L73.0778 21.093L71.4707 18.8832L70.8681 18.0797L69.8637 15.8699L67.453 15.2673L65.4442 15.4682L63.2345 16.0708L62.23 17.2761L61.6274 17.6779L59.2167 18.0797L58.2123 18.6823L57.8105 18.4815L64.038 14.2629L68.0557 11.4505L70.0646 9.84338L72.8769 7.43276L77.0955 3.21417L78.9035 1.00443L79.707 0Z" fill="#F33030"/>
<path d="M57.6094 71.3145L63.2342 71.5153L70.667 72.3189L72.6758 72.7207L75.6891 73.1224L76.2917 73.3233L75.6891 75.533L74.6847 80.1534L74.2829 83.3676L73.8811 90.1977L68.4572 92.0056L63.636 93.0101L60.4218 93.4118H57.8103L57.6094 93.0101L56.8059 85.5773L56.605 82.3631V77.5419L57.4085 71.9171L57.6094 71.3145Z" fill="white"/>
<path d="M84.3274 115.107H87.1398L89.7513 115.509L92.162 116.514L94.5726 118.322L95.577 119.125L96.5814 120.13L96.9832 120.933H97.385L98.3894 121.938L98.5903 122.54L99.3938 122.942L99.5947 123.545L100.197 123.745V124.147L101.001 124.549L103.412 127.562L105.822 130.977L106.224 131.379L108.032 131.178L109.036 130.776H109.84L110.041 130.174L111.045 131.781L111.447 132.584L111.648 133.991L111.045 135.999L109.84 137.807L109.438 138.008L107.429 136.401L105.22 133.79L102.206 130.776L100.8 129.169L99.193 127.763L96.9832 125.754L95.3761 124.348L93.3673 122.741L89.1487 120.732L89.7513 122.741L89.9522 123.143V124.348L89.7513 124.549L89.3496 127.964L86.3363 136.803L85.5328 139.214L83.1221 140.017H81.7159L76.4929 138.812L76.292 138.41L75.4885 138.008L75.8903 137.607L75.4885 137.205L75.2876 136.2V134.794L75.8903 131.58L76.8947 128.366L77.8991 126.156L78.9035 124.147L79.908 122.741L81.515 121.335L83.1221 119.326L83.7248 117.92L84.3274 116.715V115.107Z" fill="#F33030"/>
<path d="M40.3337 70.7119H50.378L56.4045 71.1137L56.6054 71.7163L55.8019 76.5376L55.601 79.1491V83.3677L56.2036 89.9969L56.4045 91.604V93.412L52.9895 92.8093L48.9718 91.604L45.7576 90.1978L42.7443 88.5907L42.1417 87.7872L41.3381 85.1757L40.5346 80.9571L40.1328 78.1447V71.3146L40.3337 70.7119Z" fill="white"/>
<path d="M99.7954 133.187L100.599 133.388L102.608 134.995L104.215 137.004L104.617 136.803L106.023 139.214L107.429 141.022L108.835 142.629V143.633L108.233 143.834L102.005 144.236L99.1927 144.637L95.5768 145.843L93.568 147.048L93.1662 148.454L92.7644 150.865L91.76 153.276L90.5547 154.883L89.7511 155.887L87.7423 157.092L84.1263 157.293L82.5193 156.691L80.3095 154.682L79.3051 152.673L78.9033 151.468V148.454L79.9077 146.044L80.7113 144.838L81.5148 143.834L83.3228 142.629L83.9255 142.428H87.3405L89.3494 143.231L90.3538 143.03L91.5591 142.026L92.5635 140.62H92.9653L93.3671 139.816L94.7733 138.41L96.1795 136.803L97.9874 134.794L99.3936 133.388L99.7954 133.187Z" fill="#3F1F39"/>
<path d="M98.3896 25.1108L99.5949 25.5126L102.407 27.7223L104.014 29.5303L105.621 30.9365L107.429 32.5436V32.9454L108.233 33.3471L111.648 36.7622L113.054 38.3693L117.474 42.7887L119.683 45.6011L121.692 48.6144L124.706 53.6366L126.313 59.4622L126.514 60.8684V64.8861L125.71 69.1047L124.906 72.3189L124.304 74.1269L123.5 75.5331L123.299 74.9304L123.902 72.5198L124.906 69.7074L125.308 67.6985H125.71L125.911 65.6897V61.672L124.706 57.6543L123.701 55.0428L122.295 52.4312L121.291 52.0295L119.483 52.6321L117.675 53.0339H114.661L112.251 53.4357L111.045 54.8419L110.041 54.4401L109.84 54.0383L109.438 50.8242L108.836 47.8109L107.831 44.9985L106.224 42.1861L104.416 40.1772L102.407 38.3693L99.1931 36.3604L97.1843 35.356L94.5728 34.5525L95.3763 34.3516L98.3896 35.356L98.1887 31.5392L98.3896 29.7312V27.5215L97.7869 26.7179V25.3117L98.3896 25.1108Z" fill="#F33030"/>
<path d="M81.515 33.5479H88.1442L92.5637 34.1505L96.5814 35.3558L99.7956 36.9629L102.005 38.3691L104.014 40.1771L105.019 41.1815L106.626 42.9895L108.434 46.8063L108.835 48.4134V50.0205L107.63 50.4222L107.027 50.2213L106.224 47.2081L104.617 43.9939L102.809 41.7842L101.604 40.7797L100.398 40.378L98.5903 39.1726L95.577 37.7664L91.3584 36.5611L88.3451 36.1594H81.3141L79.3053 36.3602L75.0867 37.7664L71.8725 39.3735L68.6584 41.3824L65.846 43.5921L63.4354 45.8019L60.623 48.6143L59.0159 50.6231L58.0114 51.8284L57.007 50.824L55.1991 47.8107L53.592 45.8019L53.1902 44.7974L50.9805 42.1859L48.1681 39.3735L45.3557 37.7664L43.5477 37.3647H41.5388L38.7265 37.7664L35.5123 38.7709L32.6999 40.1771L29.8875 42.1859L28.2804 43.793L28.0795 44.1948H27.6778L27.276 44.9983L25.468 47.8107L24.4636 49.8196L23.2583 53.2346L22.8565 56.047V62.4753L23.4592 65.6895L24.6645 69.1046L25.468 70.5108V71.7161L24.2627 71.3143L24.0618 70.7116H23.6601L22.053 67.0957L21.2494 64.4842L20.8477 62.4753V55.6452L21.4503 52.632L22.6556 49.016L24.6645 45.1992L26.6733 42.5877L29.084 40.1771L32.499 37.9673L35.9141 36.5611L39.7309 35.5567L41.5388 35.3558H44.3512L46.9628 36.1594L49.976 38.1682L50.7796 38.7709V39.1726L51.5831 39.5744L52.3867 40.5788L53.3911 41.3824L54.7973 42.9895L55.8017 43.9939L57.2079 45.8019V46.2036H57.6097V47.0072L58.6141 46.8063L60.0203 45.1992L62.23 42.9895H62.6318V42.5877L63.6362 41.7842H64.038V41.3824L67.6539 38.7709L69.8637 37.3647L74.0823 35.1549L76.8947 34.1505L81.515 33.5479Z" fill="#3F1F39"/>
<path d="M81.9171 33.146H85.9349L91.7605 33.5478L93.7694 34.1504L97.5862 35.3557L100.599 36.9628L102.809 38.5699L104.818 40.3779L106.626 42.3867L108.233 45.4L109.238 48.4133L109.84 51.8283L110.041 54.0381L110.644 54.6407L111.046 54.8416L111.447 54.0381L112.251 53.2345L114.862 52.8328H117.675L121.09 52.0292L121.692 51.8283L122.697 52.6319L124.304 56.0469L125.509 59.462L126.112 61.6717V65.6894L125.71 67.6983H125.509L125.308 62.6761L123.902 61.0691L122.697 60.6673L120.487 60.4664L120.286 60.6673H117.273V61.0691L116.269 61.6717H114.862L112.653 62.2744L110.242 63.2788H108.836L107.63 63.8815L106.425 65.2876L104.416 68.9036L103.01 71.1133L101.001 73.7248L98.9924 75.9346L97.5862 77.5417L94.5729 80.5549L92.9658 81.7602L93.3676 80.9567L94.372 79.9523L94.1712 78.5461L93.7694 78.1443L94.372 76.939L95.1756 76.1355V75.9346L92.9658 75.5328L85.5331 74.7293L77.4977 73.5239V73.9257L76.895 74.1266L77.0959 73.3231L72.6764 72.9213L71.0693 72.7204V72.5195H76.0915L79.1047 72.7204L79.9083 73.1222L84.9304 73.7248L85.5331 73.9257L89.149 74.1266V73.9257L91.3588 74.1266L94.7738 74.7293H96.3809L98.5906 72.1177L101.403 68.1L103.412 64.4841L104.416 62.4753L105.622 59.2611L106.224 56.4487L106.425 54.4398V50.8239L105.622 47.208L104.215 44.3956L102.809 42.5876L101.001 40.7796L101.604 40.5788L103.613 42.3867L105.019 44.3956L106.425 47.208L106.827 48.4133L107.229 50.2212L108.635 50.0204V48.4133L107.831 45.8018L106.224 42.7885L104.416 40.5788L102.809 39.1726L100.8 37.7664L99.1933 36.7619L95.9791 35.3557L92.5641 34.3513L88.1446 33.7487H81.5154L78.703 34.1504H77.6986L78.5021 33.7487L81.9171 33.146Z" fill="#F33030"/>
<path d="M52.3865 108.679H53.3909L53.5918 120.933L54.1945 125.554L55.3998 130.777L56.806 134.794V135.598H44.3511L44.552 133.388L45.3555 128.567L46.9626 122.339L48.9714 116.313L51.1812 110.688L52.3865 108.679Z" fill="#F33030"/>
<path d="M77.4973 73.5239L80.1088 73.7248L90.5549 75.3319L94.7735 76.1354L93.5682 77.5416L90.9567 79.9523L86.9389 82.9655L84.7292 84.7735L81.3142 86.7824L76.0911 89.3939L75.2876 89.5948V85.3762L75.6894 80.5549L76.4929 76.5372L77.4973 73.5239Z" fill="white"/>
<path d="M41.9403 37.7666H43.7483L46.3598 38.5701L49.574 40.9808L51.7837 43.1905L53.3908 45.1994L55.8014 48.4135L55.3997 49.418H54.5961L52.5873 47.2082L51.1811 45.6011L48.7705 43.1905L46.9625 41.9852L45.7572 41.3825L42.543 40.7799H39.7306L36.1147 41.5834L33.3023 42.7887L30.8917 44.5967L29.0837 46.4047L27.4766 49.0162L25.6686 53.2348L25.066 56.2481V57.8551L25.8695 61.4711L26.4722 62.6764L26.6731 63.6808L27.8784 64.6852L28.481 65.2879L29.2846 65.8905V66.2923L30.0881 66.6941L30.4899 67.4976L30.6908 68.7029L42.1412 68.9038L46.1589 69.1047L50.7793 69.5065V69.7074H25.6686L24.8651 68.5021L23.4589 64.0826L23.0571 61.4711V57.0516L23.6598 53.2348L25.066 49.418L26.6731 46.6056L28.0793 44.7976L31.0925 41.7843L34.3067 39.7755L37.5209 38.5701L40.1324 37.9675L41.9403 37.7666Z" fill="#F33030"/>
<path d="M58.0111 114.706H60.8235L64.6403 115.308L67.2519 116.313L68.2563 117.116L68.4572 118.121L68.2563 118.723L68.658 118.924L68.4572 122.339L67.8545 123.946L63.435 126.156H63.0333V126.558L60.2209 127.562H59.0156L58.6138 127.16L57.0067 126.96H56.404L55.6005 123.946L55.1987 121.134V115.308L58.0111 114.706Z" fill="#E0BD0D"/>
<path d="M89.7514 16.272L92.162 17.0755L94.5727 19.687L95.1753 20.2897V20.6915H95.5771L96.9833 22.2985L97.1842 22.9012L97.9877 23.303V23.7047L98.7913 24.1065L101.403 26.5171L102.809 27.7224L104.215 29.3295L104.416 29.7313L103.613 29.3295L102.005 27.5216L99.3939 25.5127L97.7868 25.3118L97.9877 26.718L98.5904 27.5216V30.5348L98.3895 32.5437L98.5904 35.557L95.3762 34.5525L92.7647 34.1508L91.7603 33.749L85.9346 33.3472L84.9302 33.1463V32.9455H89.9523L88.747 31.5393L90.1532 30.5348L90.3541 29.5304L90.555 28.3251L89.9523 25.3118L89.1488 23.303L87.9435 20.0888V18.6826L88.9479 17.2764L89.5505 16.8746L89.7514 16.272Z" fill="#F33030"/>
<path d="M71.4707 77.3408H72.6761L73.6805 78.1444L74.484 80.1532L74.2831 83.3674L73.8814 90.1975L68.4575 92.0055L65.8459 92.6081L62.23 92.4072L61.2256 91.6037L61.4265 90.3984L62.0291 88.7913L62.8327 87.7869L64.8415 83.97L66.4486 81.5594L68.2566 79.5506L70.4663 78.1444L70.8681 77.5417L71.4707 77.3408Z" fill="white"/>
<path d="M21.0486 51.6279L21.2495 52.2306L20.6468 54.6412L20.446 55.8465V62.074L21.0486 65.2881L22.053 68.5023L23.861 72.52L25.8699 75.7342L27.6778 77.9439L28.0796 78.1448V78.5466H29.4858L31.0929 79.3501L31.2938 78.7474L33.5035 81.359L33.7044 82.5643L32.2982 82.3634L32.7 83.5687L34.307 85.3767L36.5168 87.1846L38.7265 88.7917L39.7309 89.3944V89.7961L40.7354 89.997L42.5433 91.2023L45.3557 92.6085L44.7531 92.8094L40.1327 90.3988L35.9141 87.5864L34.9097 87.9882L32.2982 88.3899L30.6911 87.1846L29.6867 86.3811L28.8831 86.1802L26.6734 83.9705L23.6601 79.9528L21.8521 77.1404L19.6424 72.9218L18.8389 70.712V69.5067L19.4415 70.1094L19.0398 64.6855L19.2406 61.0695L19.4415 60.4669L19.8433 56.2483L20.446 53.235L21.0486 51.6279Z" fill="#F33030"/>
<path d="M38.1238 48.8154L40.5344 49.0163L42.3424 49.8199L44.1503 51.2261L45.5565 53.4358L45.9583 54.6411V57.6544L45.1548 59.2615L43.5477 60.6677L42.1415 61.2703H39.3291L37.3202 60.4668L35.5123 59.0606L34.307 57.4535L33.5034 54.4402L33.7043 52.4314L34.7087 50.4225L36.5167 49.2172L38.1238 48.8154Z" fill="black"/>
<path d="M79.3049 51.6279H81.5146L83.5235 52.4315L84.9297 53.8377L85.5323 55.4448V58.2571L84.7288 60.266L83.3226 62.074L81.5146 63.2793L80.3093 63.8819H76.6934L75.0863 63.0784L74.0819 61.8731L73.4792 60.8687L73.2783 60.0651V57.6545L73.6801 56.4492L74.8854 54.0386L76.6934 52.6324L78.5013 51.8288L79.3049 51.6279Z" fill="black"/>
<path d="M55.8019 137.004H58.0116L62.632 137.406L65.8462 137.807L66.4488 138.008L66.2479 140.419L65.0426 148.253L64.8417 148.856H64.0382V148.454H61.8285L58.6143 148.253L56.6054 147.852L54.1948 147.651L54.3957 145.843L55.1993 140.821L55.4001 138.812L55.8019 137.004Z" fill="white"/>
<path d="M31.4946 70.7119H38.9273L39.1282 71.5155V77.9438L39.7309 82.5641L40.5344 86.5819L40.1327 86.7827L38.9273 85.9792L36.7176 84.1712L35.7132 82.9659L34.1061 81.5597L31.2937 78.5464L28.2804 74.5287L26.6733 71.7163L26.8742 70.9128L31.4946 70.7119Z" fill="white"/>
<path d="M98.3896 25.1108L99.5949 25.5126L102.407 27.7223L104.014 29.5303L105.621 30.9365L107.429 32.5436V32.9454L108.233 33.3471L111.648 36.7622V37.164H111.246V36.7622L109.84 36.5613L109.639 37.164L110.443 37.5657L110.844 37.9675V39.1728L109.639 39.5746L109.438 40.1772H108.434H107.831L106.626 39.7755L106.425 40.1772L104.416 39.7755L103.01 38.9719L101.202 37.5657L98.3896 35.9586L96.3807 35.1551L94.5728 34.5525L95.3763 34.3516L98.3896 35.356L98.1887 31.5392L98.3896 29.7312V27.5215L97.7869 26.7179V25.3117L98.3896 25.1108Z" fill="#F33030"/>
<path d="M45.7575 116.112L45.9584 116.514L44.7531 119.728L43.3469 124.75L42.1416 130.174L41.338 133.991L40.5345 135.196L39.53 136.401L38.3247 137.004H36.5168L35.1106 136.2L33.3026 134.392L31.8964 132.183L31.4946 131.379L31.6955 130.776L32.0973 131.58L33.1017 131.781L33.3026 130.776V130.174L34.307 128.968L36.3159 125.955L37.3203 124.147L39.53 123.946L40.5345 123.143L43.146 119.728L45.7575 116.112Z" fill="#F33030"/>
<path d="M68.0561 138.812L69.8641 139.013L77.6986 140.419L79.7075 141.022L79.9083 141.624L78.9039 142.629L77.6986 144.236L76.8951 145.843L76.0915 148.455L75.8906 150.262L75.0871 150.463L68.0561 149.459L66.8508 149.057L66.6499 148.856L66.8508 146.044L68.0561 138.812Z" fill="#3F1F39"/>
<path d="M51.7839 136.803L53.9937 137.004V139.214L52.9893 145.642L52.5875 147.249L52.3866 147.45L44.753 147.048L44.1503 146.847V148.254H43.9494L43.7485 137.607L44.5521 137.205L45.1547 137.004L51.7839 136.803Z" fill="#3F1F39"/>
<path d="M117.072 43.3916L117.875 43.7934L118.277 44.396L119.281 44.9987L120.888 47.4093L122.295 49.619L124.705 53.6368L126.312 59.4624L126.513 60.8686V64.8863L125.71 69.1049L124.906 72.3191L124.303 74.1271L123.5 75.5333L123.299 74.9306L123.902 72.52L124.906 69.7076L125.308 67.6987H125.71L125.911 65.6899V61.6722L124.705 57.6545L123.701 55.043L122.295 52.4314L121.29 52.0297L119.482 52.6323L117.674 53.0341H114.661L112.25 53.4359L111.045 54.8421L110.041 54.4403L109.84 54.0385L109.438 50.8244L109.036 48.012L110.241 48.2128V47.8111L111.045 47.6102L114.46 48.6146L118.679 48.2128L117.875 46.0031L117.072 43.9943V43.3916Z" fill="#F33030"/>
<path d="M94.3715 198.073L95.1751 198.274L96.983 199.68L98.9919 201.488L101.001 203.698L100.8 204.903L99.7954 205.506L98.9919 206.309L97.5857 206.912L94.7733 207.514H91.5591L89.3494 206.912L88.345 205.907L88.1441 205.104H87.7423V204.501H87.3405L87.1396 203.698L87.5414 202.492H87.9432V202.09H88.7467V201.689L90.1529 200.885L92.5636 199.68L94.1706 198.675L94.3715 198.073Z" fill="#F33030"/>
<path d="M42.5436 29.3296H43.7489L44.1507 29.7314L44.3515 31.3384L44.1507 32.3429H43.7489L43.548 33.1464L42.5436 33.7491L42.3427 34.5526L43.548 34.7535V34.9544L39.3294 35.1553L35.5126 36.1597L32.2984 37.7668L29.486 39.5747L28.8834 39.7756V40.1774L27.2763 41.5836L25.0665 43.9942L23.0577 47.2084L21.8524 49.8199L20.4462 53.8376L19.8435 57.8553L19.6426 60.4668L19.4418 61.6721L19.2409 65.6898L19.6426 70.712L18.6382 69.9084L18.0356 67.4978L17.6338 63.681V59.4624L18.2364 55.4447L19.6426 51.2261L21.8524 47.0075L23.8612 44.1951L26.4727 41.1818L28.0798 39.5747L29.6869 38.1685L32.2984 35.9588L35.7135 33.3473L36.517 32.9455L36.1152 33.7491L37.9232 32.5438L39.7312 31.1376L40.7356 30.5349H41.1374V30.1331L42.1418 29.9322V29.5305L42.5436 29.3296Z" fill="#F33030"/>
<path d="M105.622 59.2612L106.023 59.663V60.2657L107.028 59.8639L107.831 60.0648L107.63 61.471L107.028 63.4798L105.822 65.4887L104.617 67.6984L102.809 70.7117L99.9968 74.3276L98.1889 76.5374L97.5862 77.5418L94.5729 80.5551L92.9658 81.7604L93.3676 80.9568L94.372 79.9524L94.1712 78.5462L93.7694 78.1445L94.372 76.9391L95.1756 76.1356V75.9347L92.9658 75.5329L85.5331 74.7294L77.4977 73.5241V73.9259L76.895 74.1267L77.0959 73.3232L72.6764 72.9214L71.0693 72.7205V72.5197H76.0915L79.1047 72.7205L79.9083 73.1223L84.9304 73.725L85.5331 73.9259L89.149 74.1267V73.9259L91.3588 74.1267L94.7738 74.7294H96.3809L98.5906 72.1179L101.403 68.1002L103.412 64.4842L104.416 62.4754L105.622 59.2612Z" fill="#3F1F39"/>
<path d="M84.7296 103.255L87.9438 104.26L90.7562 106.068L91.3588 106.67L91.1579 107.474L90.7562 108.278H90.1535L89.9526 108.679L87.542 109.684L85.5332 110.487L83.3234 111.492L81.7163 111.693L77.4977 112.697L76.8951 112.898V113.3L75.6898 114.103L74.8862 114.907L75.288 113.902L76.8951 111.693L77.6986 110.688L78.1004 109.684L79.5066 108.478L81.3146 106.269L83.9261 103.657L84.7296 103.255Z" fill="#F33030"/>
<path d="M70.2654 9.64258H70.6672L70.8681 10.2452L70.6672 10.8479H70.2654V11.2497H69.8637L69.4619 12.0532L68.4575 12.8567L69.4619 13.0576V13.4594L70.2654 13.6603L69.6628 13.8612L70.2654 14.4638L69.6628 14.6647L71.069 15.2674L71.2699 16.2718L71.6716 16.4727L72.2743 17.4771L73.8814 19.2851L74.6849 19.8877L75.0867 21.2939L75.6893 21.4948L76.292 24.9099L76.4929 26.7178L76.6938 30.1329L76.292 32.1417L77.2964 33.5479L77.0955 33.9497L78.1 33.7488L77.6982 34.1506L75.6893 34.7532L74.6849 34.5524L73.2787 33.7488L73.4796 32.7444L74.0823 31.5391L74.484 28.5258L74.8858 26.3161L74.0823 21.4948L73.0778 21.093L71.4708 18.8833L70.8681 18.0798L69.8637 15.87L67.453 15.2674L65.4442 15.4683L63.2345 16.0709L62.23 17.2762L61.6274 17.678L59.2167 18.0798L58.2123 18.6824L57.8105 18.4815L64.038 14.2629L68.0557 11.4505L70.0646 9.84346L70.2654 9.64258Z" fill="#F33030"/>
<path d="M25.4678 69.5068H47.1634L55.3997 69.9086L68.859 71.1139L80.5104 72.5201L88.9475 73.7254L89.3493 74.3281L85.5325 74.1272L84.9298 73.9263L79.9077 73.3237L78.7024 72.9219L76.0909 72.721L70.667 72.5201L63.2342 71.7166L57.6094 71.3148V71.9175L57.2077 72.1183L56.605 76.3369H56.4041V71.3148L50.3776 70.913L49.7749 70.7121L44.9537 70.5113H40.3333L39.5297 70.913L39.3289 70.5113H31.2934L26.2713 70.7121L26.0704 71.5157L25.8695 70.1095L25.4678 69.9086V69.5068Z" fill="#3F1F39"/>
<path d="M86.9386 203.698L87.3404 204.502H87.7421V205.104H88.1439L88.7466 206.31L90.5545 207.113L91.559 207.314H94.7731L97.9873 206.511L99.1926 205.908L100.197 204.904H100.8V203.899L101.804 204.904L102.809 207.113L103.009 208.519L102.608 209.524L102.407 209.725L92.5634 209.926H88.9474L86.9386 209.725L86.5368 209.323L86.3359 208.519V205.506L86.7377 203.899L86.9386 203.698Z" fill="#F33030"/>
<path d="M98.1884 21.6958L98.9919 22.0976L102.407 25.5126L104.014 26.9188L105.822 28.9277L109.84 32.9454L111.447 34.3516L114.46 37.5657L115.866 38.9719L117.272 40.579L119.281 42.7888L122.295 46.8065L124.504 50.2215L126.513 54.4401L127.518 57.8552L127.919 60.4667V63.0782L127.116 67.0959L126.312 69.7074H125.911L126.513 65.6897L126.714 64.0826V60.4667L125.911 57.2525L125.509 56.2481L124.705 52.6321L124.103 52.4313L123.098 50.6233L122.496 49.2171L121.893 48.2127L121.491 48.0118L121.089 47.0074L120.085 45.6012L119.683 45.4003L119.08 44.195L118.478 43.7932L117.875 42.7888L115.866 40.579V40.1773L115.063 39.7755L112.652 36.9631L111.246 35.356L109.639 33.9498L107.63 31.941L107.228 31.7401V31.3383L106.224 30.9365L105.42 29.9321L103.813 28.5259V27.9232L103.01 27.5215L102.206 26.517L101.202 25.5126L101.001 24.91L100.197 24.5082L99.1928 23.7047L98.9919 22.9011L97.9875 22.4993L97.7866 21.8967L98.1884 21.6958Z" fill="#F33030"/>
<path d="M91.3582 106.871L92.5635 107.876L93.367 108.88L93.1661 109.683L92.7644 110.286L89.5502 111.893L85.5325 113.299L83.7245 113.701L80.3095 114.706L76.4927 115.71L75.4882 116.112H74.4838L74.082 116.313L74.4838 115.509L75.89 113.701L76.8944 113.299V112.898L77.4971 112.496L81.7157 111.491L83.9254 111.09L86.336 109.884L88.3449 109.081L90.1529 108.277H90.7555L91.1573 107.273L91.3582 106.871Z" fill="#F33030"/>
<path d="M37.9227 51.2256H40.1325L41.9404 52.4309L42.9448 53.6362L43.3466 54.6406V57.0513L42.5431 58.2566L41.3378 58.8592L39.128 58.6583L37.9227 57.8548L36.5165 56.2477L36.1147 55.2433V53.0336L36.7174 51.8282L37.9227 51.2256Z" fill="black"/>
<path d="M21.0486 51.6279L21.2495 52.2306L20.6468 54.6412L20.4459 55.8465V62.074L20.8477 65.6899L21.2495 67.8996L21.4504 68.7032H21.8521L22.4548 70.1094L23.0575 72.52L23.4592 73.9262V75.9351L23.6601 76.3368L23.4592 77.3413L22.2539 77.1404L21.6513 75.9351V75.3324H21.2495L20.6468 74.1271H20.2451L19.0398 71.3147L18.8389 69.5067L19.4415 70.1094L19.0398 64.6855L19.2406 61.0695L19.4415 60.4669L19.8433 56.2483L20.4459 53.235L21.0486 51.6279Z" fill="#F33030"/>
<path d="M79.3052 54.2393H81.314L82.5194 55.2437V55.6455H82.9211V57.6543L81.7158 59.6632L79.707 61.2702L79.3052 61.4711H77.899L76.2919 60.6676L75.8901 59.6632V57.8552L76.4928 56.6499L77.6981 55.0428L79.3052 54.2393Z" fill="black"/>
<path d="M92.7646 17.8789L93.5682 18.2807L94.7735 19.2851L96.1797 20.8922L96.9832 21.294L97.9877 22.2984L98.9921 22.901L99.193 23.7046L99.9965 24.1064L101.001 24.9099L101.804 26.1152L102.809 26.9187L103.813 27.9232L104.416 28.9276L105.621 29.932L106.626 30.9365L107.228 31.3382V31.74L108.032 32.1418L110.844 34.9542L112.251 36.1595L114.058 38.3692L115.465 39.9763L116.469 40.9807L118.478 43.1905V43.7931L119.282 44.1949L119.683 44.7975V45.4002L120.286 45.6011L121.491 47.2082V48.0117L122.094 48.2126L123.098 49.8197L123.701 51.2259L124.304 52.4312L124.705 52.6321L125.509 55.0427L125.911 56.4489L126.714 60.0648L126.915 61.0693V64.0825L126.513 67.4976L126.112 69.7073L125.509 71.7162L124.906 72.9215L124.705 72.3188L125.509 69.1047L126.312 64.8861V60.8684L125.71 57.8551L124.505 53.6365L122.496 50.2214L120.688 47.4091L118.277 43.994L115.465 40.9807L111.648 37.1639L110.242 35.5568L107.831 33.1462L106.224 31.74L104.416 29.932L103.01 28.3249L101.804 26.9187L99.5947 25.1108L97.9877 23.7046L96.5815 22.0975L95.577 21.0931V20.6913H95.1753V20.2895L94.5726 20.0886L93.1664 18.4816L92.7646 17.8789Z" fill="#F33030"/>
<path d="M22.455 46.2036H22.8568L22.6559 48.0116L21.6515 50.4222L20.4462 53.8373L19.8435 57.855L19.6426 60.4665L19.4418 61.6718L19.2409 65.6895L19.6426 70.7116L18.6382 69.9081L18.0356 67.4975L17.6338 63.6806V59.462L18.2364 55.4443L19.6426 51.2257L21.8524 47.0072L22.455 46.2036Z" fill="#F33030"/>
<path d="M73.4795 117.518L73.8813 117.719L72.8768 119.728L71.4706 122.741L69.8636 125.955L68.8591 128.165L67.6538 130.776L66.4485 133.991L66.2476 134.794L66.6494 135.397L71.8724 136.401L74.0822 137.205L74.283 137.607H72.4751L64.4397 136.401L64.2388 136L66.8503 129.571L67.8547 127.161L69.4618 123.946L71.6715 119.728L72.676 118.121L73.4795 117.518Z" fill="#F33030"/>
<path d="M79.7069 0L80.3095 0.200885L81.9166 3.41505L83.5237 5.82568L85.5325 8.43718L87.9432 11.2496L89.3494 12.6558L90.7556 14.2629L93.568 17.0753L95.175 18.4815L96.7821 20.0885L98.3892 21.4947L98.1883 21.8965H97.7865L97.5857 22.2983L96.983 21.6956V21.2938L96.1795 21.093L94.7733 19.6868V19.285L93.9697 18.8832L90.9564 16.0708L90.3538 15.6691V15.2673H89.952V14.8655H89.5502L86.7378 11.6514L85.7334 10.6469L84.9299 9.24073L83.9255 7.63364L82.921 6.62922L82.7201 6.02656L82.3184 5.82568L81.9166 4.82125H81.5148L81.3139 4.01771H80.9122V3.61594H80.5104L80.1086 2.61151L79.7069 2.20974L78.9033 2.00885L79.506 0.200885L79.7069 0Z" fill="#F33030"/>
<path d="M29.4855 80.9565L30.49 81.961L32.2979 84.1707L34.5077 85.7778L36.5165 87.7866L35.5121 87.5858L34.9094 87.9875L32.2979 88.3893L30.6908 87.184L29.6864 86.3804L28.8829 86.1796L26.874 84.1707V83.7689L27.4767 83.5681L28.0793 83.7689V82.3627L28.8829 81.961L28.682 81.5592L29.2846 81.3583L29.4855 80.9565Z" fill="#F33030"/>
<path d="M81.9168 33.146H85.9345L91.7602 33.5478L93.7691 34.1504L97.5859 35.3557L100.599 36.9628L102.809 38.5699L104.818 40.3779L106.626 42.3867L108.233 45.4L109.237 48.4133L109.438 49.4177V53.0336L108.032 56.0469L107.429 57.2522H106.626V49.8195H107.028L107.228 50.2213L108.635 50.0204V48.4133L107.831 45.8018L106.224 42.7885L104.416 40.5788L102.809 39.1726L100.8 37.7664L99.193 36.7619L95.9788 35.3557L92.5638 34.3513L88.1443 33.7487H81.5151L78.7027 34.1504H77.6982L78.5018 33.7487L81.9168 33.146Z" fill="#3F1F39"/>
<path d="M22.2538 115.309L23.2582 116.313L25.468 118.724L27.276 121.335L30.0884 125.554L30.691 126.558L30.2892 127.563L29.8875 127.964L30.0884 128.366L28.6822 128.567L26.2715 123.947L24.2627 120.532L22.6556 117.317L21.8521 116.112V115.509L22.2538 115.309Z" fill="#F33030"/>
<path d="M41.539 37.1636H43.5478L45.3558 37.5653L48.1682 39.1724L51.985 42.9892L53.5921 44.9981L53.3912 45.3999L51.7841 43.5919L50.3779 41.9848L48.57 40.3777L45.9585 38.5698L43.7487 37.9671H41.9408L38.9275 38.3689L34.7089 39.7751L32.2983 41.1813L30.4903 42.5875L27.6779 45.3999L26.0708 48.0114L24.6646 50.8238L23.6602 54.2388L23.2584 57.0512V62.8769H22.8566L22.6558 62.4751V56.0468L23.2584 52.6317L24.8655 48.4132L26.6735 45.6008L27.6779 44.1946H28.0797L28.4814 43.391L30.2894 41.5831L34.1062 39.1724L37.1195 37.9671L39.731 37.3645L41.539 37.1636Z" fill="#F33030"/>
<path d="M84.7294 103.255L87.9435 104.26L88.7471 105.465L88.1444 106.269L86.9391 106.67L85.1311 107.474L81.7161 108.679H80.5108L79.3055 109.483L76.8949 112.496L76.0913 113.099L76.4931 112.094L77.6984 110.688L78.1002 109.684L79.5064 108.478L81.3143 106.269L83.9258 103.657L84.7294 103.255Z" fill="#F33030"/>
<path d="M89.1486 120.732L90.9566 121.335L93.9699 122.942L96.5814 125.353L98.1885 126.759L102.206 130.375L103.612 131.982L106.224 134.594L107.027 135.799L106.224 135.397L104.617 134.192L103.211 132.585L101.403 130.576L98.3894 127.563L96.7823 126.156L93.9699 123.746L91.961 122.54L89.7513 121.335L90.5548 122.741L91.1575 123.545V124.951L89.9522 128.165L87.7424 134.192L86.3362 137.808L85.7336 139.616L83.9256 140.017L83.1221 139.817L85.3318 139.214L87.3407 133.187L89.1486 127.964L89.5504 124.549L89.7513 124.348V123.143L89.1486 121.737V120.732Z" fill="#F33030"/>
<path d="M77.4973 73.5239L80.1088 73.7248L82.3186 74.1266V74.5284L79.5062 75.5328L78.1 76.939L76.8947 81.3585L76.292 84.3717L76.0911 87.1841L76.292 87.9877L77.6982 88.1886V88.5903L75.4885 89.5948H75.2876V85.3762L75.6894 80.5549L76.4929 76.5372L77.4973 73.5239Z" fill="white"/>
<path d="M34.106 123.143H34.3069L34.7086 124.951L34.9095 125.353L36.9184 124.348H37.3201L36.9184 125.152L35.7131 127.161L34.106 129.571H33.7042L33.3024 130.576L33.5033 130.978L33.1015 131.781L32.4989 131.982V131.58H32.0971L31.4945 130.777L31.2936 128.567V127.964H30.6909L31.0927 126.759L32.9007 124.951L34.106 123.143Z" fill="#F33030"/>
<path d="M65.8461 140.419H66.047L65.8461 142.83L65.0426 148.253L64.8417 148.856H64.0382V148.454H61.8284L58.6143 148.253V148.053L61.0249 147.852L61.2258 146.646L62.632 143.834L64.239 141.624L64.8417 141.022L65.6452 140.821L65.8461 140.419Z" fill="white"/>
<path d="M58.8147 202.09L60.02 202.492L60.4218 203.497L60.6227 203.697L60.4218 205.104L59.8191 205.706L58.6138 206.309L56.2032 206.51L54.3952 206.108L53.5917 205.706H52.1855L50.7793 206.711L51.1811 205.907L53.3908 204.3L56.2032 202.894L58.8147 202.09Z" fill="#F33030"/>
<path d="M93.5679 109.684L94.3714 110.085L96.3803 112.697L98.59 115.308L100.8 118.121L103.411 121.335L107.429 126.357L109.639 129.37L109.237 129.772L108.233 129.169L106.023 126.156L103.612 123.545L102.005 121.536L100.398 119.326V118.924H99.9962L98.1882 116.715L96.782 115.107L95.175 113.099L94.1705 111.492V111.09H93.7688L93.5679 109.684Z" fill="#F33030"/>
<path d="M52.7881 116.313H52.989L53.1898 117.317L53.3907 120.732L53.5916 120.933L54.1943 125.554L55.3996 130.777L56.6049 134.192V135.397L46.9624 135.196L47.3642 134.794L49.9757 134.393H55.3996L55.6005 133.79L54.3952 131.179L53.7925 128.969L53.1898 125.955L52.5872 121.737L52.3863 117.719L52.7881 116.313Z" fill="#F33030"/>
<path d="M88.1445 74.9307L90.756 75.1315L93.9702 75.5333L95.3764 75.9351L94.7737 76.9395L94.372 77.1404L93.9702 78.1448L94.5729 79.1493L94.372 80.1537L92.564 82.1625L90.9569 83.5687L90.5552 82.9661H89.3498L88.7472 82.5643L89.149 81.7608L90.5552 79.9528L92.7649 78.1448L94.5729 76.3369L92.7649 75.9351L88.1445 75.1315V74.9307Z" fill="#F33030"/>
<path d="M99.1927 137.205H100.197L99.5944 138.41L97.3847 140.821L94.1705 143.834L92.5635 145.24L91.559 145.642L90.3537 144.839L90.1528 144.236L91.7599 143.031L94.5723 141.223L97.5856 138.611L98.3891 138.21V137.808H98.7909V137.406L99.1927 137.205Z" fill="#F33030"/>
<path d="M33.5034 81.3584L38.3246 86.1796L38.1237 86.5814L35.5122 84.9743L34.9096 85.577L35.7131 85.9788L37.722 87.7867L39.329 88.5903V88.992L40.1326 89.1929L42.945 91.0009L46.1591 92.608L49.1724 93.8133L52.9892 95.2195V95.4204L51.3822 95.2195L49.976 94.8177L46.1591 93.4115V93.0097L45.1547 92.608L41.9405 91.0009L40.3335 89.9965L39.7308 89.7956V89.3938L38.7264 88.992L36.5166 87.385L33.9051 85.1752L32.2981 83.1664L32.0972 82.3628L33.1016 82.1619L33.5034 82.3628V81.3584Z" fill="#F33030"/>
<path d="M37.3203 124.147H37.7221L36.9185 126.96L35.9141 130.174L34.5079 134.192H34.1061L34.307 134.995L33.5035 134.593L32.0973 132.585L31.4946 131.379L31.6955 130.777L32.0973 131.58L33.1017 131.781L33.3026 130.777V130.174L34.307 128.969L36.3159 125.955L37.3203 124.147Z" fill="#F33030"/>
<path d="M39.3288 34.9541H43.9492L45.7571 35.3559L48.1678 36.3603V36.7621L49.1722 36.963L50.1766 37.9674L51.7837 39.3736L53.9934 41.5833L54.9979 42.7886L54.797 43.1904L52.3864 40.7798L51.181 39.3736L50.7793 39.1727V38.7709L49.9757 38.3692L46.9625 36.3603L44.3509 35.5568H41.5385L38.7262 35.9585L34.7084 37.1638L31.4943 38.7709L28.8828 40.5789L26.4721 42.9895L24.8651 45.1993L24.0615 45.601L24.4633 44.5966L26.673 41.9851L28.481 40.1771H28.8828V39.7753L31.8961 37.7665L34.9093 36.1594L38.3244 35.155L39.3288 34.9541Z" fill="#F33030"/>
<path d="M50.9805 112.295H51.3822L50.9805 114.706L49.1725 118.924L47.7663 123.143L46.1592 128.968L45.3557 132.383H45.1548V129.571L46.9628 122.339L48.9716 116.313L50.3778 112.697L50.9805 112.295Z" fill="#F33030"/>
<path d="M84.3272 143.834H85.9343L86.9387 144.638L87.1396 146.445L86.537 147.45L84.729 148.053L83.3228 147.852L82.3184 146.847V145.441L83.3228 144.236L84.3272 143.834Z" fill="#F33030"/>
<path d="M41.1372 31.1372L42.3425 31.3381L42.5434 32.7443L41.7398 34.3514L43.5478 34.7531V34.954L39.3292 35.1549L35.5124 36.1593L33.3026 37.1638L32.9009 36.9629L34.508 35.9585L37.3204 34.954V34.1505H37.7221L38.1239 32.9452L40.1328 31.7399L41.1372 31.1372Z" fill="#F33030"/>
<path d="M85.3318 59.4619H85.5327V61.2699L84.5283 63.2787L82.7203 64.8858L81.515 65.2876H78.5017L76.4929 64.0823L76.292 63.6805H80.3097L82.5194 62.4752L83.5239 61.6717L84.5283 60.2655L85.1309 60.4663L85.3318 59.4619Z" fill="#F33030"/>
<path d="M46.1592 33.146H48.1681L49.3734 33.7487L50.177 35.1548V37.1637L49.5743 37.3646L48.1681 36.7619L47.9672 36.3602L45.1548 35.3557V34.954L44.1504 34.7531V34.1504L46.1592 33.146Z" fill="#F33030"/>
<path d="M44.1504 147.852H46.9628L57.0071 148.655L66.4487 149.86L73.2788 150.865L76.4929 151.668L77.4974 154.28L78.9036 156.49L80.3098 157.695L82.3186 158.699L84.1266 159.302V159.704H82.9213L80.9124 158.9L79.1044 157.494L77.8991 156.088L76.4929 153.275L76.0912 151.869L68.4575 150.664L61.4265 149.66L54.1947 148.856L44.1504 148.253V147.852Z" fill="#F33030"/>
<path d="M83.3228 87.9883H83.9255V88.3901L78.0998 91.4033L72.8768 93.4122L71.2697 94.0148H69.6626L70.4661 93.4122L73.6803 92.006H74.0821V91.6042L77.698 90.198L79.506 89.3945L82.1175 88.1892L83.3228 87.9883Z" fill="#F33030"/>
<path d="M81.9168 33.146H85.9345L91.7602 33.5478L93.7691 34.1504L97.5859 35.3557L100.599 36.9628L102.809 38.5699L104.818 40.3779L106.626 42.3867L108.233 45.4L108.835 47.0071L108.635 47.8106L107.63 45.4L106.224 42.7885L104.416 40.5788L102.809 39.1726L100.8 37.7664L99.193 36.7619L95.9788 35.3557L92.5638 34.3513L88.1443 33.7487H81.5151L78.7027 34.1504H77.6982L78.5018 33.7487L81.9168 33.146Z" fill="#F33030"/>
<path d="M20.044 53.8374H20.2449L20.044 56.248L19.6422 60.4666L19.4414 61.6719L19.2405 65.6896L19.6422 70.7118L18.6378 69.9082L18.0352 67.4976V65.4888L18.236 65.087H18.6378L18.4369 63.6808V62.2746L18.6378 60.4666L19.0396 57.6542L19.8431 54.4401L20.044 53.8374Z" fill="#F33030"/>
<path d="M30.4903 41.9849L30.8921 42.1857L27.6779 45.3999L26.0708 48.0114L24.6646 50.8238L23.6602 54.2389L23.2584 57.0513V62.8769H22.8566L22.6558 62.4752V56.0468L23.2584 52.6318L24.8655 48.4132L26.6735 45.6008L29.6867 42.7884L30.4903 41.9849Z" fill="#F33030"/>
<path d="M54.797 102.854H54.9979L54.797 105.063L54.1943 107.474L53.7925 112.496L53.5917 120.933H53.3908L53.1899 108.88L52.3863 108.679L51.9846 109.483L51.7837 109.081L52.7881 106.269L53.5917 104.661L54.1943 103.255L54.797 102.854Z" fill="#F33030"/>
<path d="M89.1484 120.732L90.9564 121.335L93.9697 122.942L96.5812 125.353L98.1883 126.759L102.206 130.375L103.612 131.982L106.224 134.594L107.027 135.799L106.224 135.397L104.617 134.192L103.21 132.585L101.402 130.576L98.3892 127.563L96.7821 126.156L93.9697 123.746L91.9608 122.54L89.7511 121.335L89.5502 122.139L89.1484 121.737V120.732Z" fill="#F33030"/>
<path d="M6.38402 96.2241H8.39288L8.99553 97.2285V98.6347L8.19199 99.6392L6.38402 99.8401L5.3796 99.0365L5.17871 97.6303L5.78137 96.6259L6.38402 96.2241Z" fill="#F33030"/>
<path d="M71.0693 72.5195H76.0915L79.1047 72.7204L79.9083 73.1222L84.9304 73.7248L85.9349 74.1266L89.3499 74.5284L89.5508 74.9302H86.9393L77.4977 73.524V73.9257L76.895 74.1266L77.0959 73.3231L72.6764 72.9213L71.0693 72.7204V72.5195Z" fill="#F33030"/>
<path d="M19.8433 56.248H20.0442V64.2835L20.6468 66.6941L20.4459 67.8994L19.8433 68.7029L20.0442 70.5109L20.2451 72.118H19.8433L19.6424 72.9215L18.8389 70.7118V69.5065L19.4415 70.1091L19.0398 64.6852L19.2406 61.0693L19.4415 60.4666L19.8433 56.248Z" fill="#F33030"/>
<path d="M39.7307 40.5791H42.5431L45.7573 41.1818L47.967 42.3871L50.3776 44.5968L51.7838 46.003L51.5829 46.4048L50.5785 45.6012V45.1995H50.1767L49.3732 44.195L46.5608 42.1862L44.9537 41.5835L41.3378 41.1818L37.7219 41.5835L35.1103 42.3871L32.6997 43.5924L30.8918 44.9986L29.8873 46.2039L29.2847 46.003L31.2935 43.9942L34.1059 42.1862L36.7174 41.1818L39.7307 40.5791Z" fill="#F33030"/>
<path d="M57.8105 165.931L58.6141 166.333L61.2256 168.141L63.2345 169.547V169.949H62.8327L62.6318 171.556V172.761L61.6274 171.757L60.2212 169.547L59.2167 168.342L58.4132 167.538L57.8105 165.931Z" fill="#F33030"/>
<path d="M7.38857 95.6216H10.4018V95.8225L8.99565 96.0234L9.79919 97.2287V98.8357L8.79476 100.041L7.79034 100.644H6.38414L4.97794 99.8402L4.57617 99.0366V97.4296L5.17883 96.4251L7.38857 95.6216ZM6.38414 96.2242L5.37971 97.2287L5.17883 98.0322L5.5806 99.2375L6.38414 99.8402L8.19211 99.6393L8.99565 98.6349V97.2287L8.39299 96.2242H6.38414Z" fill="#F33030"/>
<path d="M122.294 49.8198L123.098 50.2216L124.303 52.4313L124.705 52.6322L125.509 55.0428L125.91 56.449L126.714 60.065L126.915 61.0694V64.0827L126.513 67.4977L126.111 69.7075L125.509 71.7163L124.906 72.9216L124.705 72.319L125.509 69.1048L126.312 64.8862V60.8685L125.709 57.8552L124.504 53.6366L122.495 50.2216L122.294 49.8198Z" fill="#F33030"/>
<path d="M35.5122 59.0605L37.7219 60.4667L39.329 61.0694H42.1414L43.7485 60.2659L44.1503 60.4667L43.1459 61.2703L44.7529 60.4667L45.1547 60.6676L43.9494 62.0738L42.5432 62.6765L41.3379 62.8774L39.9317 62.4756L39.1281 62.0738V61.6721L38.1237 61.4712L36.9184 60.6676L35.5122 59.4623V59.0605Z" fill="#F33030"/>
<path d="M46.963 121.335H47.3648L46.5612 124.549L45.3559 129.571L44.3515 135.598L46.1594 135.397H54.9984V135.598L43.9497 136L44.1506 132.384L44.9541 128.969L45.9586 124.549L46.963 121.335Z" fill="#F33030"/>
<path d="M59.0156 168.141L60.0201 169.146L61.2254 170.753L62.4307 172.561L62.8324 172.761L63.0333 173.565V177.583H62.6316V176.578H62.2298L61.6271 175.373L60.8236 172.159L60.0201 169.949L59.0156 168.543V168.141Z" fill="#F33030"/>
<path d="M36.9185 124.348H37.3203L36.9185 125.152L35.7132 127.161L34.1061 129.571H33.7044L33.3026 130.576L33.5035 130.977L33.1017 131.781L32.4991 131.982V131.58H32.0973L31.4946 130.776V129.973L32.6999 129.169L34.5079 127.361L36.115 125.152V124.75L36.9185 124.348Z" fill="#F33030"/>
<path d="M84.7294 103.255L86.5373 103.858V104.059L84.7294 104.26L82.7205 106.068L81.3143 107.675L79.3055 109.483L76.8948 112.496L76.0913 113.099L76.4931 112.094L77.6984 110.688L78.1002 109.684L79.5064 108.478L81.3143 106.269L83.9258 103.657L84.7294 103.255Z" fill="#F33030"/>
<path d="M125.509 55.0425L125.911 55.6451L127.116 59.6628L127.719 60.8682L127.919 63.0779L127.116 67.0956L126.312 69.7071H125.911L126.513 65.6894L126.714 64.0823V60.4664L125.911 57.2522L125.509 56.2478V55.0425Z" fill="#F33030"/>
<path d="M92.7646 17.8789L93.5682 18.2807L94.7735 19.2851L96.1797 20.8922L96.9832 21.294L97.9877 22.2984L98.9921 22.901L99.193 23.7046L99.9965 24.1064L101.001 24.9099L101.804 26.1152L102.809 26.9187L103.01 27.5214L102.206 27.3205L99.193 24.709L97.9877 23.7046L96.5815 22.0975L95.577 21.0931V20.6913H95.1753V20.2895L94.5726 20.0886L93.1664 18.4816L92.7646 17.8789Z" fill="#F33030"/>
<path d="M39.3288 34.9541H41.5385V35.155L38.5253 35.5568L34.7084 36.7621L33.1014 37.5656L32.4987 38.1683L29.6863 39.9762L27.6775 41.7842L25.8695 43.7931L24.8651 45.1993L24.0615 45.601L24.4633 44.5966L26.673 41.9851L28.481 40.1771H28.8828V39.7753L31.8961 37.7665L34.9093 36.1594L38.3244 35.155L39.3288 34.9541Z" fill="#F33030"/>
<path d="M82.9212 35.5566H87.9433L91.961 36.1593L95.9787 37.3646L99.1929 38.9717L101.001 40.177V40.5788L100.197 40.177L98.1885 38.9717L95.577 37.7664L91.3584 36.5611L88.3451 36.1593H79.707V35.9584L82.9212 35.5566Z" fill="#F33030"/>
<path d="M20.6465 64.6851L21.0483 65.2877L22.0527 68.5019L23.8606 72.5196L25.8695 75.7338L27.6775 77.9435L28.0792 78.1444V78.5461H29.4854L31.0925 79.3497L31.2934 78.747L31.6952 79.9523L30.6908 79.7515L29.2846 79.3497L28.481 79.5506L27.0748 78.1444V77.7426H26.673L25.2668 75.5329L23.8606 73.524L22.4545 70.7116L21.8518 69.3054V68.7028H21.45L21.0483 67.8992L20.6465 65.6895V64.6851Z" fill="#F33030"/>
<path d="M52.3865 108.679H53.3909V120.732H53.19L52.9891 112.697L52.7882 112.295H52.1856L51.7838 111.692V111.09L51.1812 111.291L51.382 110.286L52.3865 108.679Z" fill="#F33030"/>
<path d="M95.1754 76.1357L96.1798 76.3366L96.7824 76.9393L96.5816 77.9437L95.9789 78.5464L95.5771 79.5508L93.1665 81.7605V81.1579L94.3718 79.9526L94.1709 78.5464L93.7692 78.1446L94.3718 76.9393L95.1754 76.1357Z" fill="#F33030"/>
<path d="M25.4678 69.5068L31.0926 69.7077V69.9086L44.7528 70.1095V70.3104L40.3333 70.5113L39.5297 70.913L39.3289 70.5113H31.2934L26.2713 70.7121L26.0704 71.5157L25.8695 70.1095L25.4678 69.9086V69.5068Z" fill="#F33030"/>
<path d="M45.3557 117.518L45.5566 118.322L44.1504 122.942L42.7442 128.969L41.9407 133.589L41.338 134.794L41.1372 135.397L40.1327 136L39.731 135.799L40.9363 134.392L41.5389 132.384L42.7442 126.357L44.3513 120.33L45.3557 117.518Z" fill="#F33030"/>
<path d="M89.1487 73.9258L91.3585 74.1267L96.1797 74.9302L95.1753 75.9346L92.9656 75.5329L89.5505 75.1311L89.3496 74.7293L85.9346 74.3276V74.1267H89.1487V73.9258Z" fill="#F33030"/>
<path d="M96.5813 140.218L96.7822 140.62L95.376 142.227L93.1663 144.235L91.961 145.039L91.1574 144.838L90.9565 144.035L92.9654 142.628L94.7734 141.423L96.5813 140.218Z" fill="#F33030"/>
<path d="M38.1238 48.8154H39.3291V49.0163L36.7176 49.619L35.5123 50.4225L34.5078 51.6278L34.1061 52.8331V54.842L34.9096 57.2526L36.3158 59.0606L38.1238 60.2659L39.7309 60.8686H42.7441L42.1415 61.2703H39.3291L37.3202 60.4668L35.5123 59.0606L34.307 57.4535L33.5034 54.4402L33.7043 52.4314L34.7087 50.4225L36.5167 49.2172L38.1238 48.8154Z" fill="#F33030"/>
<path d="M84.1262 144.637H85.9342L86.1351 144.838L85.9342 146.646L84.9298 147.249L83.5236 147.048L82.9209 146.646V145.642L84.1262 144.637Z" fill="#F33030"/>
<path d="M38.5254 88.3896L39.3289 88.5905V88.9923L40.1325 89.1932L42.9449 91.0012L46.159 92.6082L49.1723 93.8136L52.9891 95.2197V95.4206L51.3821 95.2197L49.9759 94.818L46.159 93.4118V93.01L45.1546 92.6082L41.9404 91.0012L40.3334 89.9967L39.7307 89.7958V89.3941L38.7263 88.9923L38.5254 88.3896Z" fill="#F33030"/>
<path d="M77.2962 90.8003H78.0998V91.4029L72.8768 93.4118L71.2697 94.0145H69.6626L70.4661 93.4118L74.6847 91.6038L77.2962 90.8003Z" fill="#F33030"/>
<path d="M31.0926 69.5068H47.1635V69.7077L38.9272 69.9086V70.1095H29.2847V69.9086H31.0926V69.5068Z" fill="#F33030"/>
<path d="M89.1486 127.964L89.3495 128.768L89.1486 130.375L87.7424 134.192L86.3362 137.808L85.7336 139.616L83.9256 140.017L83.1221 139.817L85.3318 139.214L87.3407 133.187L89.1486 127.964Z" fill="#F33030"/>
<path d="M22.4546 46.2036H22.8564L22.6555 48.0116H22.0528L21.4502 49.8195L20.4457 52.2302L19.6422 53.6364L19.4413 53.0337L19.0396 53.2346L19.6422 51.2257L21.8519 47.0072L22.4546 46.2036Z" fill="#F33030"/>
<path d="M79.1045 72.5195L81.9169 72.7204L88.9479 73.7248L89.3496 74.3275L85.5328 74.1266L84.9302 73.9257L79.908 73.3231L79.1045 72.9213V72.5195Z" fill="#F33030"/>
<path d="M70.6669 86.9834H72.0731L72.2739 88.3896L71.6713 89.394L69.8633 89.7958H69.2607L68.8589 88.7914L69.4615 88.3896H70.0642L70.2651 87.5861L70.6669 86.9834Z" fill="white"/>
<path d="M37.3203 61.0693L39.1283 61.672V62.0738L40.1327 62.4755L41.5389 62.6764L42.9451 62.2746H43.7486L43.5478 63.2791L42.7442 64.0826L42.3424 64.2835H40.9362L40.3336 63.8817V63.0782L38.1239 61.8729L37.3203 61.0693Z" fill="#F33030"/>
<path d="M38.5254 70.7119H38.9272L39.128 71.5155V77.9438L39.7307 82.5641L40.5342 86.5819L40.1325 86.7827L38.9272 85.9792H39.5298L39.9316 86.1801L38.9272 80.9571L38.5254 77.1402V70.7119Z" fill="#F33030"/>
<path d="M101 40.5791L101.804 40.78L103.612 42.3871L105.018 44.3959L106.424 47.2083L106.826 48.4136V49.8198L106.224 49.6189L105.42 46.6057L104.215 44.3959L102.808 42.588L101 40.78V40.5791Z" fill="#F33030"/>
<path d="M26.874 123.143L27.8785 123.545L29.2846 125.353L29.8873 126.558L30.2891 126.759L29.8873 127.563L29.4855 127.964H28.8829V126.759H28.4811V126.357H28.0793L26.874 123.746V123.143Z" fill="#F33030"/>
<path d="M79.3052 54.2393H81.3141L82.5194 55.2437L82.7203 55.6455V56.8508H82.5194L82.1176 55.6455L80.9123 55.0428H79.707L79.1044 55.4446L78.5017 56.8508L77.4973 57.0517L77.2964 56.8508V55.4446L78.7026 54.4401L79.3052 54.2393Z" fill="#F33030"/>
<path d="M74.6851 151.869H76.0913L76.6939 152.472L77.4975 154.682L78.9037 156.891L80.3098 158.097L82.3187 159.101L84.1267 159.704V160.105H82.9214L80.9125 159.302L79.1045 157.896L77.8992 156.49L76.493 153.677L76.0913 152.271L74.6851 152.07V151.869Z" fill="#F33030"/>
<path d="M54.7974 142.428H54.9983L54.7974 144.637L54.1947 147.651H56.6054L58.6142 148.053L64.0381 148.454V148.655H60.824L57.6098 148.454L57.0071 148.253L54.1947 148.053L53.793 147.852V146.245L54.3956 143.432L54.7974 142.428Z" fill="#F33030"/>
<path d="M28.4812 123.946H29.0838L30.6909 126.558L30.2892 127.562L29.8874 127.964L30.0883 128.366L28.6821 128.567L27.2759 125.955V124.75L27.6776 124.951L28.0794 125.754V126.357H28.4812V126.759H28.883V127.964L29.8874 127.361L30.2892 126.759L29.4856 126.357L28.6821 124.75L28.4812 123.946Z" fill="#F33030"/>
<path d="M53.5917 106.469H53.7925L53.5917 120.933H53.3908L53.1899 108.88L52.3863 108.679L51.9846 109.483L51.7837 109.081L52.1855 107.675L53.1899 107.273L53.5917 106.469Z" fill="#F33030"/>
<path d="M34.5075 38.9722L35.7129 39.1731L35.3111 39.5748L32.9005 40.7801L31.0925 41.9854L30.0881 42.5881L27.8783 44.7978L27.4766 44.597L27.6774 44.1952H28.0792L28.481 43.3916L30.289 41.5837L34.1058 39.1731L34.5075 38.9722Z" fill="#F33030"/>
<path d="M115.867 41.1816L116.67 41.5834L118.478 43.1905V43.7931L119.282 44.1949L119.684 44.7976V45.4002L120.286 45.6011L121.491 47.2082V48.0117L122.094 48.2126L123.099 49.8197L122.898 50.2215L121.893 49.2171L119.884 46.2038L118.076 43.7931L115.867 41.3825V41.1816Z" fill="#F33030"/>
<path d="M72.4751 137.607L74.484 137.808L76.2919 138.21L76.4928 138.812L78.5017 139.013L81.7158 139.817L83.122 140.018V140.218H81.5149L75.6893 139.013L73.2786 138.611L72.4751 138.009V137.607Z" fill="#F33030"/>
<path d="M22.2538 115.309L23.2582 116.313L25.468 118.724L25.2671 119.125L24.2627 118.523V119.527L25.0662 121.134L24.8653 121.536L22.8565 117.719L21.8521 116.112V115.509L22.2538 115.309Z" fill="#F33030"/>
<path d="M28.0794 40.1772L28.4812 40.3781L26.0705 42.7888L24.2626 45.1994L22.8564 47.61L22.4546 46.8065L22.8564 46.6056L22.6555 45.802L24.0617 43.9941L24.8652 42.9896L26.6732 41.5834L28.0794 40.1772Z" fill="#F33030"/>
<path d="M34.3066 85.5771L35.1102 85.9789L37.5208 87.9878L39.7305 89.394V89.7957L40.735 89.9966L42.5429 91.2019L45.3553 92.6081L44.7527 92.809L40.1323 90.3984L36.5164 87.9878L35.512 86.9833L34.5075 86.1798L34.3066 85.5771Z" fill="#F33030"/>
<path d="M42.5431 28.5259V29.1285L42.1413 29.9321L41.1369 30.133V30.5347L39.9316 31.1374L38.5254 32.3427L37.5209 33.1462L36.5165 33.7489H36.1147L36.5165 32.7445L40.1325 30.133L42.5431 28.5259Z" fill="#F33030"/>
<path d="M81.9168 33.146H85.9345L91.7602 33.5478L92.5638 33.7487V34.1504L90.1531 33.9495L88.1443 33.7487H81.5151L78.7027 34.1504H77.6982L78.5018 33.7487L81.9168 33.146Z" fill="#F33030"/>
<path d="M31.2938 70.3101H38.9274V70.7118L31.4947 70.9127H27.0752V70.5109L31.2938 70.3101Z" fill="#F33030"/>
<path d="M23.2584 53.2349H23.4593V55.2437L23.2584 57.0517V62.8774H22.8566L22.6558 62.4756V56.0473L23.0575 53.4357L23.2584 53.2349Z" fill="#F33030"/>
<path d="M7.38845 95.6216H10.4017V95.8225L8.99553 96.0234L9.79907 97.2287V98.8357L9.3973 99.2375L9.19642 98.8357L8.79465 99.0366V97.2287L8.39288 96.4251H6.38402L5.78137 96.626L5.58048 97.2287L5.17871 96.4251L7.38845 95.6216Z" fill="#F33030"/>
<path d="M71.0693 72.5195H76.0915L77.2968 72.9213L79.3056 73.3231L81.3145 73.524V73.9257L78.703 73.7248L77.4977 73.524V73.9257L76.895 74.1266L77.0959 73.3231L72.6764 72.9213L71.0693 72.7204V72.5195Z" fill="#F33030"/>
<path d="M73.0779 92.0059L73.6805 92.2067L70.0646 93.8138L70.4664 94.2156L68.2566 94.8183H66.0469L66.8504 94.2156L72.0734 92.4076L73.0779 92.0059Z" fill="#F33030"/>
<path d="M38.3246 51.4268L40.1325 51.8285L39.329 52.2303L38.3246 53.4356H36.5166L36.7175 52.2303L37.521 51.6276L38.3246 51.4268Z" fill="#F33030"/>
<path d="M38.9272 72.5195H39.1281L39.329 77.5417L40.1326 83.3673L40.9361 86.3806L40.7352 87.1842L39.9317 86.7824L40.3334 86.5815L39.5299 82.5638L38.9272 77.9434V72.5195Z" fill="#F33030"/>
<path d="M26.6733 70.5112H27.075L26.8741 71.7165L28.0795 73.9263L30.8918 77.7431L32.298 79.3502L31.6954 79.5511L30.0883 77.5422V77.1404H29.6865V76.5378L29.0839 76.3369V75.7342H28.6821L27.075 73.1227L26.2715 71.7165V70.7121L26.6733 70.5112Z" fill="#F33030"/>
<path d="M95.5767 141.825L95.9785 142.026L94.1705 143.834L92.5635 145.24L91.559 145.642L90.3537 144.838L90.1528 144.236L91.7599 143.031L92.5635 142.83L91.7599 143.633L91.1573 144.035L91.3581 144.838L92.3626 144.638L95.3759 142.026L95.5767 141.825Z" fill="#F33030"/>
<path d="M46.3603 38.1685L48.3691 39.3738L51.9851 42.9897L53.5921 44.9986L53.3913 45.4003L51.7842 43.5924L50.378 41.9853L48.57 40.3782L45.9585 38.5702L46.3603 38.1685Z" fill="#F33030"/>
<path d="M56.4038 71.1138H60.2206L61.2251 71.3147V71.5155L57.6091 71.3147V71.9173L57.2073 72.1182L56.6047 76.3368H56.4038V71.1138Z" fill="#F33030"/>
<path d="M97.3849 74.5288L97.5858 74.9306L98.1885 74.7297V75.1315L98.5902 75.3323L97.7867 76.7385L97.184 77.3412L96.7823 78.3456L95.7778 79.1492L95.9787 78.3456L96.5814 77.5421L96.9831 75.5332V74.7297L97.3849 74.5288Z" fill="#F33030"/>
<path d="M47.5649 36.1592L48.1676 36.3601V36.7618L49.172 36.9627L50.1765 37.9671L51.7835 39.3733L53.9933 41.5831L54.9977 42.7884L54.7968 43.1902L52.3862 40.7795L51.1809 39.3733L50.7791 39.1725V38.7707L49.9756 38.3689L47.9667 36.9627L47.5649 36.1592Z" fill="#F33030"/>
<path d="M25.4678 120.531L26.2713 120.933L28.0793 123.344L27.8784 123.745L26.874 123.143L27.0749 124.348L26.4722 123.545L25.4678 121.536V120.531Z" fill="#F33030"/>
<path d="M37.923 34.7534H43.5478V34.9543L39.3292 35.1552L35.5124 36.1596L33.3026 37.164L32.9009 36.9632L34.508 35.9587L37.923 34.7534Z" fill="#F33030"/>
<path d="M38.1238 48.8154H39.3291V49.0163L36.7176 49.619L35.5123 50.4225L34.5078 51.6278L34.1061 52.8331V54.842L34.307 56.2482H33.9052L33.5034 54.4402L33.7043 52.4314L34.7087 50.4225L36.5167 49.2172L38.1238 48.8154Z" fill="#F33030"/>
<path d="M30.4901 41.9849L30.8919 42.1857L27.6777 45.3999L26.4724 47.2079L25.8697 47.8105L25.6689 48.2123H25.2671L25.6689 47.007L27.0751 45.199L29.4857 42.9893L30.4901 41.9849Z" fill="#F33030"/>
<path d="M53.9937 95.4204L62.8326 95.6213V95.8222L61.0246 96.0231H55.199L53.9937 95.8222V95.4204Z" fill="#F33030"/>
<path d="M35.3114 84.7739L37.1194 85.7784L38.1238 86.7828L38.3247 87.1845L37.1194 87.3854L35.5123 85.9792L34.9097 85.5775L35.3114 84.7739Z" fill="#F33030"/>
<path d="M108.032 33.146L108.835 33.5478L111.849 36.561L113.255 38.1681L114.46 39.1726L115.866 40.7796L115.665 41.1814L111.648 37.1637L110.241 35.5566L108.032 33.3469V33.146Z" fill="#F33030"/>
<path d="M89.1484 120.732L90.9564 121.335L93.9697 122.942L94.9741 124.147H94.3715L92.7644 122.942L89.7511 121.335L89.5502 122.139L89.1484 121.737V120.732Z" fill="#F33030"/>
<path d="M33.7044 129.571H34.1061L33.9053 130.777L33.1017 132.384V133.388V133.991L31.8964 132.183L31.4946 131.379L31.6955 130.777L32.0973 131.58L33.1017 131.781L33.3026 130.777V130.174L33.7044 129.571Z" fill="#F33030"/>
<path d="M124.906 70.5112H125.107L124.906 72.3192L124.303 74.1272L123.5 75.5334L123.299 74.9307L123.901 72.5201L124.705 70.7121L124.906 70.5112Z" fill="#F33030"/>
<path d="M46.1592 93.2109H47.5654L51.9849 94.818L52.9893 95.2198V95.4207L51.3822 95.2198L49.976 94.818L46.1592 93.4118V93.2109Z" fill="#F33030"/>
<path d="M87.3407 134.191L87.5415 134.593L86.3362 137.807L85.7336 139.615L83.9256 140.017L83.1221 139.816L85.3318 139.214L86.9389 134.392L87.3407 134.191Z" fill="#F33030"/>
<path d="M125.91 61.27H126.312V66.2922L125.509 69.7072L124.906 70.7116L124.705 70.3099L125.308 67.6983H125.71L125.91 65.6895V61.27Z" fill="#F33030"/>
<path d="M89.5505 122.138L90.1532 122.942L90.7558 123.946L90.5549 124.951L89.5505 127.964H89.3496L89.5505 124.549L89.7514 124.348V123.143L89.5505 122.138Z" fill="#F33030"/>
<path d="M88.1445 74.9307L90.756 75.1315L93.9702 75.5333L95.3764 75.9351L94.7737 76.9395L93.9702 77.5422L93.5684 77.3413L94.5729 76.3369L92.7649 75.9351L88.1445 75.1315V74.9307Z" fill="#F33030"/>
<path d="M59.2168 167.539L60.2212 167.94L62.0292 169.547L62.431 169.748V171.355L61.4265 170.351L60.0203 168.744L59.2168 167.539Z" fill="#F33030"/>
<path d="M77.296 90.8003H78.0995V91.4029L75.6889 92.4074H74.2827L75.2871 91.4029L77.296 90.8003Z" fill="#F33030"/>
<path d="M92.7646 17.8789L93.5682 18.2807L94.7735 19.2851L96.1797 20.8922L98.1886 23.1019L98.3894 23.7046H97.9877L96.5815 22.0975L95.577 21.0931V20.6913H95.1753V20.2895L94.5726 20.0886L93.1664 18.4816L92.7646 17.8789Z" fill="#F33030"/>
<path d="M63.0332 142.629L63.2341 143.432L62.0288 145.24L61.2252 147.048L61.0243 148.053H60.6226L60.8234 146.446L62.2296 143.633L63.0332 142.629Z" fill="white"/>
<path d="M79.3053 54.2393H81.3141L82.5195 55.2437L82.7203 55.6455V56.8508H82.5195L82.1177 55.6455L80.9124 55.0428H79.3053L78.7026 54.4401L79.3053 54.2393Z" fill="#F33030"/>
<path d="M64.0376 44.9985H64.4394L64.2385 46.003L63.2341 46.4047L63.0332 47.0074L61.627 48.0118L60.6226 49.0162V48.4136L64.0376 44.9985Z" fill="#F33030"/>
<path d="M34.5077 38.9722L35.713 39.1731L35.3112 39.5748L32.9006 40.7801L32.0971 41.3828L31.6953 41.1819L32.6997 39.9766L34.5077 38.9722Z" fill="#F33030"/>
<path d="M39.7311 124.549L40.1328 124.75L40.5346 126.96L40.3337 127.763H39.932L39.5302 126.96H39.932L39.7311 125.956H39.3293L39.1284 124.75L39.7311 124.549Z" fill="#F33030"/>
<path d="M89.1487 73.9258L91.3585 74.1267V74.5284L92.162 74.7293L91.7602 74.9302L90.9567 74.7293H89.3496L85.9346 74.3276V74.1267H89.1487V73.9258Z" fill="#F33030"/>
<path d="M45.7577 34.3516L47.1639 34.5524L47.7666 34.9542V35.356H48.1684V35.9586L46.3604 35.5569V35.1551L45.5568 34.9542L45.356 34.5524L45.7577 34.3516Z" fill="#F33030"/>
<path d="M123.701 52.2305L124.505 53.2349L125.509 56.4491L125.308 57.2526L124.706 56.2482L124.304 54.2393L123.701 53.034V52.2305Z" fill="#F33030"/>
<path d="M72.4751 137.607L74.484 137.808L75.4884 138.009L75.6893 138.812L73.2786 138.611L72.4751 138.009V137.607Z" fill="#F33030"/>
<path d="M31.6952 81.3584L32.4988 81.5593L33.1014 82.1619L32.2979 82.3628L32.6997 83.5681L33.905 84.7734L33.7041 85.1752L32.2979 83.769L31.2935 82.3628L31.4943 81.5593L31.6952 81.3584Z" fill="#F33030"/>
<path d="M19.8433 61.873H20.0441L20.245 63.4801H20.6468L20.8477 65.6899L21.0486 66.6943L20.245 65.8908L19.8433 63.8819V61.873Z" fill="#F33030"/>
<path d="M46.5607 34.1509L47.9669 34.3518L48.9714 35.758V36.3606L47.1634 36.1597L46.7616 35.758L48.1678 35.9588V35.3562H47.7661V34.9544L46.3599 34.5526L46.5607 34.1509Z" fill="#F33030"/>
<path d="M31.4946 70.7119H35.9141V70.9128L27.276 71.3146L26.8742 72.1181L26.6733 71.1137L26.8742 70.9128L31.4946 70.7119Z" fill="#F33030"/>
<path d="M125.91 68.3008H126.111V70.1087L124.906 72.9211L124.705 72.3185L125.509 69.1043L125.91 68.3008Z" fill="#F33030"/>
<path d="M51.1809 22.7002H51.5826V23.102L50.3773 23.5037V23.9055H49.9756V24.3073H49.5738V24.709L48.3685 25.5126L47.5649 25.7135L47.7658 24.9099L51.1809 22.7002Z" fill="#F33030"/>
<path d="M76.292 72.7202H79.1044L79.9079 73.122L82.7203 73.5238L82.9212 73.9255H81.3141V73.5238H79.3053L76.292 72.9211V72.7202Z" fill="#F33030"/>
<path d="M55.6009 48.8154L56.2036 49.0163L56.6053 50.2216L56.0027 50.8243L55.1991 50.4225L54.7974 49.619L55.6009 48.8154Z" fill="#F33030"/>
<path d="M105.621 46.2036H106.023L106.826 48.4134V49.8195L106.224 49.6187L105.621 47.208V46.2036Z" fill="#F33030"/>
<path d="M18.8389 69.5068L19.6424 70.5113H20.0442L20.2451 72.1183H19.8433L19.6424 72.9219L18.8389 70.7121V69.5068Z" fill="#F33030"/>
<path d="M45.1548 58.8594H45.3556L45.5565 60.4665L44.9539 61.0691L44.753 60.6673L43.1459 61.4709L42.7441 61.27L43.9495 60.4665L45.1548 58.8594Z" fill="#F33030"/>
<path d="M34.1061 124.348L34.9096 124.951L34.7088 125.754L32.9008 126.96L32.499 126.759L33.3026 125.553H33.7043L34.1061 124.348Z" fill="#F33030"/>
<path d="M75.6895 73.1221L77.0957 73.323L77.2965 74.5283L76.8948 75.9345H76.493L76.0912 73.7247L76.2921 73.323L75.6895 73.1221Z" fill="#F33030"/>
<path d="M22.0529 48.0117H22.4547L21.852 49.8197L20.8476 52.6321L20.4458 52.2303L20.6467 51.4268L21.852 48.4135L22.0529 48.0117Z" fill="#F33030"/>
<path d="M37.5211 51.8286H38.7264L38.5255 52.6322L37.9229 53.2348L36.9185 53.0339L37.1193 52.2304L37.5211 51.8286Z" fill="#F33030"/>
<path d="M82.7204 145.441L83.1222 145.642L82.9213 146.647L84.9302 147.249L84.1266 147.651H82.9213L82.5195 147.249V145.642L82.7204 145.441Z" fill="#F33030"/>
<path d="M41.9407 132.183L42.1416 132.785L41.5389 134.593L41.1372 135.397L40.1327 135.999L39.731 135.799L40.9363 134.392L41.5389 132.384L41.9407 132.183Z" fill="#F33030"/>
<path d="M28.0796 39.5747L28.4813 39.7756L26.6734 41.7844L26.0707 42.3871H25.6689L26.0707 41.5836L28.0796 39.5747Z" fill="#F33030"/>
<path d="M82.9211 73.7251H84.93L85.5326 73.926V74.3278H82.9211L81.7158 74.1269V73.926L82.9211 73.7251Z" fill="#F33030"/>
<path d="M47.5649 36.1592L48.1676 36.3601V36.7618L49.172 36.9627L50.1765 37.9671L51.1809 38.7707V39.1725H50.7791V38.7707L49.9756 38.3689L47.9667 36.9627L47.5649 36.1592Z" fill="#F33030"/>
<path d="M102.608 27.5215L103.411 27.7224L103.813 27.9233L104.416 28.9277L105.219 30.133V30.7356L102.809 28.1241L102.608 27.5215Z" fill="#F33030"/>
<path d="M47.1635 25.312L47.3644 26.1156L45.3555 27.12L44.3511 27.5218V27.12L47.1635 25.312Z" fill="#F33030"/>
<path d="M96.5816 140.218L96.7825 140.62L95.3763 142.227L94.7736 142.628L94.9745 141.825L94.5728 141.624L96.5816 140.218Z" fill="#F33030"/>
<path d="M38.5254 88.3896L39.3289 88.5905V88.9923L40.1325 89.1932L42.1413 90.3985L41.3378 90.5994L39.7307 89.7958V89.3941L38.7263 88.9923L38.5254 88.3896Z" fill="#F33030"/>
<path d="M22.8566 57.6543H23.0575L23.2584 62.8773H22.8566L22.6558 62.4755L22.8566 57.6543Z" fill="#F33030"/>
<path d="M27.2759 124.75L27.6776 124.951L28.0794 125.754V126.357H28.4812V126.759H28.883V127.964L28.4812 127.161L27.6776 126.759L27.2759 125.955V124.75Z" fill="#F33030"/>
<path d="M91.9609 122.138L92.9654 122.339L94.5724 123.544L94.9742 124.348L94.1707 123.946L92.3627 122.741L91.9609 122.54V122.138Z" fill="#F33030"/>
<path d="M51.3825 109.482H51.7842L51.1816 111.29L49.9763 114.103L49.7754 113.5L51.1816 109.683L51.3825 109.482Z" fill="#F33030"/>
<path d="M39.731 82.564L40.1327 83.3675L40.9363 86.3808L40.7354 87.1843L39.9318 86.7826L40.3336 86.5817L39.731 83.7693V82.564Z" fill="#F33030"/>
<path d="M24.0618 50.8237H24.2627L24.0618 52.6317L23.6601 54.2388H23.4592L23.2583 52.6317L24.0618 50.8237Z" fill="#F33030"/>
<path d="M97.3853 200.082L98.7915 201.287L99.7959 202.493L99.1932 202.694L98.3897 201.689L97.3853 200.685V200.082Z" fill="#F33030"/>
<path d="M54.7972 142.428H54.9981L54.7972 144.637L54.5963 145.843H54.1945L53.9937 146.245L54.1945 144.637L54.5963 143.231L54.7972 142.428Z" fill="#F33030"/>
<path d="M89.149 127.964L89.3498 128.768L89.149 130.375L88.9481 130.978L88.1445 131.58L88.5463 129.772L89.149 127.964Z" fill="#F33030"/>
<path d="M27.8784 126.758L28.682 127.16V127.964L29.6864 127.562L30.289 127.16L29.8873 127.964L30.0882 128.365L28.682 128.566L27.8784 127.16V126.758Z" fill="#F33030"/>
<path d="M37.3203 61.0693L39.1283 61.672V62.0738L40.1327 62.4755L41.338 62.6764L40.5345 63.0782L39.1283 62.4755L37.3203 61.2702V61.0693Z" fill="#F33030"/>
<path d="M42.5434 28.5259V29.1285L42.1417 29.9321L40.1328 30.5347V30.133L42.5434 28.5259Z" fill="#F33030"/>
<path d="M78.0999 73.1221L81.3141 73.5238V73.9256L78.7026 73.7247L77.4973 73.5238L77.2964 73.9256V73.323L78.0999 73.1221Z" fill="#F33030"/>
<path d="M32.7002 37.3647L33.1019 37.5656L32.4993 38.1683L30.6913 39.3736L30.2896 39.1727L31.294 38.1683L32.7002 37.3647Z" fill="#F33030"/>
<path d="M98.3892 23.7046L99.1927 24.1064L100.197 25.1108L101.202 25.7134L101.804 26.7179L101.001 26.3161L98.3892 23.9055V23.7046Z" fill="#F33030"/>
<path d="M75.4887 138.209L76.4931 138.41V138.812L78.502 139.013V139.214H76.694L75.6896 139.013V138.611L75.0869 138.41L75.4887 138.209Z" fill="#F33030"/>
<path d="M23.2583 78.9482L23.861 79.1491L25.2672 81.158L25.0663 81.7606L23.2583 79.35V78.9482Z" fill="#F33030"/>
<path d="M20.6465 64.6851L21.0483 65.2877L21.6509 67.4975V68.7028L21.0483 67.8992L20.6465 65.6895V64.6851Z" fill="#F33030"/>
<path d="M80.9123 59.4619H81.3141L80.9123 60.2655L80.5106 60.6672H79.707V59.6628L80.9123 59.4619Z" fill="#F33030"/>
<path d="M91.3583 143.633L91.7601 143.834L91.5592 144.436L92.3627 144.235L93.1663 143.633L93.5681 143.834L91.961 145.039L91.1574 144.838L90.9565 144.035L91.3583 143.633Z" fill="#F33030"/>
<path d="M83.7246 144.035L84.3272 144.236L83.3228 145.039L82.7201 145.642L82.5192 146.847H82.3184V145.441L83.3228 144.236L83.7246 144.035Z" fill="#F33030"/>
<path d="M94.5728 123.746L95.3763 124.147L97.1843 125.754L96.5816 125.955L94.9745 124.549L94.5728 123.746Z" fill="#F33030"/>
<path d="M80.9121 54.2393L81.9165 54.641L82.7201 55.6455V56.8508H82.5192L82.1174 55.6455L80.9121 55.0428V54.4401V54.2393Z" fill="#F33030"/>
<path d="M95.5771 141.825L95.9789 142.026L94.1709 143.834L93.1665 144.437L93.5683 143.633L95.5771 141.825Z" fill="#F33030"/>
<path d="M26.6733 70.5112H27.075L26.8741 71.7165L27.4768 72.9219L27.2759 73.3236L26.2715 71.7165V70.7121L26.6733 70.5112Z" fill="#F33030"/>
<path d="M40.7349 30.1328H41.1367V30.5346L39.9314 31.1372L39.1278 31.9408L38.7261 31.7399L39.5296 30.5346L40.7349 30.1328Z" fill="#F33030"/>
<path d="M74.6851 151.869H76.0913L76.6939 152.472L76.8948 154.28L76.493 153.677L76.0913 152.271L74.6851 152.07V151.869Z" fill="#F33030"/>
<path d="M65.0423 137.808L66.4485 138.009V138.41L66.0467 138.611H64.2388V138.209L65.0423 137.808Z" fill="white"/>
<path d="M41.9406 88.5908L42.9451 88.7917L43.3468 89.7961L42.3424 89.5952L41.7397 89.1935L41.9406 88.5908Z" fill="#F33030"/>
<path d="M36.7178 85.979L38.124 86.7825L38.3249 87.1843L37.1195 87.3852L36.7178 86.7825V85.979Z" fill="#F33030"/>
<path d="M40.7356 57.6543H41.74V58.4578L40.7356 58.6587L40.5347 57.8552L40.7356 57.6543Z" fill="#F33030"/>
<path d="M123.701 52.2305L124.505 53.2349L124.906 54.2393V54.842L124.304 54.6411L123.902 53.2349L123.701 52.2305Z" fill="#F33030"/>
<path d="M65.645 43.5923L66.0467 43.7932L64.6405 45.6011L64.2388 44.7976L65.645 43.5923Z" fill="#F33030"/>
<path d="M65.6448 140.017L66.0465 140.419L65.6448 141.022L64.4395 141.222L64.8412 140.218L65.6448 140.017Z" fill="white"/>
<path d="M53.3908 104.661L53.7925 104.862L52.7881 106.67L51.7837 107.273L52.1855 106.469L53.3908 104.661Z" fill="#F33030"/>
<path d="M34.3066 85.5771L35.1102 85.9789L36.9181 87.586H36.3155L34.5075 86.1798L34.3066 85.5771Z" fill="#F33030"/>
<path d="M76.0911 73.9258H76.292L76.0911 75.332L75.6894 76.7382H75.2876L75.8903 74.1267L76.0911 73.9258Z" fill="#F33030"/>
<path d="M98.3892 38.5703L100.599 39.7756L101.001 40.5792L100.197 40.1774L98.3892 38.9721V38.5703Z" fill="#F33030"/>
<path d="M97.385 139.415H97.7868V140.017H97.385L96.9832 140.821L96.5815 141.022V140.419L96.1797 140.218L97.385 139.415Z" fill="#F33030"/>
</svg>
