<svg width="127" height="210" viewBox="0 0 127 210" fill="none" xmlns="http://www.w3.org/2000/svg">
<path d="M78.7471 0.00012207L79.3497 0.201007L80.9568 3.41517L82.5639 5.8258L84.5727 8.43731L86.9834 11.2497L88.3896 12.6559L89.7958 14.263L92.6081 17.0754L94.2152 18.4816L95.8223 20.0887L97.4294 21.4949L101.447 25.5126L103.054 26.9188L104.862 28.9276L108.88 32.9453L110.487 34.3515L113.5 37.5657L114.906 38.9719L116.313 40.579L118.321 42.7887L121.335 46.8064L123.544 50.2215L125.553 54.44L126.558 57.8551L126.96 60.4666V63.0781L126.156 67.0958L124.951 70.7118L122.942 74.9304L121.335 77.341L118.924 80.5551L116.915 82.7649L115.509 84.372L113.701 86.1799L112.094 87.5861L108.88 90.1976L105.264 92.6083L101.246 94.818L94.8179 97.4295L86.7825 100.242L84.3718 101.447L83.5683 102.251V103.255L85.9789 103.858L88.3896 105.063L90.1975 106.469L91.6037 107.876L93.4117 110.085L95.4205 112.697L97.6303 115.308L99.84 118.121L102.452 121.335L106.469 126.357L109.081 129.973L110.487 132.584L110.688 133.991L110.085 135.999L108.88 137.807L108.478 138.008L106.469 136.401L104.259 134.593L103.255 133.991V135.799L104.661 138.611L106.268 140.821L107.875 142.629V143.633L107.273 143.834L101.045 144.236L98.2329 144.638L94.617 145.843L92.6081 147.048L92.2064 148.454L91.8046 150.865L90.8002 153.276L89.5949 154.883L88.7913 155.887L86.7825 157.092L84.3718 158.097L83.5683 158.9L83.3674 159.905L83.7692 160.909L84.171 166.936L84.9745 172.962L86.3807 180.194L89.394 192.047L90.3984 195.06L91.4028 196.064L93.6126 197.872L95.8223 199.479L98.2329 201.689L100.041 203.698L101.246 205.707L102.05 207.916L101.849 209.323L101.447 209.724L91.6037 209.925H87.9878L85.9789 209.724L85.5772 209.323L85.3763 208.519V205.506L86.1798 201.89V200.484L83.3674 196.667L81.9612 194.658L80.1533 191.846L77.9435 188.631L75.1311 184.815L73.1223 182.002L69.9081 177.784L67.4975 174.569L65.6895 172.36L63.4798 170.753L61.8727 169.949L61.6718 171.556L62.0736 173.565L62.4753 180.395L63.2789 185.819L64.4842 190.439L66.493 196.265L68.5019 201.488L70.5108 206.309L70.9125 207.515V208.318L69.3055 208.519H53.0337L49.4178 208.318V207.113L50.2213 205.908L52.4311 204.301L55.2435 202.894L60.8683 201.287L60.6674 200.082L58.2568 195.863L55.0426 189.234L52.8328 184.413L50.0205 177.985L47.8107 172.159L46.2036 166.936L44.3957 159.704L43.3912 154.079L42.9895 150.061L42.7886 138.812L42.3868 136.2L41.3824 135.196L40.7797 134.995L37.7664 136.803L37.3647 137.004H35.5567L34.1505 136.2L32.3425 134.392L30.9363 132.183L30.5346 131.379L30.1328 128.768L29.731 128.366L27.5213 128.768L26.316 129.37L23.1018 131.781L21.6956 131.982L21.2938 131.58L19.6868 124.147L18.0797 119.326L16.4726 116.112L14.2629 112.697L13.0575 111.692H7.43276L5.22302 111.291L3.21417 110.286L1.60708 108.88L0.401771 106.871L0 105.465V102.452L0.602656 100.443L1.60708 98.8357L3.41505 97.0277L5.02213 96.0233L6.42833 95.6215H9.44161L12.254 96.4251L14.4637 97.8313L15.8699 99.4384L16.6735 101.648V104.059L16.0708 106.67L16.2717 107.675L18.2806 109.483L20.4903 111.09L23.1018 113.299L25.1107 114.907L27.7222 117.116L29.9319 118.924L32.5434 121.134L33.347 122.138L33.5479 123.745L33.7487 124.951L33.9496 125.353L36.3602 124.147L38.57 123.946L39.5744 123.143L42.1859 119.728L47.4089 112.496L50.0205 108.076L52.632 104.461L53.8373 101.849L54.0382 100.644L53.2346 99.8401L50.2213 98.6348L43.3912 96.2242L38.3691 93.8136L33.7487 90.8003L30.9363 88.7914L27.9231 86.1799L25.7133 83.9702L22.7 79.9525L20.8921 77.1401L18.6823 72.9215L17.6779 69.9082L17.0753 67.4976L16.6735 63.6808V59.4622L17.2761 55.4445L18.6823 51.2259L20.8921 47.0073L22.9009 44.1949L25.5124 41.1816L27.1195 39.5745L28.7266 38.1683L31.3381 35.9586L34.7532 33.3471L37.7664 31.1374L40.9806 28.9276L43.9939 26.7179L47.4089 24.5081L51.8284 21.6957L56.4488 18.6825L63.078 14.263L67.0957 11.4506L69.1046 9.8435L71.917 7.43288L76.1356 3.21429L77.9435 1.00455L78.7471 0.00012207Z" fill="#3E1F38"/>
<path d="M6.42833 95.6218H9.44161L12.254 96.4254L14.4637 97.8316L15.8699 99.4386L16.6735 101.648V104.059L16.0708 106.671L16.2717 107.675L18.2806 109.483L20.4903 111.09L23.1018 113.3L25.1107 114.907L27.7222 117.117L29.9319 118.925L32.5434 121.134L33.347 122.139L33.5479 123.746L33.7487 124.951L33.9496 125.353L36.3602 124.148L38.57 123.947L39.5744 123.143L42.1859 119.728L47.4089 112.496L50.0205 108.077L52.632 104.461L53.8373 101.849L54.0382 100.644L53.2346 99.8404V99.4386L55.6452 99.8404L62.0736 100.845L67.4975 101.247H76.5373L81.5594 100.845L86.3807 100.041V100.443L84.3718 101.448L83.5683 102.251V103.255L85.9789 103.858L88.3895 105.063L90.1975 106.47L91.6037 107.876L93.4117 110.086L95.4205 112.697L97.6303 115.309L99.84 118.121L102.452 121.335L106.469 126.357L109.081 129.973L110.487 132.585L110.688 133.991L110.085 136L108.88 137.808L108.478 138.009L106.469 136.402L104.259 134.594L103.255 133.991V135.799L104.661 138.611L106.268 140.821L107.875 142.629V143.633L107.273 143.834L101.045 144.236L98.2329 144.638L94.617 145.843L92.6081 147.048L92.2064 148.455L91.8046 150.865L90.8002 153.276L89.5949 154.883L88.7913 155.887L86.7825 157.093L84.3718 158.097L83.5683 158.901L83.3674 159.905L83.7692 160.91L84.171 166.936L84.9745 172.963L86.3807 180.195L89.394 192.047L90.3984 195.06L91.4028 196.064L93.6126 197.872L95.8223 199.48L98.2329 201.689L100.041 203.698L101.246 205.707L102.05 207.917L101.849 209.323L101.447 209.725L91.6037 209.926H87.9878L85.9789 209.725L85.5772 209.323L85.3763 208.519V205.506L86.1798 201.89V200.484L83.3674 196.667L81.9612 194.658L80.1533 191.846L77.9435 188.632L75.1311 184.815L73.1223 182.003L69.9081 177.784L67.4975 174.57L65.6895 172.36L63.4798 170.753L61.8727 169.949L61.6718 171.556L62.0736 173.565L62.4753 180.395L63.2789 185.819L64.4842 190.44L66.493 196.265L68.5019 201.488L70.5108 206.31L70.9125 207.515V208.318L69.3054 208.519H53.0337L49.4178 208.318V207.113L50.2213 205.908L52.4311 204.301L55.2435 202.895L60.8683 201.288L60.6674 200.082L58.2567 195.864L55.0426 189.234L52.8328 184.413L50.0205 177.985L47.8107 172.159L46.2036 166.936L44.3957 159.704L43.3912 154.079L42.9895 150.062L42.7886 138.812L42.3868 136.201L41.3824 135.196L40.7797 134.995L37.7664 136.803L37.3647 137.004H35.5567L34.1505 136.201L32.3425 134.393L30.9363 132.183L30.5346 131.379L30.1328 128.768L29.731 128.366L27.5213 128.768L26.316 129.371L23.1018 131.781L21.6956 131.982L21.2938 131.58L19.6868 124.148L18.0797 119.326L16.4726 116.112L14.2629 112.697L13.0575 111.693H7.43276L5.22302 111.291L3.21417 110.286L1.60708 108.88L0.401771 106.871L0 105.465V102.452L0.602656 100.443L1.60708 98.836L3.41505 97.028L5.02213 96.0236L6.42833 95.6218Z" fill="#060304"/>
<path d="M80.3539 35.9586H87.3849L90.3982 36.3604L94.6168 37.5657L98.4336 39.3737L100.643 41.1816L102.652 43.1905L104.058 45.4002L104.862 47.2082L105.665 50.8241V54.4401L105.264 57.4534L104.46 60.4666L103.054 63.8817L100.643 68.1003L98.2327 71.5153L95.6212 74.7295L95.4203 74.9304H93.8132L85.1752 73.5242L76.5371 72.3189L65.6893 71.1136L54.4397 70.1091L46.2034 69.7074H24.7087L23.9051 68.502L22.4989 64.0826L22.0972 61.4711V57.0516L22.6998 53.2348L24.106 49.4179L25.7131 46.6055L27.1193 44.7976L30.1326 41.7843L33.3467 39.7754L36.5609 38.5701L39.1724 37.9675L40.9804 37.7666H42.7884L45.3999 38.5701L48.614 40.9808L50.8238 43.1905L52.4309 45.1993L54.8415 48.4135L56.6494 51.4268H57.2521L58.8592 49.4179L61.0689 47.0073L64.0822 43.994L66.8946 41.7843L69.9079 39.7754L73.3229 37.9675L76.5371 36.7622L78.3451 36.1595L80.3539 35.9586Z" fill="#F9C68F"/>
<path d="M78.7474 0.00012207L79.3501 0.201007L80.9571 3.41517L82.5642 5.8258L84.5731 8.43731L86.9837 11.2497L88.3899 12.6559L89.7961 14.263L92.6085 17.0754L94.2156 18.4816L95.8227 20.0887L97.4297 21.4949L101.447 25.5126L103.055 26.9188L104.862 28.9276L108.88 32.9453L110.487 34.3515L113.501 37.5657L114.907 38.9719L116.313 40.579L118.322 42.7887L121.335 46.8064L123.545 50.2215L125.554 54.44L126.558 57.8551L126.96 60.4666V63.0781L126.156 67.0958L124.951 70.7118L122.942 74.9304L122.34 75.533L122.741 73.1224L123.947 69.7073L124.348 67.6985H124.75L124.951 65.6896V61.6719L123.746 57.6542L122.741 55.0427L121.335 52.4312L120.331 52.0294L118.523 52.6321L116.715 53.0338H113.701L111.291 53.4356L110.086 54.8418L109.081 54.44L108.88 54.0383L108.478 50.8241L107.876 47.8108L106.871 44.9984L105.264 42.186L103.456 40.1772L101.447 38.3692L98.2333 36.3604L96.2244 35.3559L92.8094 34.3515L90.8005 33.7489L84.9748 33.3471H80.9571L77.5421 33.9497L74.127 34.9542L69.5067 37.1639L66.6943 38.9719L63.681 41.1816L63.0783 41.3825V41.7843L62.0739 42.5878H61.6721V42.9896L60.0651 44.3958L57.2527 47.2082L56.65 47.0073V46.2037H56.2482L54.842 44.1949L53.235 42.186L51.427 40.1772L49.619 38.3692L48.2128 37.3648L48.0119 36.963L47.2084 36.7621L47.0075 36.3604L44.1951 35.3559L42.9898 35.1551H38.3694L34.5526 36.1595L31.3385 37.7666L28.5261 39.5745L27.9234 39.7754V40.1772L26.3163 41.5834L24.1066 43.994L22.0977 47.2082L20.8924 49.8197L19.4862 53.8374L18.8836 57.8551L18.6827 60.4666L18.4818 61.6719L18.2809 65.6896L18.6827 70.7118L17.6783 69.9082L17.0756 67.4976L16.6738 63.6808V59.4622L17.2765 55.4445L18.6827 51.2259L20.8924 47.0073L22.9013 44.1949L25.5128 41.1816L27.1199 39.5745L28.7269 38.1683L31.3385 35.9586L34.7535 33.3471L37.7668 31.1373L40.981 28.9276L43.9942 26.7179L47.4093 24.5081L51.8288 21.6957L56.4491 18.6825L63.0783 14.263L67.0961 11.4506L69.1049 9.8435L71.9173 7.43288L76.1359 3.21429L77.9439 1.00455L78.7474 0.00012207Z" fill="#B485BA"/>
<path d="M42.9897 147.852H47.4092L53.2349 148.254L63.4801 149.459L73.7252 151.066L75.1314 151.468L76.7385 155.084L78.1447 156.892L79.9527 158.298L81.9615 159.101H83.3677L83.7695 160.106L84.1712 166.132L84.9748 172.159L86.381 179.391L89.3943 191.243L90.3987 194.256L91.4031 195.261L93.6129 197.069L95.8226 198.676L98.2332 200.886L100.041 202.894L101.246 204.903L102.05 207.113L101.849 208.519L101.447 208.921L91.604 209.122H87.9881L85.9792 208.921L85.5774 208.519L85.3766 207.716V204.702L86.1801 201.086V199.68L83.3677 195.863L81.9615 193.855L80.1535 191.042L77.9438 187.828L75.1314 184.011L73.1225 181.199L69.9084 176.98L67.4978 173.766L65.6898 171.556L63.4801 169.949L61.873 169.146L61.6721 170.753L62.0739 172.762L62.4756 179.592L63.2792 185.016L64.4845 189.636L66.4933 195.462L68.5022 200.685L70.511 205.506L70.9128 206.711V207.515L69.3057 207.716H53.034L49.4181 207.515V206.309L50.2216 205.104L52.4314 203.497L55.2438 202.091L60.8685 200.484L60.6677 199.278L58.257 195.06L55.0429 188.431L52.8331 183.609L50.0207 177.181L47.811 171.355L46.2039 166.132L44.3959 158.901L43.3915 153.276L42.9897 149.258V147.852Z" fill="#D6A172"/>
<path d="M30.3337 70.3101H38.3691L38.7708 70.7118L39.3735 70.3101H43.9939L48.8151 70.5109L49.4178 70.7118L55.4443 71.1136L55.6452 71.3145V75.5331L56.047 72.118L56.6496 71.9171V71.3145L62.2744 71.5154L69.7072 72.3189L71.716 72.7207L75.5329 73.1225L76.1355 73.3233V73.926H76.5373V73.5242L79.1488 73.7251L85.9789 74.7295L92.0055 75.3322L94.2152 75.734V76.3366L93.4117 77.1402L93.0099 78.1446L93.6125 79.149L93.4117 80.1534L91.6037 82.1623L89.9966 83.5685L87.9878 85.1756L84.9745 87.1844L82.1621 88.7915L77.5417 91.2021L73.524 92.8092L69.5063 94.2154L66.0912 95.019L61.8727 95.8225L60.0647 96.0234H54.239L53.0337 95.8225V95.4207H51.0248L50.2213 95.019L47.8107 94.4163L45.1992 93.4119V93.0101L44.1947 92.6083L40.9806 91.0012L39.3735 89.9968L38.7708 89.7959V89.3942L37.7664 88.9924L35.5567 87.3853L32.9452 85.1756L31.3381 83.1667L31.1372 82.3632L32.1416 82.1623L32.5434 82.3632L32.3425 81.3588L30.5345 79.3499L29.1283 77.5419V77.1402H28.7266V76.5375L28.1239 76.3366V75.734H27.7221L26.1151 73.1225L25.3115 71.7163V70.7118L25.7133 70.5109L30.3337 70.3101Z" fill="#AD7BA3"/>
<path d="M79.7513 38.771H87.3849L89.9965 39.3737L91.4026 39.9763L92.4071 42.186L93.4115 43.994L93.6124 45.1993L93.4115 45.4002L93.2106 48.8153L93.0097 49.4179H92.608L92.0053 51.6277L91.2018 53.6365L89.5947 55.6454L89.1929 56.6498L88.1885 57.6542L86.7823 59.4622L86.1796 60.0648L85.1752 61.6719L84.3717 61.8728V60.0648L84.1708 60.4666H83.769L83.9699 59.4622L84.3717 58.2569V55.4445L83.5681 53.6365L82.1619 52.4312L80.5548 51.8285H78.3451L76.1354 52.6321L74.9301 53.4356L73.9256 54.4401L72.7203 56.6498L72.5194 57.6542V60.0648L73.1221 61.471L73.9256 62.6764L76.738 64.6852L77.5416 65.087H80.5548L81.961 64.8861L81.7602 65.4887L79.5504 66.0914L77.9433 66.2923L75.9345 66.0914H70.9123V66.2923L67.0955 66.0914L64.484 65.2879L61.069 64.0826L60.0645 63.8817L60.4663 63.4799L58.2566 62.6764L55.2433 62.2746L48.0114 61.8728H45.3999L43.5919 62.4755H42.9893L43.1902 61.6719L43.9937 60.6675L42.1857 61.471L41.784 61.2702L42.9893 60.4666L44.5964 58.2569L44.7973 57.6542V54.6409L43.9937 52.6321L42.5875 50.8241L40.7795 49.6188L38.3689 49.0161L36.1592 49.217L34.1503 50.2215L33.1459 51.8285L32.7441 53.4356L32.945 55.4445L33.7486 57.8551L34.5521 58.6586L34.9539 59.6631L36.7618 61.0693L38.168 61.6719V62.0737L39.1725 62.4755L40.5787 62.6764L41.9849 62.2746H42.7884L42.5875 63.279L41.784 64.0826L41.3822 64.2834H39.976L38.9716 63.4799L37.7663 64.0826L36.7618 63.0781L33.7486 62.8772L31.9406 62.0737L29.9317 60.8684L29.3291 59.4622L28.1238 55.8463L27.1193 53.6365L26.9185 51.6277L27.3202 49.217L27.9229 47.2082L28.5255 46.2038H28.9273L29.3291 45.4002L31.137 43.7931L33.5477 42.3869L35.7574 41.5834L37.7663 41.1816L40.5787 40.9807L43.9937 41.3825L46.0026 42.186L48.815 44.3958L49.2167 45.1993H49.6185V45.6011L50.422 46.0029L51.6274 46.8064L53.4353 49.0161L54.2389 49.4179L54.6406 48.8153L55.2433 49.0161L56.6495 51.4268H57.2521L58.8592 49.4179L61.069 47.0073L63.0778 44.9984H63.4796L63.2787 46.0029L62.2743 46.4046L62.0734 47.0073L60.6672 48.0117L62.4752 46.8064L64.6849 44.9984L69.3053 42.186L72.7203 40.7798L76.9389 39.3737L79.7513 38.771Z" fill="#FDD7AD"/>
<path d="M80.9569 33.1464H84.9746L90.8003 33.5481L92.8091 34.1508L96.626 35.3561L99.6392 36.9632L101.849 38.5703L103.858 40.3782L105.666 42.3871L107.273 45.4004L108.277 48.4136L108.88 51.8287L109.081 54.0384L109.684 54.6411L110.085 54.842L110.487 54.0384L111.291 53.2349L113.902 52.8331H116.714L120.13 52.0296L120.732 51.8287L121.737 52.6322L123.344 56.0473L124.549 59.4623L125.152 61.6721V65.6898L124.75 67.6986H124.549L124.348 62.6765L122.942 61.0694L121.737 60.6677L119.527 60.4668L119.326 60.6677H116.313V61.0694L115.308 61.6721H113.902L111.692 62.2747L109.282 63.2792H107.876L106.67 63.8818L105.465 65.288L103.456 68.904L102.05 71.1137L100.041 73.7252L98.0322 75.9349L96.626 77.542L93.6127 80.5553L92.0056 81.7606L92.4074 80.9571L93.4118 79.9526L93.2109 78.5464L92.8091 78.1447L93.4118 76.9394L94.2153 76.1358V75.9349L92.0056 75.5332L84.5728 74.7296L76.5374 73.5243V73.9261L75.9348 74.127L76.1357 73.3234L71.7162 72.9217L68.3011 72.319L62.2746 71.7163L56.6498 71.3146V71.9172L56.248 72.1181L55.6454 76.3367H55.4445V71.3146L49.4179 70.9128L48.8152 70.7119L43.994 70.511H39.3736L38.5701 70.9128L38.3692 70.511H30.3338L25.3117 70.7119L25.9143 72.5199L27.7223 75.3323V75.7341H28.1241L28.3249 76.3367L28.7267 76.5376V77.1403H29.1285L31.1373 79.7518L32.7444 81.7606L32.5435 82.5642L31.3382 82.3633L31.74 83.5686L33.3471 85.3766L35.5568 87.1845L37.7666 88.7916L38.771 89.3943V89.796L39.7754 89.9969L41.5834 91.2022L44.3958 92.6084L43.7931 92.8093L39.1728 90.3987L34.9542 87.5863L33.9497 87.9881L31.3382 88.3898L29.7311 87.1845L28.7267 86.381L27.9232 86.1801L25.7134 83.9704L22.7002 79.9526L20.8922 77.1403L18.6824 72.9217L17.8789 70.7119V69.5066L18.4816 70.1093L18.0798 64.6854L18.2807 61.0694L18.4816 60.4668L18.8833 56.2482L19.486 53.2349L21.0931 48.8154L22.7002 45.8021L24.3072 43.5924L26.517 41.1818L27.5214 40.1773H27.9232V39.7756L30.9365 37.7667L33.9497 36.1596L37.3648 35.1552L38.3692 34.9543H42.9896L44.7975 35.3561L47.2082 36.3605V36.7623L48.2126 36.9632L49.217 37.9676L50.8241 39.3738L53.0338 41.5835L55.2436 44.3959L56.248 45.8021V46.2039H56.6498V47.0075L57.6542 46.8066L59.0604 45.1995L61.2701 42.9897H61.6719V42.588L62.6763 41.7844H63.0781V41.3827L66.694 38.7712L68.9038 37.365L73.1224 35.1552L76.7383 33.9499L79.5507 33.3472L80.9569 33.1464ZM80.3542 35.9588L78.3454 36.1596L74.1268 37.5658L70.9126 39.1729L67.6985 41.1818L64.8861 43.3915L62.4755 45.6013L59.4622 48.6145L57.8551 50.6234L56.8507 51.6278L55.4445 49.4181L53.6365 46.8066L52.0294 44.7977L50.2214 42.588L48.2126 40.5791L44.9984 38.3694L42.7887 37.7667H40.9807L37.9674 38.1685L33.7488 39.5747L31.3382 40.9809L29.5303 42.3871L26.517 45.4004L24.9099 48.0119L23.5037 50.8243L22.4993 54.2393L22.0975 57.0517V61.4712L22.7002 64.8862L24.1064 68.904L24.709 69.7075H46.2037L54.44 70.1093L67.8994 71.3146L79.5507 72.7208L90.3985 74.3279L93.8136 74.9305H95.4206L97.0277 73.1225L99.8401 69.3057L102.251 65.288L103.657 62.4756L104.862 59.2615L105.465 56.4491L105.666 54.4402V50.8243L104.862 47.2083L103.456 44.3959L102.05 42.588L100.041 40.5791L98.0322 39.1729L94.6171 37.5658L90.3985 36.3605L87.3852 35.9588H80.3542Z" fill="#41213B"/>
<path d="M90.3983 106.871L91.6036 107.876L93.4116 110.085L95.4205 112.697L97.6302 115.308L99.8399 118.121L102.451 121.335L106.469 126.357L109.081 129.973L110.487 132.585L110.688 133.991L110.085 136L108.88 137.808L108.478 138.008L106.469 136.401L104.259 133.79L101.246 130.777L99.8399 129.169L98.2329 127.763L96.0231 125.754L94.416 124.348L92.4072 122.741L88.1886 120.732L88.7912 122.741L88.9921 123.143V124.348L88.7912 124.549L88.3895 127.964L85.3762 136.803L84.5727 139.214L82.162 140.017H80.7558L75.5328 138.812L75.3319 138.41L69.1045 137.205L63.4797 136.401L63.2788 136L65.8903 129.571L66.8947 127.161L68.5018 123.946L70.7116 119.728L73.1222 115.911L74.9302 113.701L75.9346 113.3V112.898L76.5372 112.496L80.7558 111.492L82.9656 111.09L85.3762 109.884L87.385 109.081L89.193 108.277H89.7957L90.1974 107.273L90.3983 106.871Z" fill="#F9C68F"/>
<path d="M79.1488 5.02222H79.5506V5.42399L80.555 5.82576L81.5595 6.6293V7.03107H81.9612L82.7648 8.0355L84.171 9.84346L85.3763 11.2497L88.5905 14.4638V14.8656H88.9922V15.2674H89.394V15.6691L90.1975 16.0709L91.8046 17.678L93.2108 19.2851L94.2152 20.2895V20.6913H94.617L96.0232 22.2984L96.2241 22.901L97.0276 23.3028V23.7046L97.8312 24.1063L100.443 26.5169L101.849 27.7223L103.255 29.3293L105.063 31.3382L106.469 32.5435V32.9453L107.273 33.347L110.688 36.7621L112.094 38.3692L116.514 42.7887L118.723 45.6011L120.732 48.6143L123.745 53.6365L125.352 59.4621L125.553 60.8683V64.886L124.75 69.1046L123.946 72.3188L123.344 74.1268L122.54 75.533L122.339 74.9303L122.942 72.5197L123.946 69.7073L124.348 67.6984H124.75L124.951 65.6896V61.6719L123.745 57.6542L122.741 55.0427L121.335 52.4312L120.33 52.0294L118.522 52.632L116.714 53.0338H113.701L111.29 53.4356L110.085 54.8418L109.081 54.44L108.88 54.0382L108.478 50.8241L107.875 47.8108L106.871 44.9984L105.264 42.186L103.456 40.1771L101.447 38.3692L98.2329 36.3603L96.2241 35.3559L92.809 34.3515L90.8002 33.7488L84.9745 33.347H80.9568L78.948 33.5479V33.1462L79.7515 32.9453L78.948 31.74L79.5506 29.5302L79.9524 28.3249L80.3542 26.7178L80.1533 24.3072V19.486L79.5506 18.8833V17.2762L79.7515 16.6736L79.5506 15.87H79.1488L79.3497 15.0665L79.5506 14.0621V11.2497L79.7515 10.8479V9.64258L78.7471 7.23196V5.42399L79.1488 5.02222Z" fill="#9C689E"/>
<path d="M6.42833 95.6218H9.44161L12.254 96.4254L14.4637 97.8316L15.8699 99.4386L16.6735 101.648V104.059L16.0708 106.671L16.2717 107.675L18.2806 109.483L20.4903 111.09L23.1018 113.3L25.1107 114.907L27.7222 117.117L29.9319 118.925L32.5434 121.134L33.347 122.139L33.5479 123.746L33.7487 124.951L33.9496 125.353L36.3602 124.148L38.57 123.947L39.5744 123.143L42.1859 119.728L44.7974 116.112L44.9983 116.514L43.793 119.728L42.3868 124.75L41.1815 130.174L40.378 133.991L39.5744 135.196L38.57 136.402L37.3647 137.004H35.5567L34.1505 136.201L32.3425 134.393L30.9363 132.183L30.5346 131.379L30.1328 128.768L29.731 128.366L27.5213 128.768L26.316 129.371L23.1018 131.781L21.6956 131.982L21.2938 131.58L19.6868 124.148L18.0797 119.326L16.4726 116.112L14.2629 112.697L13.0575 111.693H7.43276L5.22302 111.291L3.21417 110.286L1.60708 108.88L0.401771 106.871L0 105.465V102.452L0.602656 100.443L1.60708 98.836L3.41505 97.028L5.02213 96.0236L6.42833 95.6218Z" fill="#3F1F39"/>
<path d="M80.3544 35.9586H87.3854L90.3987 36.3604L94.6173 37.5657L98.4341 39.3737L100.644 41.1816L102.653 43.1905L104.059 45.4002L104.862 47.2082L105.666 50.8241V54.4401L105.264 57.4534L104.461 60.4666L103.054 63.8817L100.644 68.1003L98.2332 71.5153L95.6217 74.7295L95.4208 74.9304H93.8138L85.1757 73.5242L76.5376 72.3189V72.118H77.542V71.5153L76.7385 71.1136V70.31L78.7474 69.3056L80.9571 68.3012L82.1624 67.8994L84.1713 66.895L84.7739 66.6941L85.1757 65.8905L85.7783 65.6896L86.1801 64.8861L87.1845 64.4843L87.5863 63.6808L88.5907 62.4755H88.9925L89.3943 61.4711H89.7961L90.1978 60.6675L92.0058 58.2569L92.6084 57.0516H93.0102L93.6129 55.0427L94.4164 53.2348L95.0191 51.8286L95.6217 49.8197L96.0235 48.6144L96.2244 46.8064H96.6262L96.827 42.9896L95.6217 41.5834L93.2111 40.1772L89.5952 38.9719L86.381 38.5701H83.9704L79.7518 38.9719L76.3367 39.7754L71.5155 41.3825L68.3013 42.9896L64.0827 45.6011L62.2748 47.2082L60.8686 48.2126L60.4668 48.0117L62.0739 46.8064L62.6765 46.2038L63.2792 45.802V44.7976L65.288 42.9896L68.904 40.3781L72.1181 38.5701L74.7297 37.3648L78.3456 36.1595L80.3544 35.9586Z" fill="#D5A071"/>
<path d="M55.8463 103.255L58.4578 103.456L66.0914 104.26H79.3498L79.5507 105.063L78.1445 106.269L76.7383 108.278H76.3366L75.9348 109.282L75.3321 110.086H74.9304L74.5286 111.291L72.5197 114.103L70.7118 117.117L69.1047 119.929L66.2923 125.152L63.6808 130.777L62.4755 134.192L61.8728 136L58.6587 135.799L57.6542 135.598L55.6454 129.772L54.2392 123.143L53.8374 120.331V114.103L54.4401 109.282L55.6454 103.657L55.8463 103.255Z" fill="#3E1F38"/>
<path d="M50.4221 149.459H54.038L60.4663 150.062L68.1 151.267L72.3186 151.869L74.5283 152.472L75.131 154.079L75.5327 157.494L76.3363 160.307L77.9434 165.128L78.546 167.739V170.351L77.9434 171.355L76.9389 172.36L76.1354 172.762V173.565L74.1265 173.967L73.9257 174.168L71.7159 173.967L70.7115 172.962L68.7026 171.355L67.8991 170.954V170.552L67.0956 170.15L64.6849 167.338L63.2787 165.731L62.4752 164.726V164.324H62.0734L61.069 163.32L60.6672 162.516L59.8637 162.115L57.8548 160.307L57.4531 160.106V159.704H57.0513L56.2478 158.7L53.4354 156.892V156.49L52.6318 156.088L51.6274 155.285L50.2212 153.075V149.66L50.4221 149.459Z" fill="#FAC790"/>
<path d="M78.7471 0.00012207L79.3497 0.201007L80.9568 3.41517L82.5639 5.8258L84.5728 8.43731L86.9834 11.2497L88.3896 12.6559L89.7958 14.263L92.6082 17.0754L94.2153 18.4816L95.8223 20.0887L97.4294 21.4949L101.447 25.5126L103.054 26.9188L104.862 28.9276L108.88 32.9453L110.487 34.3515L113.5 37.5657L114.906 38.9719L116.313 40.579L118.321 42.7887L121.335 46.8064L123.545 50.2215L125.553 54.44L126.558 57.8551L126.96 60.4666V63.0781L126.156 67.0958L124.951 70.7118L123.946 72.9215L123.745 72.3188L124.549 69.1047L125.352 64.8861V60.8684L124.75 57.8551L123.545 53.6365L121.536 50.2215L119.728 47.4091L117.317 43.994L114.505 40.9807L110.688 37.1639L109.282 35.5568L106.871 33.1462L105.264 31.74L103.456 29.932L102.05 28.325L100.844 26.9188L98.6347 25.1108L97.0277 23.7046L95.6215 22.0975L94.617 21.0931V20.6913H94.2153V20.2895L93.6126 20.0887L92.2064 18.4816L89.9967 16.0709L89.394 15.6692V15.2674H88.9922V14.8656H88.5905L85.7781 11.6515L83.3675 9.24085L82.5639 8.03554V7.63377L81.9613 7.43288V7.03111H81.5595V6.62934L80.7559 6.22757L79.5506 5.42403V5.02226L78.948 5.42403V7.23199L79.9524 9.64262V10.8479L79.7515 11.8524V14.8656L79.1489 15.8701H79.5506L79.9524 16.8745L79.7515 17.2763V18.8833L80.3542 19.486V24.5081L80.5551 26.7179L79.9524 29.3294L79.3497 30.7356L79.1489 31.74L79.9524 33.1462H78.948V33.548L74.7294 34.7533L73.725 34.5524L72.3188 33.7489L72.5196 32.7444L73.1223 31.5391L73.5241 28.5258L73.9258 26.3161L73.1223 21.4949L72.1179 21.0931L70.5108 18.8833L69.9081 18.0798L68.9037 15.8701L66.4931 15.2674L64.4842 15.4683L62.2745 16.0709L61.2701 17.2763L60.6674 17.678L58.2568 18.0798L57.2524 18.6825L56.8506 18.4816L63.078 14.263L67.0957 11.4506L69.1046 9.8435L71.917 7.43288L76.1356 3.21429L77.9435 1.00455L78.7471 0.00012207Z" fill="#A571A9"/>
<path d="M56.6494 71.3146L62.2742 71.5155L69.707 72.319L71.7158 72.7208L74.7291 73.1225L75.3318 73.3234L74.7291 75.5332L73.7247 80.1535L73.3229 83.3677L72.9212 90.1978L67.4973 92.0058L62.676 93.0102L59.4618 93.412H56.8503L56.6494 93.0102L55.8459 85.5774L55.645 82.3633V77.542L56.4486 71.9172L56.6494 71.3146Z" fill="#FCFBFC"/>
<path d="M83.3675 115.107H86.1799L88.7914 115.509L91.202 116.514L93.6126 118.322L94.6171 119.125L95.6215 120.13L96.0233 120.933H96.425L97.4295 121.938L97.6303 122.54L98.4339 122.942L98.6348 123.545L99.2374 123.745V124.147L100.041 124.549L102.452 127.562L104.862 130.977L105.264 131.379L107.072 131.178L108.076 130.776H108.88L109.081 130.174L110.085 131.781L110.487 132.584L110.688 133.991L110.085 135.999L108.88 137.807L108.478 138.008L106.469 136.401L104.26 133.79L101.246 130.776L99.8401 129.169L98.233 127.763L96.0233 125.754L94.4162 124.348L92.4073 122.741L88.1887 120.732L88.7914 122.741L88.9923 123.143V124.348L88.7914 124.549L88.3896 127.964L85.3763 136.803L84.5728 139.214L82.1622 140.017H80.756L75.5329 138.812L75.3321 138.41L74.5285 138.008L74.9303 137.607L74.5285 137.205L74.3276 136.2V134.794L74.9303 131.58L75.9347 128.366L76.9391 126.156L77.9436 124.147L78.948 122.741L80.5551 121.335L82.1622 119.326L82.7648 117.92L83.3675 116.715V115.107Z" fill="#D5A072"/>
<path d="M39.3737 70.7119H49.418L55.4446 71.1137L55.6455 71.7163L54.8419 76.5376L54.641 79.1491V83.3677L55.2437 89.9969L55.4446 91.604V93.412L52.0295 92.8093L48.0118 91.604L44.7976 90.1978L41.7844 88.5907L41.1817 87.7872L40.3782 85.1757L39.5746 80.9571L39.1729 78.1447V71.3146L39.3737 70.7119Z" fill="#FCFBFD"/>
<path d="M98.8354 133.187L99.639 133.388L101.648 134.995L103.255 137.004L103.657 136.803L105.063 139.214L106.469 141.022L107.875 142.629V143.633L107.273 143.834L101.045 144.236L98.2328 144.637L94.6168 145.843L92.608 147.048L92.2062 148.454L91.8044 150.865L90.8 153.276L89.5947 154.883L88.7912 155.887L86.7823 157.092L83.1664 157.293L81.5593 156.691L79.3496 154.682L78.3451 152.673L77.9434 151.468V148.454L78.9478 146.044L79.7513 144.838L80.5549 143.834L82.3628 142.629L82.9655 142.428H86.3805L88.3894 143.231L89.3938 143.03L90.5991 142.026L91.6036 140.62H92.0053L92.4071 139.816L93.8133 138.41L95.2195 136.803L97.0275 134.794L98.4337 133.388L98.8354 133.187Z" fill="#3E1F38"/>
<path d="M97.4296 25.1108L98.6349 25.5126L101.447 27.7223L103.054 29.5303L104.661 30.9365L106.469 32.5436V32.9454L107.273 33.3471L110.688 36.7622L112.094 38.3693L116.514 42.7887L118.723 45.6011L120.732 48.6144L123.746 53.6366L125.353 59.4622L125.554 60.8684V64.8861L124.75 69.1047L123.946 72.3189L123.344 74.1269L122.54 75.5331L122.339 74.9304L122.942 72.5198L123.946 69.7074L124.348 67.6985H124.75L124.951 65.6897V61.672L123.746 57.6543L122.741 55.0428L121.335 52.4312L120.331 52.0295L118.523 52.6321L116.715 53.0339H113.701L111.291 53.4357L110.085 54.8419L109.081 54.4401L108.88 54.0383L108.478 50.8242L107.876 47.8109L106.871 44.9985L105.264 42.1861L103.456 40.1772L101.447 38.3693L98.2332 36.3604L96.2243 35.356L93.6128 34.5525L94.4163 34.3516L97.4296 35.356L97.2287 31.5392L97.4296 29.7312V27.5215L96.827 26.7179V25.3117L97.4296 25.1108Z" fill="#713974"/>
<path d="M80.5551 33.5482H87.1843L91.6038 34.1509L95.6215 35.3562L98.8356 36.9633L101.045 38.3695L103.054 40.1774L104.059 41.1819L105.666 42.9898L107.474 46.8067L107.875 48.4137V50.0208L106.67 50.4226L106.068 50.2217L105.264 47.2084L103.657 43.9943L101.849 41.7845L100.644 40.7801L99.4383 40.3783L97.6303 39.173L94.6171 37.7668L90.3985 36.5615L87.3852 36.1597H80.3542L78.3453 36.3606L74.1267 37.7668L70.9126 39.3739L67.6984 41.3827L64.886 43.5925L62.4754 45.8022L59.663 48.6146L58.0559 50.6235L57.0515 51.8288L56.0471 50.8244L54.2391 47.8111L52.632 45.8022L52.2302 44.7978L50.0205 42.1863L47.2081 39.3739L44.3957 37.7668L42.5877 37.365H40.5789L37.7665 37.7668L34.5523 38.7712L31.7399 40.1774L28.9275 42.1863L27.3205 43.7934L27.1196 44.1951H26.7178L26.316 44.9987L24.5081 47.8111L23.5036 49.8199L22.2983 53.235L21.8965 56.0474V62.4757L22.4992 65.6899L23.7045 69.1049L24.5081 70.5111V71.7164L23.3027 71.3147L23.1019 70.712H22.7001L21.093 67.0961L20.2895 64.4846L19.8877 62.4757V55.6456L20.4904 52.6323L21.6957 49.0164L23.7045 45.1996L25.7134 42.5881L28.124 40.1774L31.539 37.9677L34.9541 36.5615L38.7709 35.5571L40.5789 35.3562H43.3913L46.0028 36.1597L49.0161 38.1686L49.8196 38.7712V39.173L50.6232 39.5748L51.4267 40.5792L52.4311 41.3827L53.8373 42.9898L54.8417 43.9943L56.2479 45.8022V46.204H56.6497V47.0075L57.6541 46.8067L59.0603 45.1996L61.2701 42.9898H61.6718V42.5881L62.6763 41.7845H63.078V41.3827L66.694 38.7712L68.9037 37.365L73.1223 35.1553L75.9347 34.1509L80.5551 33.5482Z" fill="#070305"/>
<path d="M80.9572 33.1464H84.9749L90.8006 33.5481L92.8094 34.1508L96.6262 35.3561L99.6395 36.9632L101.849 38.5703L103.858 40.3782L105.666 42.3871L107.273 45.4004L108.278 48.4136L108.88 51.8287L109.081 54.0384L109.684 54.6411L110.086 54.842L110.487 54.0384L111.291 53.2349L113.902 52.8331H116.715L120.13 52.0296L120.732 51.8287L121.737 52.6322L123.344 56.0473L124.549 59.4623L125.152 61.6721V65.6898L124.75 67.6986H124.549L124.348 62.6765L122.942 61.0694L121.737 60.6677L119.527 60.4668L119.326 60.6677H116.313V61.0694L115.309 61.6721H113.902L111.693 62.2747L109.282 63.2792H107.876L106.671 63.8818L105.465 65.288L103.456 68.9039L102.05 71.1137L100.041 73.7252L98.0324 75.9349L96.6262 77.542L93.613 80.5553L92.0059 81.7606L92.4076 80.9571L93.4121 79.9526L93.2112 78.5464L92.8094 78.1447L93.4121 76.9394L94.2156 76.1358V75.9349L92.0059 75.5332L84.5731 74.7296L76.5377 73.5243V73.9261L75.9351 74.127L76.1359 73.3234L71.7165 72.9217L70.1094 72.7208V72.5199H75.1315L78.1448 72.7208L78.9483 73.1225L83.9705 73.7252L84.5731 73.9261L88.1891 74.127V73.9261L90.3988 74.127L93.8138 74.7296H95.4209L97.6307 72.1181L100.443 68.1004L102.452 64.4845L103.456 62.4756L104.662 59.2615L105.264 56.4491L105.465 54.4402V50.8243L104.662 47.2083L103.255 44.3959L101.849 42.588L100.041 40.78L100.644 40.5791L102.653 42.3871L104.059 44.3959L105.465 47.2083L105.867 48.4136L106.269 50.2216L107.675 50.0207V48.4136L106.871 45.8021L105.264 42.7889L103.456 40.5791L101.849 39.1729L99.8404 37.7667L98.2333 36.7623L95.0192 35.3561L91.6041 34.3517L87.1846 33.749H80.5554L77.743 34.1508H76.7386L77.5421 33.749L80.9572 33.1464Z" fill="#5C2E5A"/>
<path d="M51.4265 108.679H52.431L52.6318 120.933L53.2345 125.554L54.4398 130.777L55.846 134.795V135.598H43.3911L43.592 133.388L44.3955 128.567L46.0026 122.34L48.0115 116.313L50.2212 110.688L51.4265 108.679Z" fill="#F8C58F"/>
<path d="M76.5374 73.5243L79.1489 73.7252L89.5949 75.3323L93.8135 76.1358L92.6082 77.542L89.9967 79.9526L85.979 82.9659L83.7692 84.7739L80.3542 86.7827L75.1312 89.3942L74.3276 89.5951V85.3765L74.7294 80.5553L75.5329 76.5376L76.5374 73.5243Z" fill="#EFE4F1"/>
<path d="M40.9804 37.7668H42.7884L45.3999 38.5704L48.614 40.981L50.8238 43.1908L52.4309 45.1996L54.8415 48.4138L54.4397 49.4182H53.6362L51.6273 47.2085L50.2211 45.6014L47.8105 43.1908L46.0025 41.9854L44.7972 41.3828L41.583 40.7801H38.7707L35.1547 41.5837L32.3423 42.789L29.9317 44.5969L28.1237 46.4049L26.5166 49.0164L24.7087 53.235L24.106 56.2483V57.8554L24.9096 61.4713L25.5122 62.6766L25.7131 63.6811L26.9184 64.6855L27.5211 65.2881L28.3246 65.8908V66.2926L29.1282 66.6943L29.5299 67.4979L29.7308 68.7032L41.1813 68.9041L45.199 69.105L49.8193 69.5067V69.7076H24.7087L23.9051 68.5023L22.4989 64.0828L22.0972 61.4713V57.0518L22.6998 53.235L24.106 49.4182L25.7131 46.6058L27.1193 44.7978L30.1326 41.7846L33.3467 39.7757L36.5609 38.5704L39.1724 37.9677L40.9804 37.7668Z" fill="#D5A072"/>
<path d="M57.0512 114.706H59.8636L63.6804 115.308L66.2919 116.313L67.2963 117.116L67.4972 118.121L67.2963 118.723L67.6981 118.924L67.4972 122.339L66.8945 123.946L62.4751 126.156H62.0733V126.558L59.2609 127.562H58.0556L57.6538 127.16L56.0467 126.96H55.4441L54.6405 123.946L54.2388 121.134V115.308L57.0512 114.706Z" fill="#5B2D59"/>
<path d="M88.7915 16.272L91.2021 17.0755L93.6127 19.687L94.2154 20.2897V20.6915H94.6171L96.0233 22.2985L96.2242 22.9012L97.0278 23.303V23.7047L97.8313 24.1065L100.443 26.5171L101.849 27.7224L103.255 29.3295L103.456 29.7313L102.653 29.3295L101.045 27.5216L98.434 25.5127L96.8269 25.3118L97.0278 26.718L97.6304 27.5216V30.5348L97.4295 32.5437L97.6304 35.557L94.4163 34.5525L91.8047 34.1508L90.8003 33.749L84.9746 33.3472L83.9702 33.1463V32.9455H88.9923L87.787 31.5393L89.1932 30.5348L89.3941 29.5304L89.595 28.3251L88.9923 25.3118L88.1888 23.303L86.9835 20.0888V18.6826L87.9879 17.2764L88.5906 16.8746L88.7915 16.272Z" fill="#94618D"/>
<path d="M70.5108 77.3411H71.7161L72.7205 78.1446L73.5241 80.1535L73.3232 83.3676L72.9214 90.1977L67.4975 92.0057L64.886 92.6084L61.2701 92.4075L60.2656 91.6039L60.4665 90.3986L61.0692 88.7915L61.8727 87.7871L63.8816 83.9703L65.4886 81.5597L67.2966 79.5508L69.5064 78.1446L69.9081 77.5419L70.5108 77.3411Z" fill="#F6F0FB"/>
<path d="M20.0886 51.6278L20.2895 52.2305L19.6869 54.6411L19.486 55.8464V62.0738L20.0886 65.288L21.0931 68.5022L22.901 72.5199L24.9099 75.734L26.7179 77.9438L27.1196 78.1447V78.5464H28.5258L30.1329 79.35L30.3338 78.7473L32.5435 81.3588L32.7444 82.5641L31.3382 82.3633L31.74 83.5686L33.3471 85.3765L35.5568 87.1845L37.7666 88.7916L38.771 89.3942V89.796L39.7754 89.9969L41.5834 91.2022L44.3958 92.6084L43.7931 92.8093L39.1728 90.3987L34.9542 87.5863L33.9497 87.9881L31.3382 88.3898L29.7311 87.1845L28.7267 86.381L27.9232 86.1801L25.7134 83.9703L22.7002 79.9526L20.8922 77.1402L18.6824 72.9217L17.8789 70.7119V69.5066L18.4816 70.1093L18.0798 64.6854L18.2807 61.0694L18.4816 60.4668L18.8833 56.2482L19.486 53.2349L20.0886 51.6278Z" fill="#6B3766"/>
<path d="M37.1638 48.8154L39.5744 49.0163L41.3824 49.8199L43.1904 51.2261L44.5966 53.4358L44.9983 54.6411V57.6544L44.1948 59.2615L42.5877 60.6677L41.1815 61.2703H38.3691L36.3603 60.4668L34.5523 59.0606L33.347 57.4535L32.5435 54.4402L32.7443 52.4314L33.7488 50.4225L35.5567 49.2172L37.1638 48.8154Z" fill="#070305"/>
<path d="M78.3449 51.6278H80.5547L82.5635 52.4313L83.9697 53.8375L84.5724 55.4446V58.257L83.7688 60.2659L82.3626 62.0738L80.5547 63.2792L79.3493 63.8818H75.7334L74.1263 63.0783L73.1219 61.873L72.5192 60.8685L72.3184 60.065V57.6544L72.7201 56.4491L73.9254 54.0384L75.7334 52.6322L77.5414 51.8287L78.3449 51.6278Z" fill="#090407"/>
<path d="M54.8419 137.004H57.0517L61.672 137.406L64.8862 137.807L65.4889 138.008L65.288 140.419L64.0827 148.253L63.8818 148.856H63.0782V148.454H60.8685L57.6543 148.253L55.6455 147.852L53.2349 147.651L53.4357 145.843L54.2393 140.821L54.4402 138.812L54.8419 137.004Z" fill="#FBF9FB"/>
<path d="M30.5346 70.7119H37.9674L38.1683 71.5155V77.9438L38.7709 82.5641L39.5745 86.5819L39.1727 86.7827L37.9674 85.9792L35.7576 84.1712L34.7532 82.9659L33.1461 81.5597L30.3337 78.5464L27.3205 74.5287L25.7134 71.7163L25.9143 70.9128L30.5346 70.7119Z" fill="#FCFBFD"/>
<path d="M97.4296 25.1108L98.6349 25.5126L101.447 27.7223L103.054 29.5303L104.661 30.9365L106.469 32.5436V32.9454L107.273 33.3471L110.688 36.7622V37.164H110.286V36.7622L108.88 36.5613L108.679 37.164L109.483 37.5657L109.885 37.9675V39.1728L108.679 39.5746L108.478 40.1772H107.474H106.871L105.666 39.7755L105.465 40.1772L103.456 39.7755L102.05 38.9719L100.242 37.5657L97.4296 35.9586L95.4208 35.1551L93.6128 34.5525L94.4163 34.3516L97.4296 35.356L97.2287 31.5392L97.4296 29.7312V27.5215L96.827 26.7179V25.3117L97.4296 25.1108Z" fill="#7B4281"/>
<path d="M44.7975 116.112L44.9984 116.514L43.7931 119.728L42.3869 124.75L41.1816 130.174L40.378 133.991L39.5745 135.196L38.5701 136.401L37.3648 137.004H35.5568L34.1506 136.2L32.3426 134.393L30.9364 132.183L30.5347 131.379L30.7356 130.777L31.1373 131.58L32.1418 131.781L32.3426 130.777V130.174L33.3471 128.969L35.3559 125.955L36.3603 124.147L38.5701 123.946L39.5745 123.143L42.186 119.728L44.7975 116.112Z" fill="#D5A072"/>
<path d="M67.0961 138.812L68.9041 139.013L76.7386 140.419L78.7475 141.022L78.9484 141.625L77.9439 142.629L76.7386 144.236L75.9351 145.843L75.1316 148.455L74.9307 150.263L74.1271 150.463L67.0961 149.459L65.8908 149.057L65.6899 148.856L65.8908 146.044L67.0961 138.812Z" fill="#3E1F38"/>
<path d="M50.824 136.803L53.0337 137.004V139.214L52.0293 145.642L51.6275 147.249L51.4266 147.45L43.793 147.048L43.1903 146.847V148.254H42.9895L42.7886 137.607L43.5921 137.205L44.1948 137.004L50.824 136.803Z" fill="#3F1F38"/>
<path d="M116.112 43.3916L116.915 43.7934L117.317 44.396L118.321 44.9987L119.928 47.4093L121.335 49.619L123.745 53.6368L125.352 59.4624L125.553 60.8686V64.8863L124.75 69.1049L123.946 72.3191L123.343 74.1271L122.54 75.5333L122.339 74.9306L122.942 72.52L123.946 69.7076L124.348 67.6987H124.75L124.951 65.6899V61.6722L123.745 57.6545L122.741 55.043L121.335 52.4314L120.33 52.0297L118.522 52.6323L116.714 53.0341H113.701L111.29 53.4359L110.085 54.8421L109.081 54.4403L108.88 54.0385L108.478 50.8244L108.076 48.012L109.281 48.2128V47.8111L110.085 47.6102L113.5 48.6146L117.719 48.2128L116.915 46.0031L116.112 43.9943V43.3916Z" fill="#6C3867"/>
<path d="M93.4116 198.073L94.2151 198.274L96.0231 199.68L98.0319 201.488L100.041 203.698L99.8399 204.903L98.8355 205.506L98.0319 206.309L96.6257 206.912L93.8133 207.515H90.5992L88.3894 206.912L87.385 205.908L87.1841 205.104H86.7823V204.501H86.3806L86.1797 203.698L86.5815 202.492H86.9832V202.091H87.7868V201.689L89.193 200.885L91.6036 199.68L93.2107 198.676L93.4116 198.073Z" fill="#F9C690"/>
<path d="M41.5836 29.3295H42.7889L43.1907 29.7312L43.3916 31.3383L43.1907 32.3427H42.7889L42.588 33.1463L41.5836 33.7489L41.3827 34.5525L42.588 34.7534V34.9543L38.3694 35.1551L34.5526 36.1596L31.3385 37.7667L28.5261 39.5746L27.9234 39.7755V40.1773L26.3163 41.5835L24.1066 43.9941L22.0977 47.2083L20.8924 49.8198L19.4862 53.8375L18.8836 57.8552L18.6827 60.4667L18.4818 61.672L18.2809 65.6897L18.6827 70.7118L17.6783 69.9083L17.0756 67.4977L16.6738 63.6809V59.4623L17.2765 55.4446L18.6827 51.226L20.8924 47.0074L22.9013 44.195L25.5128 41.1817L27.1199 39.5746L28.7269 38.1684L31.3385 35.9587L34.7535 33.3472L35.5571 32.9454L35.1553 33.7489L36.9632 32.5436L38.7712 31.1374L39.7756 30.5348H40.1774V30.133L41.1818 29.9321V29.5304L41.5836 29.3295Z" fill="#AA78A2"/>
<path d="M104.662 59.2615L105.063 59.6632V60.2659L106.068 59.8641L106.871 60.065L106.671 61.4712L106.068 63.4801L104.863 65.4889L103.657 67.6987L101.849 70.7119L99.0369 74.3279L97.2289 76.5376L96.6262 77.542L93.613 80.5553L92.0059 81.7606L92.4076 80.9571L93.4121 79.9527L93.2112 78.5465L92.8094 78.1447L93.4121 76.9394L94.2156 76.1358V75.935L92.0059 75.5332L84.5731 74.7296L76.5377 73.5243V73.9261L75.9351 74.127L76.1359 73.3234L71.7165 72.9217L70.1094 72.7208V72.5199H75.1315L78.1448 72.7208L78.9483 73.1226L83.9705 73.7252L84.5731 73.9261L88.1891 74.127V73.9261L90.3988 74.127L93.8138 74.7296H95.4209L97.6307 72.1181L100.443 68.1004L102.452 64.4845L103.456 62.4756L104.662 59.2615Z" fill="#6E3A67"/>
<path d="M83.7697 103.255L86.9838 104.26L89.7962 106.068L90.3989 106.671L90.198 107.474L89.7962 108.278H89.1936L88.9927 108.679L86.582 109.684L84.5732 110.487L82.3635 111.492L80.7564 111.693L76.5378 112.697L75.9351 112.898V113.3L74.7298 114.103L73.9263 114.907L74.328 113.902L75.9351 111.693L76.7387 110.688L77.1404 109.684L78.5466 108.479L80.3546 106.269L82.9661 103.657L83.7697 103.255Z" fill="#7F585F"/>
<path d="M69.3055 9.64282H69.7072L69.9081 10.2455L69.7072 10.8481H69.3055V11.2499H68.9037L68.5019 12.0534L67.4975 12.857L68.5019 13.0579V13.4596L69.3055 13.6605L68.7028 13.8614L69.3055 14.4641L68.7028 14.665L70.109 15.2676L70.3099 16.272L70.7117 16.4729L71.3143 17.4774L72.9214 19.2853L73.725 19.888L74.1267 21.2942L74.7294 21.4951L75.332 24.9101L75.5329 26.7181L75.7338 30.1331L75.332 32.142L76.3365 33.5482L76.1356 33.9499L77.14 33.7491L76.7382 34.1508L74.7294 34.7535L73.725 34.5526L72.3188 33.7491L72.5196 32.7446L73.1223 31.5393L73.5241 28.526L73.9258 26.3163L73.1223 21.4951L72.1179 21.0933L70.5108 18.8835L69.9081 18.08L68.9037 15.8703L66.4931 15.2676L64.4842 15.4685L62.2745 16.0712L61.2701 17.2765L60.6674 17.6782L58.2568 18.08L57.2524 18.6827L56.8506 18.4818L63.078 14.2632L67.0957 11.4508L69.1046 9.84371L69.3055 9.64282Z" fill="#AA78A3"/>
<path d="M24.5078 69.5067H46.2034L54.4397 69.9085L67.899 71.1138L79.5504 72.52L87.9876 73.7253L88.3894 74.328L84.5725 74.1271L83.9699 73.9262L78.9477 73.3235L77.7424 72.9218L75.1309 72.7209L69.707 72.52L62.2743 71.7165L56.6495 71.3147V71.9173L56.2477 72.1182L55.645 76.3368H55.4442V71.3147L49.4176 70.9129L48.8149 70.712L43.9937 70.5111H39.3733L38.5698 70.9129L38.3689 70.5111H30.3335L25.3114 70.712L25.1105 71.5156L24.9096 70.1094L24.5078 69.9085V69.5067Z" fill="#4B293F"/>
<path d="M85.9786 203.698L86.3804 204.502H86.7822V205.104H87.1839L87.7866 206.31L89.5946 207.113L90.599 207.314H93.8132L97.0273 206.511L98.2326 205.908L99.2371 204.903H99.8397V203.899L100.844 204.903L101.849 207.113L102.049 208.519L101.648 209.524L101.447 209.725L91.6034 209.926H87.9875L85.9786 209.725L85.5769 209.323L85.376 208.519V205.506L85.7777 203.899L85.9786 203.698Z" fill="#D6A172"/>
<path d="M97.2284 21.6958L98.032 22.0976L101.447 25.5126L103.054 26.9188L104.862 28.9277L108.88 32.9454L110.487 34.3516L113.5 37.5657L114.906 38.9719L116.313 40.579L118.321 42.7888L121.335 46.8065L123.544 50.2215L125.553 54.4401L126.558 57.8552L126.959 60.4667V63.0782L126.156 67.0959L125.352 69.7074H124.951L125.553 65.6897L125.754 64.0826V60.4667L124.951 57.2525L124.549 56.2481L123.745 52.6321L123.143 52.4313L122.138 50.6233L121.536 49.2171L120.933 48.2127L120.531 48.0118L120.129 47.0074L119.125 45.6012L118.723 45.4003L118.121 44.195L117.518 43.7932L116.915 42.7888L114.906 40.579V40.1773L114.103 39.7755L111.692 36.9631L110.286 35.356L108.679 33.9498L106.67 31.941L106.268 31.7401V31.3383L105.264 30.9365L104.46 29.9321L102.853 28.5259V27.9232L102.05 27.5215L101.246 26.517L100.242 25.5126L100.041 24.91L99.2373 24.5082L98.2329 23.7047L98.032 22.9011L97.0275 22.4993L96.8267 21.8967L97.2284 21.6958Z" fill="#B687B9"/>
<path d="M90.3982 106.871L91.6035 107.876L92.4071 108.88L92.2062 109.684L91.8044 110.286L88.5902 111.893L84.5725 113.3L82.7646 113.701L79.3495 114.706L75.5327 115.71L74.5283 116.112H73.5238L73.1221 116.313L73.5238 115.509L74.93 113.701L75.9345 113.3V112.898L76.5371 112.496L80.7557 111.492L82.9655 111.09L85.3761 109.884L87.3849 109.081L89.1929 108.277H89.7956L90.1973 107.273L90.3982 106.871Z" fill="#D5A072"/>
<path d="M36.9628 51.226H39.1725L40.9805 52.4313L41.9849 53.6366L42.3867 54.641V57.0516L41.5831 58.2569L40.3778 58.8596L38.1681 58.6587L36.9628 57.8552L35.5566 56.2481L35.1548 55.2437V53.0339L35.7574 51.8286L36.9628 51.226Z" fill="#402039"/>
<path d="M20.0886 51.6278L20.2895 52.2305L19.6869 54.6411L19.486 55.8464V62.0738L19.8878 65.6898L20.2895 67.8995L20.4904 68.7031H20.8922L21.4948 70.1093L22.0975 72.5199L22.4993 73.9261V75.9349L22.7002 76.3367L22.4993 77.3411L21.294 77.1402L20.6913 75.9349V75.3323H20.2895L19.6869 74.127H19.2851L18.0798 71.3146L17.8789 69.5066L18.4816 70.1093L18.0798 64.6854L18.2807 61.0694L18.4816 60.4668L18.8833 56.2482L19.486 53.2349L20.0886 51.6278Z" fill="#703872"/>
<path d="M78.3452 54.2394H80.3541L81.5594 55.2438V55.6456H81.9612V57.6544L80.7559 59.6633L78.747 61.2704L78.3452 61.4713H76.939L75.3319 60.6677L74.9302 59.6633V57.8553L75.5328 56.65L76.7381 55.0429L78.3452 54.2394Z" fill="#42223B"/>
<path d="M91.8047 17.879L92.6082 18.2808L93.8135 19.2852L95.2197 20.8923L96.0233 21.2941L97.0277 22.2985L98.0321 22.9012L98.233 23.7047L99.0366 24.1065L100.041 24.91L100.845 26.1153L101.849 26.9189L102.853 27.9233L103.456 28.9277L104.661 29.9321L105.666 30.9366L106.268 31.3383V31.7401L107.072 32.1419L109.884 34.9543L111.291 36.1596L113.099 38.3693L114.505 39.9764L115.509 40.9808L117.518 43.1906V43.7932L118.322 44.195L118.723 44.7977V45.4003L119.326 45.6012L120.531 47.2083V48.0118L121.134 48.2127L122.138 49.8198L122.741 51.226L123.344 52.4313L123.745 52.6322L124.549 55.0428L124.951 56.449L125.754 60.065L125.955 61.0694V64.0827L125.553 67.4977L125.152 69.7075L124.549 71.7163L123.946 72.9216L123.745 72.319L124.549 69.1048L125.353 64.8862V60.8685L124.75 57.8552L123.545 53.6366L121.536 50.2216L119.728 47.4092L117.317 43.9941L114.505 40.9808L110.688 37.164L109.282 35.5569L106.871 33.1463L105.264 31.7401L103.456 29.9321L102.05 28.3251L100.845 26.9189L98.6348 25.1109L97.0277 23.7047L95.6215 22.0976L94.6171 21.0932V20.6914H94.2153V20.2897L93.6127 20.0888L92.2065 18.4817L91.8047 17.879Z" fill="#A471A1"/>
<path d="M21.4951 46.2039H21.8968L21.696 48.0118L20.6915 50.4225L19.4862 53.8375L18.8836 57.8552L18.6827 60.4667L18.4818 61.672L18.2809 65.6897L18.6827 70.7119L17.6783 69.9083L17.0756 67.4977L16.6738 63.6809V59.4623L17.2765 55.4446L18.6827 51.226L20.8924 47.0074L21.4951 46.2039Z" fill="#AB79A4"/>
<path d="M72.5195 117.518L72.9213 117.719L71.9169 119.728L70.5107 122.741L68.9036 125.955L67.8992 128.165L66.6939 130.777L65.4885 133.991L65.2877 134.794L65.6894 135.397L70.9125 136.402L73.1222 137.205L73.3231 137.607H71.5151L63.4797 136.402L63.2788 136L65.8903 129.571L66.8947 127.161L68.5018 123.947L70.7116 119.728L71.716 118.121L72.5195 117.518Z" fill="#F8D0A7"/>
<path d="M78.7469 0.00012207L79.3496 0.201007L80.9566 3.41517L82.5637 5.8258L84.5726 8.43731L86.9832 11.2497L88.3894 12.6559L89.7956 14.263L92.608 17.0754L94.2151 18.4816L95.8222 20.0887L97.4292 21.4949L97.2284 21.8966H96.8266L96.6257 22.2984L96.023 21.6957V21.294L95.2195 21.0931L93.8133 19.6869V19.2851L93.0098 18.8833L89.9965 16.0709L89.3938 15.6692V15.2674H88.9921V14.8656H88.5903L85.7779 11.6515L84.7735 10.647L83.9699 9.24085L82.9655 7.63377L81.9611 6.62934L81.7602 6.02668L81.3584 5.8258L80.9566 4.82137H80.5549L80.354 4.01783H79.9522V3.61606H79.5504L79.1487 2.61163L78.7469 2.20986L77.9434 2.00898L78.546 0.201007L78.7469 0.00012207Z" fill="#AC7AA3"/>
<path d="M28.5256 80.9568L29.53 81.9612L31.338 84.171L33.5477 85.778L35.5566 87.7869L34.5521 87.586L33.9495 87.9878L31.338 88.3895L29.7309 87.1842L28.7265 86.3807L27.9229 86.1798L25.9141 84.171V83.7692L26.5167 83.5683L27.1194 83.7692V82.363L27.9229 81.9612L27.722 81.5594L28.3247 81.3586L28.5256 80.9568Z" fill="#5B2D59"/>
<path d="M80.9569 33.1464H84.9746L90.8003 33.5481L92.8091 34.1508L96.6259 35.3561L99.6392 36.9632L101.849 38.5703L103.858 40.3782L105.666 42.3871L107.273 45.4004L108.277 48.4136L108.478 49.4181V53.034L107.072 56.0473L106.469 57.2526H105.666V49.8198H106.068L106.268 50.2216L107.675 50.0207V48.4136L106.871 45.8021L105.264 42.7889L103.456 40.5791L101.849 39.1729L99.8401 37.7667L98.233 36.7623L95.0188 35.3561L91.6038 34.3517L87.1843 33.749H80.5551L77.7427 34.1508H76.7383L77.5418 33.749L80.9569 33.1464Z" fill="#3E1F38"/>
<path d="M21.2939 115.309L22.2983 116.313L24.508 118.724L26.316 121.335L29.1284 125.554L29.731 126.558L29.3293 127.563L28.9275 127.964L29.1284 128.366L27.7222 128.567L25.3116 123.947L23.3027 120.532L21.6956 117.317L20.8921 116.112V115.509L21.2939 115.309Z" fill="#7C5161"/>
<path d="M40.579 37.1638H42.5879L44.3958 37.5656L47.2082 39.1727L51.0251 42.9895L52.6321 44.9983L52.4313 45.4001L50.8242 43.5921L49.418 41.9851L47.61 40.378L44.9985 38.57L42.7888 37.9674H40.9808L37.9675 38.3691L33.7489 39.7753L31.3383 41.1815L29.5303 42.5877L26.7179 45.4001L25.1109 48.0116L23.7047 50.824L22.7002 54.2391L22.2985 57.0515V62.8771H21.8967L21.6958 62.4754V56.047L22.2985 52.632L23.9055 48.4134L25.7135 45.601L26.7179 44.1948H27.1197L27.5215 43.3913L29.3294 41.5833L33.1463 39.1727L36.1595 37.9674L38.7711 37.3647L40.579 37.1638Z" fill="#553247"/>
<path d="M83.7694 103.255L86.9836 104.26L87.7871 105.465L87.1845 106.269L85.9792 106.671L84.1712 107.474L80.7561 108.679H79.5508L78.3455 109.483L75.9349 112.496L75.1313 113.099L75.5331 112.094L76.7384 110.688L77.1402 109.684L78.5464 108.479L80.3544 106.269L82.9659 103.657L83.7694 103.255Z" fill="#6C3866"/>
<path d="M88.1887 120.733L89.9966 121.335L93.0099 122.942L95.6214 125.353L97.2285 126.759L101.246 130.375L102.652 131.982L105.264 134.594L106.067 135.799L105.264 135.397L103.657 134.192L102.251 132.585L100.443 130.576L97.4294 127.563L95.8223 126.156L93.0099 123.746L91.0011 122.541L88.7913 121.335L89.5949 122.741L90.1975 123.545V124.951L88.9922 128.165L86.7825 134.192L85.3763 137.808L84.7736 139.616L82.9657 140.018L82.1621 139.817L84.3718 139.214L86.3807 133.187L88.1887 127.964L88.5904 124.549L88.7913 124.348V123.143L88.1887 121.737V120.733Z" fill="#3E1F38"/>
<path d="M76.5374 73.5243L79.1489 73.7252L81.3586 74.1269V74.5287L78.5462 75.5331L77.14 76.9393L75.9347 81.3588L75.3321 84.3721L75.1312 87.1845L75.3321 87.988L76.7383 88.1889V88.5907L74.5285 89.5951H74.3276V85.3765L74.7294 80.5553L75.5329 76.5376L76.5374 73.5243Z" fill="#F5EFFA"/>
<path d="M33.146 123.143H33.3469L33.7487 124.951L33.9495 125.353L35.9584 124.348H36.3602L35.9584 125.152L34.7531 127.161L33.146 129.571H32.7442L32.3425 130.576L32.5434 130.977L32.1416 131.781L31.5389 131.982V131.58H31.1372L30.5345 130.777L30.3336 128.567V127.964H29.731L30.1327 126.759L31.9407 124.951L33.146 123.143Z" fill="#070305"/>
<path d="M64.8862 140.419H65.0871L64.8862 142.83L64.0826 148.254L63.8817 148.856H63.0782V148.455H60.8685L57.6543 148.254V148.053L60.0649 147.852L60.2658 146.647L61.672 143.834L63.2791 141.625L63.8817 141.022L64.6853 140.821L64.8862 140.419Z" fill="#EADDEB"/>
<path d="M57.8547 202.091L59.0601 202.492L59.4618 203.497L59.6627 203.698L59.4618 205.104L58.8592 205.707L57.6539 206.309L55.2432 206.51L53.4353 206.108L52.6317 205.707H51.2255L49.8193 206.711L50.2211 205.907L52.4308 204.3L55.2432 202.894L57.8547 202.091Z" fill="#F9C690"/>
<path d="M92.6079 109.683L93.4115 110.085L95.4203 112.697L97.63 115.308L99.8398 118.121L102.451 121.335L106.469 126.357L108.679 129.37L108.277 129.772L107.273 129.169L105.063 126.156L102.652 123.545L101.045 121.536L99.438 119.326V118.924H99.0362L97.2283 116.714L95.8221 115.107L94.215 113.099L93.2106 111.491V111.09H92.8088L92.6079 109.683Z" fill="#FDD7AD"/>
<path d="M51.8281 116.313H52.029L52.2299 117.318L52.4308 120.733L52.6317 120.933L53.2343 125.554L54.4396 130.777L55.6449 134.192V135.397L46.0024 135.196L46.4042 134.795L49.0157 134.393H54.4396L54.6405 133.79L53.4352 131.179L52.8325 128.969L52.2299 125.956L51.6272 121.737L51.4263 117.719L51.8281 116.313Z" fill="#F9D1A7"/>
<path d="M87.1846 74.9307L89.7961 75.1315L93.0102 75.5333L94.4164 75.9351L93.8138 76.9395L93.412 77.1404L93.0102 78.1448L93.6129 79.1493L93.412 80.1537L91.604 82.1625L89.997 83.5687L89.5952 82.9661H88.3899L87.7872 82.5643L88.189 81.7608L89.5952 79.9528L91.8049 78.1448L93.6129 76.3369L91.8049 75.9351L87.1846 75.1315V74.9307Z" fill="#966390"/>
<path d="M98.2327 137.205H99.2371L98.6345 138.41L96.4247 140.821L93.2106 143.834L91.6035 145.24L90.5991 145.642L89.3938 144.839L89.1929 144.236L90.8 143.031L93.6123 141.223L96.6256 138.611L97.4292 138.21V137.808H97.8309V137.406L98.2327 137.205Z" fill="#6F3D64"/>
<path d="M32.5434 81.3586L37.3647 86.1799L37.1638 86.5817L34.5523 84.9746L33.9496 85.5772L34.7531 85.979L36.762 87.787L38.3691 88.5905V88.9923L39.1726 89.1932L41.985 91.0011L45.1992 92.6082L48.2125 93.8135L52.0293 95.2197V95.4206L50.4222 95.2197L49.016 94.818L45.1992 93.4118V93.01L44.1948 92.6082L40.9806 91.0011L39.3735 89.9967L38.7708 89.7958V89.3941L37.7664 88.9923L35.5567 87.3852L32.9452 85.1755L31.3381 83.1666L31.1372 82.3631L32.1416 82.1622L32.5434 82.3631V81.3586Z" fill="#95628E"/>
<path d="M36.3603 124.147H36.7621L35.9586 126.96L34.9541 130.174L33.5479 134.192H33.1462L33.3471 134.995L32.5435 134.593L31.1373 132.585L30.5347 131.379L30.7356 130.777L31.1373 131.58L32.1418 131.781L32.3426 130.777V130.174L33.3471 128.969L35.3559 125.955L36.3603 124.147Z" fill="#7F585F"/>
<path d="M38.3688 34.9541H42.9892L44.7972 35.3559L47.2078 36.3603V36.7621L48.2122 36.963L49.2167 37.9674L50.8237 39.3736L53.0335 41.5833L54.0379 42.7886L53.837 43.1904L51.4264 40.7798L50.2211 39.3736L49.8193 39.1727V38.7709L49.0158 38.3692L46.0025 36.3603L43.391 35.5568H40.5786L37.7662 35.9585L33.7485 37.1638L30.5343 38.7709L27.9228 40.5789L25.5122 42.9895L23.9051 45.1993L23.1016 45.601L23.5033 44.5966L25.7131 41.9851L27.521 40.1771H27.9228V39.7753L30.9361 37.7665L33.9494 36.1594L37.3644 35.155L38.3688 34.9541Z" fill="#3F2039"/>
<path d="M50.0205 112.295H50.4223L50.0205 114.706L48.2125 118.924L46.8063 123.143L45.1993 128.969L44.3957 132.384H44.1948V129.571L46.0028 122.339L48.0116 116.313L49.4178 112.697L50.0205 112.295Z" fill="#F6CDA2"/>
<path d="M83.3673 143.834H84.9743L85.9788 144.638L86.1796 146.446L85.577 147.45L83.769 148.053L82.3628 147.852L81.3584 146.848V145.441L82.3628 144.236L83.3673 143.834Z" fill="#7F516B"/>
<path d="M40.1772 31.1373L41.3825 31.3382L41.5834 32.7444L40.7799 34.3515L42.5878 34.7533V34.9542L38.3692 35.155L34.5524 36.1595L32.3427 37.1639L31.9409 36.963L33.548 35.9586L36.3604 34.9542V34.1506H36.7622L37.1639 32.9453L39.1728 31.74L40.1772 31.1373Z" fill="#A570A9"/>
<path d="M84.3719 59.4622H84.5728V61.2701L83.5683 63.279L81.7604 64.8861L80.555 65.2878H77.5418L75.5329 64.0825L75.332 63.6808H79.3497L81.5595 62.4754L82.5639 61.6719L83.5683 60.2657L84.171 60.4666L84.3719 59.4622Z" fill="#D39F71"/>
<path d="M45.1993 33.1464H47.2081L48.4134 33.749L49.217 35.1552V37.1641L48.6143 37.365L47.2081 36.7623L47.0073 36.3605L44.1949 35.3561V34.9543L43.1904 34.7534V34.1508L45.1993 33.1464Z" fill="#ECDFEC"/>
<path d="M43.1904 147.852H46.0028L56.0471 148.655L65.4887 149.861L72.3188 150.865L75.533 151.669L76.5374 154.28L77.9436 156.49L79.3498 157.695L81.3586 158.7L83.1666 159.302V159.704H81.9613L79.9524 158.901L78.1445 157.494L76.9392 156.088L75.533 153.276L75.1312 151.87L67.4976 150.664L60.4666 149.66L53.2347 148.856L43.1904 148.254V147.852Z" fill="#502E43"/>
<path d="M82.3628 87.9883H82.9655V88.3901L77.1398 91.4033L71.9168 93.4122L70.3097 94.0148H68.7026L69.5062 93.4122L72.7203 92.006H73.1221V91.6042L76.7381 90.198L78.546 89.3945L81.1575 88.1892L82.3628 87.9883Z" fill="#B788B5"/>
<path d="M80.9569 33.1464H84.9746L90.8003 33.5481L92.8091 34.1508L96.6259 35.3561L99.6392 36.9632L101.849 38.5703L103.858 40.3782L105.666 42.3871L107.273 45.4004L107.876 47.0075L107.675 47.811L106.67 45.4004L105.264 42.7889L103.456 40.5791L101.849 39.1729L99.8401 37.7667L98.233 36.7623L95.0188 35.3561L91.6038 34.3517L87.1843 33.749H80.5551L77.7427 34.1508H76.7383L77.5418 33.749L80.9569 33.1464Z" fill="#3E1F38"/>
<path d="M19.084 53.8375H19.2849L19.084 56.2481L18.6823 60.4667L18.4814 61.6721L18.2805 65.6898L18.6823 70.7119L17.6779 69.9084L17.0752 67.4977V65.4889L17.2761 65.0871H17.6779L17.477 63.6809V62.2747L17.6779 60.4667L18.0796 57.6543L18.8832 54.4402L19.084 53.8375Z" fill="#95628E"/>
<path d="M29.5303 41.9852L29.9321 42.1861L26.7179 45.4003L25.1109 48.0118L23.7047 50.8242L22.7002 54.2392L22.2985 57.0516V62.8773H21.8967L21.6958 62.4755V56.0472L22.2985 52.6322L23.9055 48.4136L25.7135 45.6012L28.7268 42.7888L29.5303 41.9852Z" fill="#5C374B"/>
<path d="M53.837 102.854H54.0379L53.837 105.063L53.2344 107.474L52.8326 112.496L52.6317 120.933H52.4308L52.2299 108.88L51.4264 108.679L51.0246 109.483L50.8237 109.081L51.8282 106.269L52.6317 104.662L53.2344 103.255L53.837 102.854Z" fill="#3C1E36"/>
<path d="M88.1885 120.733L89.9964 121.335L93.0097 122.942L95.6212 125.353L97.2283 126.759L101.246 130.375L102.652 131.982L105.264 134.594L106.067 135.799L105.264 135.397L103.657 134.192L102.25 132.585L100.442 130.576L97.4292 127.563L95.8221 126.156L93.0097 123.746L91.0009 122.541L88.7911 121.335L88.5902 122.139L88.1885 121.737V120.733Z" fill="#563448"/>
<path d="M5.42406 96.2245H7.43292L8.03557 97.2289V98.6351L7.23203 99.6395L5.42406 99.8404L4.41964 99.0369L4.21875 97.6307L4.82141 96.6263L5.42406 96.2245Z" fill="#D6A172"/>
<path d="M70.1094 72.5198H75.1315L78.1448 72.7207L78.9483 73.1224L83.9705 73.7251L84.9749 74.1269L88.3899 74.5286L88.5908 74.9304H85.9793L76.5377 73.5242V73.926L75.9351 74.1269L76.1359 73.3233L71.7165 72.9215L70.1094 72.7207V72.5198Z" fill="#966A6D"/>
<path d="M18.8833 56.2479H19.0842V64.2833L19.6869 66.694L19.486 67.8993L18.8833 68.7028L19.0842 70.5108L19.2851 72.1179H18.8833L18.6824 72.9214L17.8789 70.7117V69.5064L18.4816 70.109L18.0798 64.6851L18.2807 61.0692L18.4816 60.4665L18.8833 56.2479Z" fill="#7B4281"/>
<path d="M38.7707 40.5792H41.5831L44.7973 41.1819L47.007 42.3872L49.4177 44.5969L50.8239 46.0031L50.623 46.4049L49.6186 45.6014V45.1996H49.2168L48.4132 44.1952L45.6008 42.1863L43.9938 41.5837L40.3778 41.1819L36.7619 41.5837L34.1504 42.3872L31.7398 43.5925L29.9318 44.9987L28.9274 46.204L28.3247 46.0031L30.3336 43.9943L33.146 42.1863L35.7575 41.1819L38.7707 40.5792Z" fill="#FAC790"/>
<path d="M56.8506 165.931L57.6541 166.333L60.2656 168.141L62.2745 169.547V169.949H61.8727L61.6718 171.556V172.761L60.6674 171.757L59.2612 169.547L58.2568 168.342L57.4532 167.538L56.8506 165.931Z" fill="#4E2C42"/>
<path d="M6.42861 95.6218H9.44189V95.8227L8.03569 96.0236L8.83923 97.2289V98.836L7.8348 100.041L6.83038 100.644H5.42418L4.01798 99.8404L3.61621 99.0369V97.4298L4.21887 96.4254L6.42861 95.6218ZM5.42418 96.2245L4.41975 97.2289L4.21887 98.0325L4.62064 99.2378L5.42418 99.8404L7.23215 99.6395L8.03569 98.6351V97.2289L7.43303 96.2245H5.42418Z" fill="#7B4F64"/>
<path d="M121.334 49.8199L122.138 50.2217L123.343 52.4315L123.745 52.6323L124.549 55.043L124.95 56.4492L125.754 60.0651L125.955 61.0695V64.0828L125.553 67.4979L125.151 69.7076L124.549 71.7164L123.946 72.9218L123.745 72.3191L124.549 69.1049L125.352 64.8863V60.8686L124.75 57.8554L123.544 53.6368L121.535 50.2217L121.334 49.8199Z" fill="#966390"/>
<path d="M34.5522 59.0608L36.762 60.467L38.3691 61.0696H41.1815L42.7885 60.2661L43.1903 60.467L42.1859 61.2705L43.793 60.467L44.1947 60.6679L42.9894 62.0741L41.5832 62.6767L40.3779 62.8776L38.9717 62.4758L38.1682 62.0741V61.6723L37.1638 61.4714L35.9584 60.6679L34.5522 59.4626V59.0608Z" fill="#D5A071"/>
<path d="M46.003 121.335H46.4048L45.6013 124.549L44.3959 129.572L43.3915 135.598L45.1995 135.397H54.0384V135.598L42.9897 136L43.1906 132.384L43.9942 128.969L44.9986 124.549L46.003 121.335Z" fill="#4D2B41"/>
<path d="M58.0557 168.141L59.0601 169.146L60.2654 170.753L61.4707 172.561L61.8725 172.761L62.0734 173.565V177.583H61.6716V176.578H61.2698L60.6672 175.373L59.8636 172.159L59.0601 169.949L58.0557 168.543V168.141Z" fill="#835B62"/>
<path d="M35.9586 124.348H36.3603L35.9586 125.152L34.7533 127.161L33.1462 129.571H32.7444L32.3426 130.576L32.5435 130.977L32.1418 131.781L31.5391 131.982V131.58H31.1373L30.5347 130.776V129.973L31.74 129.169L33.5479 127.361L35.155 125.152V124.75L35.9586 124.348Z" fill="#3E1F38"/>
<path d="M83.7694 103.255L85.5774 103.858V104.059L83.7694 104.26L81.7606 106.068L80.3544 107.675L78.3455 109.483L75.9349 112.496L75.1313 113.099L75.5331 112.094L76.7384 110.688L77.1402 109.684L78.5464 108.479L80.3544 106.269L82.9659 103.657L83.7694 103.255Z" fill="#3E1F38"/>
<path d="M124.549 55.0427L124.951 55.6454L126.156 59.6631L126.759 60.8684L126.959 63.0781L126.156 67.0958L125.352 69.7074H124.951L125.553 65.6896L125.754 64.0826V60.4666L124.951 57.2525L124.549 56.248V55.0427Z" fill="#AD7BA2"/>
<path d="M91.8047 17.879L92.6082 18.2808L93.8135 19.2852L95.2197 20.8923L96.0233 21.2941L97.0277 22.2985L98.0321 22.9012L98.233 23.7047L99.0366 24.1065L100.041 24.91L100.845 26.1153L101.849 26.9189L102.05 27.5215L101.246 27.3206L98.233 24.7091L97.0277 23.7047L95.6215 22.0976L94.6171 21.0932V20.6914H94.2153V20.2897L93.6127 20.0888L92.2065 18.4817L91.8047 17.879Z" fill="#A875A5"/>
<path d="M38.3688 34.9541H40.5786V35.155L37.5653 35.5568L33.7485 36.7621L32.1414 37.5656L31.5387 38.1683L28.7264 39.9762L26.7175 41.7842L24.9095 43.7931L23.9051 45.1993L23.1016 45.601L23.5033 44.5966L25.7131 41.9851L27.521 40.1771H27.9228V39.7753L30.9361 37.7665L33.9494 36.1594L37.3644 35.155L38.3688 34.9541Z" fill="#582D54"/>
<path d="M81.9612 35.5568H86.9834L91.0011 36.1594L95.0188 37.3647L98.2329 38.9718L100.041 40.1771V40.5789L99.2374 40.1771L97.2285 38.9718L94.617 37.7665L90.3984 36.5612L87.3851 36.1594H78.7471V35.9585L81.9612 35.5568Z" fill="#573448"/>
<path d="M19.6865 64.6854L20.0883 65.2881L21.0927 68.5022L22.9007 72.52L24.9095 75.7341L26.7175 77.9439L27.1193 78.1447V78.5465H28.5255L30.1326 79.3501L30.3334 78.7474L30.7352 79.9527L29.7308 79.7518L28.3246 79.3501L27.5211 79.5509L26.1149 78.1447V77.743H25.7131L24.3069 75.5332L22.9007 73.5244L21.4945 70.712L20.8918 69.3058V68.7031H20.4901L20.0883 67.8996L19.6865 65.6899V64.6854Z" fill="#5C2E5A"/>
<path d="M51.4265 108.679H52.4309V120.733H52.23L52.0292 112.697L51.8283 112.295H51.2256L50.8238 111.693V111.09L50.2212 111.291L50.4221 110.287L51.4265 108.679Z" fill="#D6A172"/>
<path d="M94.2154 76.1359L95.2198 76.3367L95.8225 76.9394L95.6216 77.9438L95.0189 78.5465L94.6172 79.5509L92.2065 81.7607V81.158L93.4119 79.9527L93.211 78.5465L92.8092 78.1447L93.4119 76.9394L94.2154 76.1359Z" fill="#79417E"/>
<path d="M24.5078 69.5067L30.1326 69.7076V69.9085L43.7928 70.1094V70.3103L39.3733 70.5111L38.5698 70.9129L38.3689 70.5111H30.3335L25.3114 70.712L25.1105 71.5156L24.9096 70.1094L24.5078 69.9085V69.5067Z" fill="#7E565F"/>
<path d="M44.3958 117.518L44.5967 118.322L43.1905 122.942L41.7843 128.969L40.9807 133.589L40.3781 134.794L40.1772 135.397L39.1728 136L38.771 135.799L39.9763 134.393L40.579 132.384L41.7843 126.357L43.3914 120.331L44.3958 117.518Z" fill="#543245"/>
<path d="M88.1888 73.9261L90.3985 74.127L95.2198 74.9306L94.2153 75.935L92.0056 75.5332L88.5905 75.1315L88.3897 74.7297L84.9746 74.3279V74.127H88.1888V73.9261Z" fill="#805960"/>
<path d="M95.6214 140.218L95.8223 140.62L94.4161 142.227L92.2063 144.236L91.001 145.039L90.1975 144.839L89.9966 144.035L92.0054 142.629L93.8134 141.423L95.6214 140.218Z" fill="#A5739E"/>
<path d="M37.1638 48.8154H38.3691V49.0163L35.7576 49.619L34.5523 50.4225L33.5479 51.6278L33.1461 52.8331V54.842L33.9497 57.2526L35.3559 59.0606L37.1638 60.2659L38.7709 60.8686H41.7842L41.1815 61.2703H38.3691L36.3603 60.4668L34.5523 59.0606L33.347 57.4535L32.5435 54.4402L32.7443 52.4314L33.7488 50.4225L35.5567 49.2172L37.1638 48.8154Z" fill="#4F2D43"/>
<path d="M83.1662 144.638H84.9742L85.1751 144.838L84.9742 146.646L83.9698 147.249L82.5636 147.048L81.9609 146.646V145.642L83.1662 144.638Z" fill="#D6A172"/>
<path d="M37.5654 88.3896L38.369 88.5905V88.9923L39.1725 89.1932L41.9849 91.0012L45.1991 92.6082L48.2124 93.8136L52.0292 95.2197V95.4206L50.4221 95.2197L49.0159 94.818L45.1991 93.4118V93.01L44.1946 92.6082L40.9805 91.0012L39.3734 89.9967L38.7707 89.7958V89.3941L37.7663 88.9923L37.5654 88.3896Z" fill="#956192"/>
<path d="M76.3363 90.8005H77.1398V91.4032L71.9168 93.412L70.3097 94.0147H68.7026L69.5062 93.412L73.7248 91.6041L76.3363 90.8005Z" fill="#DDC9DB"/>
<path d="M30.1327 69.5067H46.2035V69.7076L37.9672 69.9085V70.1094H28.3247V69.9085H30.1327V69.5067Z" fill="#653F52"/>
<path d="M88.1887 127.964L88.3896 128.768L88.1887 130.375L86.7825 134.192L85.3763 137.808L84.7736 139.616L82.9657 140.017L82.1621 139.817L84.3718 139.214L86.3807 133.187L88.1887 127.964Z" fill="#502E43"/>
<path d="M21.4946 46.2039H21.8964L21.6955 48.0118H21.0929L20.4902 49.8198L19.4858 52.2304L18.6822 53.6366L18.4814 53.034L18.0796 53.2348L18.6822 51.226L20.892 47.0074L21.4946 46.2039Z" fill="#B687B9"/>
<path d="M78.1445 72.5198L80.9569 72.7207L87.9879 73.7251L88.3897 74.3277L84.5729 74.1269L83.9702 73.926L78.9481 73.3233L78.1445 72.9215V72.5198Z" fill="#47263D"/>
<path d="M69.7069 86.9838H71.1131L71.314 88.39L70.7113 89.3944L68.9034 89.7962H68.3007L67.8989 88.7917L68.5016 88.39H69.1042L69.3051 87.5864L69.7069 86.9838Z" fill="#EFE4F1"/>
<path d="M36.3604 61.0693L38.1683 61.672V62.0738L39.1727 62.4755L40.5789 62.6764L41.9851 62.2746H42.7887L42.5878 63.2791L41.7843 64.0826L41.3825 64.2835H39.9763L39.3736 63.8817V63.0782L37.1639 61.8729L36.3604 61.0693Z" fill="#FDD6AB"/>
<path d="M37.5654 70.7119H37.9672L38.1681 71.5155V77.9438L38.7707 82.5641L39.5743 86.5819L39.1725 86.7827L37.9672 85.9792H38.5699L38.9716 86.1801L37.9672 80.9571L37.5654 77.1402V70.7119Z" fill="#EFE4F1"/>
<path d="M100.041 40.5792L100.844 40.7801L102.652 42.3872L104.058 44.396L105.464 47.2084L105.866 48.4138V49.8199L105.264 49.6191L104.46 46.6058L103.255 44.396L101.848 42.5881L100.041 40.7801V40.5792Z" fill="#543146"/>
<path d="M25.9141 123.143L26.9185 123.545L28.3247 125.353L28.9273 126.558L29.3291 126.759L28.9273 127.562L28.5256 127.964H27.9229V126.759H27.5211V126.357H27.1194L25.9141 123.746V123.143Z" fill="#D6A172"/>
<path d="M78.3453 54.2394H80.3541L81.5594 55.2438L81.7603 55.6456V56.8509H81.5594L81.1577 55.6456L79.9524 55.0429H78.7471L78.1444 55.4447L77.5417 56.8509L76.5373 57.0518L76.3364 56.8509V55.4447L77.7426 54.4403L78.3453 54.2394Z" fill="#F2EBF1"/>
<path d="M73.7251 151.869H75.1313L75.734 152.472L76.5375 154.682L77.9437 156.891L79.3499 158.097L81.3587 159.101L83.1667 159.704V160.106H81.9614L79.9525 159.302L78.1446 157.896L76.9393 156.49L75.5331 153.677L75.1313 152.271L73.7251 152.07V151.869Z" fill="#533144"/>
<path d="M53.8374 142.428H54.0383L53.8374 144.638L53.2348 147.651H55.6454L57.6543 148.053L63.0782 148.454V148.655H59.864L56.6498 148.454L56.0472 148.254L53.2348 148.053L52.833 147.852V146.245L53.4357 143.432L53.8374 142.428Z" fill="#6A4458"/>
<path d="M27.5212 123.946H28.1239L29.731 126.558L29.3292 127.562L28.9274 127.964L29.1283 128.366L27.7221 128.567L26.3159 125.955V124.75L26.7177 124.951L27.1195 125.754V126.357H27.5212V126.759H27.923V127.964L28.9274 127.361L29.3292 126.759L28.5257 126.357L27.7221 124.75L27.5212 123.946Z" fill="#825470"/>
<path d="M52.6317 106.469H52.8326L52.6317 120.933H52.4308L52.2299 108.88L51.4264 108.679L51.0246 109.483L50.8237 109.081L51.2255 107.675L52.2299 107.273L52.6317 106.469Z" fill="#684352"/>
<path d="M33.5476 38.9722L34.7529 39.1731L34.3511 39.5748L31.9405 40.7801L30.1325 41.9854L29.1281 42.5881L26.9184 44.7978L26.5166 44.597L26.7175 44.1952H27.1193L27.521 43.3916L29.329 41.5837L33.1458 39.1731L33.5476 38.9722Z" fill="#42223A"/>
<path d="M114.907 41.1819L115.71 41.5837L117.518 43.1907V43.7934L118.322 44.1952L118.724 44.7978V45.4005L119.326 45.6014L120.532 47.2084V48.012L121.134 48.2129L122.139 49.82L121.938 50.2217L120.933 49.2173L118.924 46.204L117.116 43.7934L114.907 41.3828V41.1819Z" fill="#9C6997"/>
<path d="M71.5151 137.607L73.524 137.808L75.332 138.21L75.5328 138.812L77.5417 139.013L80.7559 139.817L82.1621 140.018V140.218H80.555L74.7293 139.013L72.3187 138.611L71.5151 138.009V137.607Z" fill="#4B2A3F"/>
<path d="M21.2939 115.309L22.2983 116.313L24.508 118.724L24.3071 119.125L23.3027 118.523V119.527L24.1063 121.134L23.9054 121.536L21.8965 117.719L20.8921 116.112V115.509L21.2939 115.309Z" fill="#6C3866"/>
<path d="M27.1194 40.1774L27.5212 40.3783L25.1106 42.7889L23.3026 45.1995L21.8964 47.6101L21.4946 46.8066L21.8964 46.6057L21.6955 45.8022L23.1017 43.9942L23.9053 42.9898L25.7132 41.5836L27.1194 40.1774Z" fill="#A4729A"/>
<path d="M33.3467 85.5774L34.1502 85.9792L36.5608 87.988L38.7706 89.3942V89.796L39.775 89.9969L41.583 91.2022L44.3954 92.6084L43.7927 92.8093L39.1724 90.3986L35.5564 87.988L34.552 86.9836L33.5476 86.18L33.3467 85.5774Z" fill="#6A3669"/>
<path d="M41.5831 28.5261V29.1288L41.1813 29.9323L40.1769 30.1332V30.535L38.9716 31.1376L37.5654 32.3429L36.561 33.1465L35.5566 33.7491H35.1548L35.5566 32.7447L39.1725 30.1332L41.5831 28.5261Z" fill="#B07FB3"/>
<path d="M80.9569 33.1464H84.9746L90.8003 33.5481L91.6038 33.749V34.1508L89.1932 33.9499L87.1843 33.749H80.5551L77.7427 34.1508H76.7383L77.5418 33.749L80.9569 33.1464Z" fill="#492544"/>
<path d="M30.3338 70.3101H37.9675V70.7118L30.5347 70.9127H26.1152V70.5109L30.3338 70.3101Z" fill="#D6A172"/>
<path d="M22.2985 53.235H22.4993V55.2438L22.2985 57.0518V62.8775H21.8967L21.6958 62.4757V56.0474L22.0976 53.4359L22.2985 53.235Z" fill="#49283E"/>
<path d="M6.42849 95.6218H9.44177V95.8227L8.03557 96.0236L8.83911 97.2289V98.836L8.43734 99.2378L8.23646 98.836L7.83469 99.0369V97.2289L7.43292 96.4254H5.42406L4.82141 96.6263L4.62052 97.2289L4.21875 96.4254L6.42849 95.6218Z" fill="#84576F"/>
<path d="M70.1094 72.5198H75.1315L76.3368 72.9215L78.3457 73.3233L80.3545 73.5242V73.926L77.743 73.7251L76.5377 73.5242V73.926L75.9351 74.1269L76.1359 73.3233L71.7165 72.9215L70.1094 72.7207V72.5198Z" fill="#926668"/>
<path d="M72.1179 92.0057L72.7206 92.2066L69.1046 93.8137L69.5064 94.2155L67.2967 94.8181H65.0869L65.8905 94.2155L71.1135 92.4075L72.1179 92.0057Z" fill="#B282B4"/>
<path d="M37.3646 51.4266L39.1726 51.8284L38.369 52.2302L37.3646 53.4355H35.5566L35.7575 52.2302L36.5611 51.6275L37.3646 51.4266Z" fill="#AE7D8C"/>
<path d="M37.9673 72.5198H38.1682L38.3691 77.5419L39.1726 83.3676L39.9761 86.3809L39.7753 87.1844L38.9717 86.7826L39.3735 86.5817L38.5699 82.564L37.9673 77.9437V72.5198Z" fill="#B687B7"/>
<path d="M25.7133 70.5112H26.1151L25.9142 71.7165L27.1195 73.9263L29.9319 77.7431L31.3381 79.3502L30.7354 79.5511L29.1283 77.5422V77.1404H28.7266V76.5378L28.1239 76.3369V75.7342H27.7221L26.1151 73.1227L25.3115 71.7165V70.7121L25.7133 70.5112Z" fill="#AF7E8E"/>
<path d="M94.6168 141.825L95.0185 142.026L93.2106 143.834L91.6035 145.24L90.5991 145.642L89.3938 144.838L89.1929 144.236L90.8 143.031L91.6035 142.83L90.8 143.633L90.1973 144.035L90.3982 144.838L91.4026 144.638L94.4159 142.026L94.6168 141.825Z" fill="#764A62"/>
<path d="M45.4003 38.1683L47.4092 39.3736L51.0251 42.9896L52.6322 44.9984L52.4313 45.4002L50.8242 43.5922L49.418 41.9852L47.61 40.3781L44.9985 38.5701L45.4003 38.1683Z" fill="#512E45"/>
<path d="M55.4438 71.1138H59.2607L60.2651 71.3147V71.5155L56.6492 71.3147V71.9173L56.2474 72.1182L55.6447 76.3368H55.4438V71.1138Z" fill="#794B62"/>
<path d="M96.425 74.5288L96.6258 74.9306L97.2285 74.7297V75.1315L97.6303 75.3323L96.8267 76.7385L96.2241 77.3412L95.8223 78.3456L94.8179 79.1492L95.0188 78.3456L95.6214 77.5421L96.0232 75.5332V74.7297L96.425 74.5288Z" fill="#6F3871"/>
<path d="M46.605 36.1594L47.2076 36.3603V36.7621L48.2121 36.963L49.2165 37.9674L50.8236 39.3736L53.0333 41.5833L54.0377 42.7886L53.8369 43.1904L51.4262 40.7798L50.2209 39.3736L49.8191 39.1727V38.7709L49.0156 38.3692L47.0068 36.963L46.605 36.1594Z" fill="#43213D"/>
<path d="M24.5078 120.531L25.3114 120.933L27.1193 123.344L26.9184 123.746L25.914 123.143L26.1149 124.348L25.5122 123.545L24.5078 121.536V120.531Z" fill="#95628E"/>
<path d="M36.9631 34.7534H42.5878V34.9543L38.3692 35.1552L34.5524 36.1596L32.3427 37.164L31.9409 36.9632L33.548 35.9587L36.9631 34.7534Z" fill="#976494"/>
<path d="M37.1638 48.8154H38.3691V49.0163L35.7576 49.619L34.5523 50.4225L33.5479 51.6278L33.1461 52.8331V54.842L33.347 56.2482H32.9452L32.5435 54.4402L32.7443 52.4314L33.7488 50.4225L35.5567 49.2172L37.1638 48.8154Z" fill="#533145"/>
<path d="M29.5301 41.9852L29.9319 42.1861L26.7178 45.4003L25.5124 47.2082L24.9098 47.8109L24.7089 48.2127H24.3071L24.7089 47.0074L26.1151 45.1994L28.5257 42.9897L29.5301 41.9852Z" fill="#603C4D"/>
<path d="M53.0337 95.4207L61.8726 95.6215V95.8224L60.0647 96.0233H54.239L53.0337 95.8224V95.4207Z" fill="#834F83"/>
<path d="M34.3515 84.774L36.1594 85.7785L37.1639 86.7829L37.3648 87.1847L36.1594 87.3856L34.5524 85.9794L33.9497 85.5776L34.3515 84.774Z" fill="#AA78A2"/>
<path d="M107.072 33.1464L107.875 33.5481L110.889 36.5614L112.295 38.1685L113.5 39.1729L114.906 40.78L114.705 41.1818L110.688 37.1641L109.282 35.557L107.072 33.3472V33.1464Z" fill="#95628F"/>
<path d="M88.1885 120.733L89.9964 121.335L93.0097 122.942L94.0142 124.148H93.4115L91.8044 122.942L88.7911 121.335L88.5902 122.139L88.1885 121.737V120.733Z" fill="#573448"/>
<path d="M32.7444 129.571H33.1462L32.9453 130.777L32.1418 132.384V133.388V133.991L30.9364 132.183L30.5347 131.379L30.7356 130.777L31.1373 131.58L32.1418 131.781L32.3426 130.777V130.174L32.7444 129.571Z" fill="#693961"/>
<path d="M123.946 70.5112H124.147L123.946 72.3192L123.343 74.1272L122.54 75.5334L122.339 74.9307L122.942 72.5201L123.745 70.7121L123.946 70.5112Z" fill="#6F3C69"/>
<path d="M45.1992 93.2109H46.6054L51.0249 94.818L52.0293 95.2198V95.4207L50.4222 95.2198L49.016 94.818L45.1992 93.4118V93.2109Z" fill="#7F4B7E"/>
<path d="M86.3807 134.192L86.5816 134.593L85.3763 137.807L84.7736 139.615L82.9657 140.017L82.1621 139.816L84.3718 139.214L85.9789 134.392L86.3807 134.192Z" fill="#533145"/>
<path d="M124.951 61.27H125.353V66.2922L124.549 69.7072L123.946 70.7116L123.746 70.3099L124.348 67.6983H124.75L124.951 65.6895V61.27Z" fill="#693663"/>
<path d="M88.5905 122.138L89.1932 122.942L89.7958 123.946L89.595 124.951L88.5905 127.964H88.3896L88.5905 124.549L88.7914 124.348V123.143L88.5905 122.138Z" fill="#7F575F"/>
<path d="M87.1846 74.9307L89.7961 75.1315L93.0102 75.5333L94.4164 75.9351L93.8138 76.9395L93.0102 77.5422L92.6085 77.3413L93.6129 76.3369L91.8049 75.9351L87.1846 75.1315V74.9307Z" fill="#B38094"/>
<path d="M58.2568 167.538L59.2613 167.94L61.0692 169.547L61.471 169.748V171.355L60.4666 170.351L59.0604 168.744L58.2568 167.538Z" fill="#050203"/>
<path d="M76.336 90.8005H77.1396V91.4032L74.729 92.4076H73.3228L74.3272 91.4032L76.336 90.8005Z" fill="#E4D3E3"/>
<path d="M91.8047 17.879L92.6082 18.2808L93.8135 19.2852L95.2197 20.8923L97.2286 23.102L97.4295 23.7047H97.0277L95.6215 22.0976L94.6171 21.0932V20.6914H94.2153V20.2897L93.6127 20.0888L92.2065 18.4817L91.8047 17.879Z" fill="#9D699F"/>
<path d="M62.0732 142.629L62.2741 143.433L61.0688 145.241L60.2653 147.049L60.0644 148.053H59.6626L59.8635 146.446L61.2697 143.633L62.0732 142.629Z" fill="#F7F2FC"/>
<path d="M78.3453 54.2394H80.3542L81.5595 55.2438L81.7604 55.6456V56.8509H81.5595L81.1577 55.6456L79.9524 55.0429H78.3453L77.7427 54.4403L78.3453 54.2394Z" fill="#CAA19D"/>
<path d="M63.0776 44.9987H63.4794L63.2785 46.0031L62.2741 46.4049L62.0732 47.0075L60.667 48.0119L59.6626 49.0164V48.4137L63.0776 44.9987Z" fill="#EEC398"/>
<path d="M33.5477 38.9722L34.7531 39.1731L34.3513 39.5748L31.9407 40.7801L31.1371 41.3828L30.7354 41.1819L31.7398 39.9766L33.5477 38.9722Z" fill="#573447"/>
<path d="M38.7711 124.549L39.1729 124.75L39.5747 126.96L39.3738 127.763H38.972L38.5702 126.96H38.972L38.7711 125.956H38.3693L38.1685 124.75L38.7711 124.549Z" fill="#F9C68F"/>
<path d="M88.1888 73.9261L90.3985 74.127V74.5288L91.2021 74.7297L90.8003 74.9306L89.9967 74.7297H88.3897L84.9746 74.3279V74.127H88.1888V73.9261Z" fill="#6D3B63"/>
<path d="M44.7978 34.3516L46.204 34.5524L46.8066 34.9542V35.356H47.2084V35.9586L45.4004 35.5569V35.1551L44.5969 34.9542L44.396 34.5524L44.7978 34.3516Z" fill="#FAF9FC"/>
<path d="M122.741 52.2305L123.545 53.2349L124.549 56.4491L124.348 57.2526L123.746 56.2482L123.344 54.2393L122.741 53.034V52.2305Z" fill="#753C79"/>
<path d="M71.5151 137.607L73.524 137.808L74.5284 138.009L74.7293 138.812L72.3187 138.611L71.5151 138.009V137.607Z" fill="#41223A"/>
<path d="M30.7353 81.3586L31.5388 81.5595L32.1415 82.1622L31.3379 82.3631L31.7397 83.5684L32.945 84.7737L32.7441 85.1755L31.3379 83.7693L30.3335 82.3631L30.5344 81.5595L30.7353 81.3586Z" fill="#7C4382"/>
<path d="M18.8833 61.873H19.0842L19.2851 63.4801H19.6868L19.8877 65.6899L20.0886 66.6943L19.2851 65.8908L18.8833 63.8819V61.873Z" fill="#6E376F"/>
<path d="M45.6008 34.1508L47.007 34.3516L48.0114 35.7578V36.3605L46.2034 36.1596L45.8017 35.7578L47.2079 35.9587V35.3561H46.8061V34.9543L45.3999 34.5525L45.6008 34.1508Z" fill="#F2E8F3"/>
<path d="M30.5346 70.7119H34.9541V70.9128L26.316 71.3146L25.9143 72.1181L25.7134 71.1137L25.9143 70.9128L30.5346 70.7119Z" fill="#EFE3EF"/>
<path d="M124.951 68.301H125.152V70.109L123.946 72.9214L123.746 72.3187L124.549 69.1046L124.951 68.301Z" fill="#996690"/>
<path d="M50.2209 22.7003H50.6227V23.1021L49.4174 23.5039V23.9056H49.0156V24.3074H48.6138V24.7092L47.4085 25.5127L46.605 25.7136L46.8059 24.9101L50.2209 22.7003Z" fill="#AD7BA4"/>
<path d="M75.332 72.7205H78.1444L78.948 73.1222L81.7604 73.524L81.9612 73.9258H80.3542V73.524H78.3453L75.332 72.9213V72.7205Z" fill="#703F64"/>
<path d="M54.6409 48.8154L55.2436 49.0163L55.6454 50.2216L55.0427 50.8243L54.2392 50.4225L53.8374 49.619L54.6409 48.8154Z" fill="#F5C38E"/>
<path d="M104.661 46.2039H105.063L105.866 48.4136V49.8198L105.264 49.6189L104.661 47.2083V46.2039Z" fill="#523045"/>
<path d="M17.8789 69.5067L18.6824 70.5111H19.0842L19.2851 72.1182H18.8833L18.6824 72.9218L17.8789 70.712V69.5067Z" fill="#7E4681"/>
<path d="M44.1948 58.8596H44.3957L44.5966 60.4667L43.9939 61.0694L43.793 60.6676L42.186 61.4711L41.7842 61.2702L42.9895 60.4667L44.1948 58.8596Z" fill="#F0BE8A"/>
<path d="M33.1461 124.348L33.9497 124.951L33.7488 125.754L31.9408 126.96L31.5391 126.759L32.3426 125.553H32.7444L33.1461 124.348Z" fill="#57344D"/>
<path d="M74.7295 73.1224L76.1357 73.3233L76.3366 74.5286L75.9348 75.9348H75.533L75.1313 73.7251L75.3321 73.3233L74.7295 73.1224Z" fill="#A06D9A"/>
<path d="M21.0929 48.0117H21.4947L20.892 49.8197L19.8876 52.6321L19.4858 52.2303L19.6867 51.4268L20.892 48.4135L21.0929 48.0117Z" fill="#A2709B"/>
<path d="M36.5612 51.8285H37.7665L37.5656 52.632L36.9629 53.2347L35.9585 53.0338L36.1594 52.2303L36.5612 51.8285Z" fill="#F8F4F9"/>
<path d="M81.7605 145.441L82.1622 145.642L81.9613 146.647L83.9702 147.249L83.1667 147.651H81.9613L81.5596 147.249V145.642L81.7605 145.441Z" fill="#82566D"/>
<path d="M40.9807 132.183L41.1816 132.785L40.579 134.593L40.1772 135.397L39.1728 135.999L38.771 135.799L39.9763 134.392L40.579 132.384L40.9807 132.183Z" fill="#583449"/>
<path d="M27.1196 39.5747L27.5214 39.7756L25.7134 41.7844L25.1108 42.3871H24.709L25.1108 41.5836L27.1196 39.5747Z" fill="#B3819C"/>
<path d="M81.9612 73.725H83.97L84.5727 73.9259V74.3276H81.9612L80.7559 74.1267V73.9259L81.9612 73.725Z" fill="#8C5E6C"/>
<path d="M46.605 36.1594L47.2076 36.3603V36.7621L48.2121 36.963L49.2165 37.9674L50.2209 38.7709V39.1727H49.8191V38.7709L49.0156 38.3692L47.0068 36.963L46.605 36.1594Z" fill="#5A354F"/>
<path d="M101.648 27.5216L102.451 27.7225L102.853 27.9234L103.456 28.9278L104.259 30.1331V30.7358L101.849 28.1243L101.648 27.5216Z" fill="#A16EA0"/>
<path d="M46.2035 25.3119L46.4044 26.1154L44.3955 27.1199L43.3911 27.5216V27.1199L46.2035 25.3119Z" fill="#AE7CA3"/>
<path d="M95.6216 140.218L95.8225 140.62L94.4163 142.227L93.8137 142.629L94.0146 141.825L93.6128 141.624L95.6216 140.218Z" fill="#95628E"/>
<path d="M37.5654 88.3896L38.369 88.5905V88.9923L39.1725 89.1932L41.1814 90.3985L40.3778 90.5994L38.7707 89.7958V89.3941L37.7663 88.9923L37.5654 88.3896Z" fill="#976494"/>
<path d="M21.8967 57.6544H22.0976L22.2985 62.8774H21.8967L21.6958 62.4757L21.8967 57.6544Z" fill="#674251"/>
<path d="M26.3159 124.75L26.7177 124.951L27.1195 125.755V126.357H27.5212V126.759H27.923V127.964L27.5212 127.161L26.7177 126.759L26.3159 125.955V124.75Z" fill="#895A79"/>
<path d="M91.001 122.138L92.0054 122.339L93.6125 123.545L94.0143 124.348L93.2107 123.946L91.4027 122.741L91.001 122.54V122.138Z" fill="#543145"/>
<path d="M50.4225 109.483H50.8243L50.2216 111.291L49.0163 114.103L48.8154 113.5L50.2216 109.684L50.4225 109.483Z" fill="#523044"/>
<path d="M38.771 82.5643L39.1728 83.3679L39.9763 86.3812L39.7754 87.1847L38.9719 86.7829L39.3737 86.582L38.771 83.7696V82.5643Z" fill="#B586BB"/>
<path d="M23.1019 50.8241H23.3028L23.1019 52.6321L22.7001 54.2391H22.4992L22.2983 52.6321L23.1019 50.8241Z" fill="#563446"/>
<path d="M96.4253 200.082L97.8315 201.287L98.8359 202.493L98.2333 202.694L97.4297 201.689L96.4253 200.685V200.082Z" fill="#FED8AE"/>
<path d="M53.8372 142.428H54.0381L53.8372 144.638L53.6363 145.843H53.2346L53.0337 146.245L53.2346 144.638L53.6363 143.231L53.8372 142.428Z" fill="#6F485C"/>
<path d="M88.189 127.964L88.3899 128.768L88.189 130.375L87.9881 130.978L87.1846 131.58L87.5863 129.772L88.189 127.964Z" fill="#613D4E"/>
<path d="M26.9185 126.759L27.722 127.16V127.964L28.7264 127.562L29.3291 127.16L28.9273 127.964L29.1282 128.366L27.722 128.567L26.9185 127.16V126.759Z" fill="#7E5268"/>
<path d="M36.3604 61.0693L38.1683 61.672V62.0738L39.1727 62.4755L40.3781 62.6764L39.5745 63.0782L38.1683 62.4755L36.3604 61.2702V61.0693Z" fill="#FAC790"/>
<path d="M41.5835 28.5261V29.1288L41.1817 29.9323L39.1729 30.535V30.1332L41.5835 28.5261Z" fill="#B180AB"/>
<path d="M77.14 73.1224L80.3541 73.5242V73.926L77.7426 73.7251L76.5373 73.5242L76.3364 73.926V73.3233L77.14 73.1224Z" fill="#9A6C79"/>
<path d="M31.7402 37.365L32.142 37.5659L31.5393 38.1685L29.7314 39.3738L29.3296 39.173L30.334 38.1685L31.7402 37.365Z" fill="#482442"/>
<path d="M97.4292 23.7048L98.2327 24.1066L99.2372 25.111L100.242 25.7137L100.844 26.7181L100.041 26.3163L97.4292 23.9057V23.7048Z" fill="#9E6AA1"/>
<path d="M74.5287 138.209L75.5332 138.41V138.812L77.542 139.013V139.214H75.734L74.7296 139.013V138.611L74.127 138.41L74.5287 138.209Z" fill="#694258"/>
<path d="M22.2983 78.9482L22.901 79.1491L24.3072 81.158L24.1063 81.7606L22.2983 79.35V78.9482Z" fill="#582E54"/>
<path d="M19.6865 64.6854L20.0883 65.2881L20.691 67.4978V68.7031L20.0883 67.8996L19.6865 65.6899V64.6854Z" fill="#61315D"/>
<path d="M79.9524 59.4622H80.3542L79.9524 60.2657L79.5506 60.6675H78.7471V59.663L79.9524 59.4622Z" fill="#D0AFAF"/>
<path d="M90.3984 143.633L90.8001 143.834L90.5992 144.437L91.4028 144.236L92.2063 143.633L92.6081 143.834L91.001 145.039L90.1975 144.838L89.9966 144.035L90.3984 143.633Z" fill="#95628E"/>
<path d="M82.7646 144.035L83.3673 144.236L82.3628 145.039L81.7602 145.642L81.5593 146.847H81.3584V145.441L82.3628 144.236L82.7646 144.035Z" fill="#764862"/>
<path d="M93.6128 123.746L94.4163 124.147L96.2243 125.754L95.6216 125.955L94.0146 124.549L93.6128 123.746Z" fill="#5E3A4B"/>
<path d="M79.9521 54.2394L80.9566 54.6412L81.7601 55.6456V56.8509H81.5592L81.1575 55.6456L79.9521 55.0429V54.4403V54.2394Z" fill="#AA7A80"/>
<path d="M94.6172 141.825L95.0189 142.026L93.211 143.834L92.2065 144.437L92.6083 143.633L94.6172 141.825Z" fill="#744662"/>
<path d="M25.7133 70.5112H26.1151L25.9142 71.7165L26.5168 72.9219L26.316 73.3236L25.3115 71.7165V70.7121L25.7133 70.5112Z" fill="#B58293"/>
<path d="M39.775 30.1328H40.1767V30.5346L38.9714 31.1372L38.1679 31.9408L37.7661 31.7399L38.5697 30.5346L39.775 30.1328Z" fill="#B384B4"/>
<path d="M73.7251 151.869H75.1313L75.734 152.472L75.9348 154.28L75.5331 153.677L75.1313 152.271L73.7251 152.07V151.869Z" fill="#583549"/>
<path d="M64.0824 137.808L65.4885 138.009V138.41L65.0868 138.611H63.2788V138.209L64.0824 137.808Z" fill="#D3B3B8"/>
<path d="M40.9807 88.5908L41.9851 88.7917L42.3869 89.7961L41.3824 89.5952L40.7798 89.1935L40.9807 88.5908Z" fill="#9F6B9F"/>
<path d="M35.7578 85.9792L37.164 86.7828L37.3649 87.1846L36.1596 87.3854L35.7578 86.7828V85.9792Z" fill="#9D699F"/>
<path d="M39.7756 57.6544H40.78V58.458L39.7756 58.6588L39.5747 57.8553L39.7756 57.6544Z" fill="#B48692"/>
<path d="M122.741 52.2305L123.545 53.2349L123.947 54.2393V54.842L123.344 54.6411L122.942 53.2349L122.741 52.2305Z" fill="#763D7B"/>
<path d="M64.685 43.5923L65.0868 43.7932L63.6806 45.6011L63.2788 44.7976L64.685 43.5923Z" fill="#E0AF82"/>
<path d="M64.6848 140.017L65.0866 140.419L64.6848 141.022L63.4795 141.223L63.8813 140.218L64.6848 140.017Z" fill="#FDFDFE"/>
<path d="M52.4308 104.661L52.8326 104.862L51.8282 106.67L50.8237 107.273L51.2255 106.469L52.4308 104.661Z" fill="#1E111A"/>
<path d="M33.3467 85.5774L34.1502 85.9792L35.9582 87.5862H35.3555L33.5476 86.18L33.3467 85.5774Z" fill="#743C75"/>
<path d="M75.1312 73.9261H75.3321L75.1312 75.3323L74.7294 76.7385H74.3276L74.9303 74.127L75.1312 73.9261Z" fill="#AC79B0"/>
<path d="M97.4292 38.5702L99.6389 39.7755L100.041 40.579L99.2372 40.1773L97.4292 38.972V38.5702Z" fill="#543246"/>
<path d="M96.425 139.415H96.8268V140.017H96.425L96.0233 140.821L95.6215 141.022V140.419L95.2197 140.218L96.425 139.415Z" fill="#80595F"/>
</svg>
