<svg width="128" height="210" viewBox="0 0 128 210" fill="none" xmlns="http://www.w3.org/2000/svg">
<path d="M79.6665 0L80.2691 0.200885L81.8762 3.41505L83.4833 5.82568L85.4922 8.43718L87.9028 11.2496L89.309 12.6558L90.7152 14.2629L93.5276 17.0753L95.1347 18.4815L96.7417 20.0885L98.3488 21.4947L102.367 25.5124L103.974 26.9186L105.782 28.9275L109.799 32.9452L111.406 34.3514L114.42 37.5656L115.826 38.9718L117.232 40.5788L119.241 42.7886L122.254 46.8063L124.464 50.2213L126.473 54.4399L127.477 57.855L127.879 60.4665V63.078L127.075 67.0957L125.87 70.7116L123.861 74.9302L122.254 77.3409L119.844 80.555L117.835 82.7648L116.429 84.3718L114.621 86.1798L113.013 87.586L109.799 90.1975L106.183 92.6081L102.166 94.8179L95.7373 97.4294L87.7019 100.242L85.2913 101.447L84.4877 102.251V103.255L86.8984 103.858L89.309 105.063L91.117 106.469L92.5232 107.875L94.3311 110.085L96.34 112.697L98.5497 115.308L100.759 118.121L103.371 121.335L107.389 126.357L110 129.973L111.406 132.584L111.607 133.991L111.005 135.999L109.799 137.807L109.398 138.008L107.389 136.401L105.179 134.593L104.175 133.991V135.798L105.581 138.611L107.188 140.821L108.795 142.629V143.633L108.192 143.834L101.965 144.236L99.1524 144.637L95.5364 145.843L93.5276 147.048L93.1258 148.454L92.724 150.865L91.7196 153.276L90.5143 154.883L89.7108 155.887L87.7019 157.092L85.2913 158.097L84.4877 158.9L84.2869 159.905L84.6886 160.909L85.0904 166.936L85.8939 172.962L87.3001 180.194L90.3134 192.046L91.3178 195.06L92.3223 196.064L94.532 197.872L96.7417 199.479L99.1524 201.689L100.96 203.698L102.166 205.707L102.969 207.916L102.768 209.323L102.367 209.724L92.5232 209.925H88.9072L86.8984 209.724L86.4966 209.323L86.2957 208.519V205.506L87.0993 201.89V200.484L84.2869 196.667L82.8807 194.658L81.0727 191.846L78.863 188.631L76.0506 184.815L74.0417 182.002L70.8275 177.784L68.4169 174.569L66.6089 172.36L64.3992 170.753L62.7921 169.949L62.5912 171.556L62.993 173.565L63.3948 180.395L64.1983 185.819L65.4036 190.439L67.4125 196.265L69.4213 201.488L71.4302 206.309L71.832 207.515V208.318L70.2249 208.519H53.9532L50.3372 208.318V207.113L51.1408 205.907L53.3505 204.3L56.1629 202.894L61.7877 201.287L61.5868 200.082L59.1762 195.863L55.962 189.234L53.7523 184.413L50.9399 177.984L48.7301 172.159L47.1231 166.936L45.3151 159.704L44.3107 154.079L43.9089 150.061L43.708 138.812L43.3062 136.2L42.3018 135.196L41.6992 134.995L38.6859 136.803L38.2841 137.004H36.4761L35.0699 136.2L33.262 134.392L31.8558 132.183L31.454 131.379L31.0522 128.768L30.6505 128.366L28.4407 128.768L27.2354 129.37L24.0212 131.781L22.6151 131.982L22.2133 131.58L20.6062 124.147L18.9991 119.326L17.392 116.112L15.1823 112.697L13.977 111.692H8.35219L6.14245 111.29L4.1336 110.286L2.52652 108.88L1.3212 106.871L0.919434 105.465V102.452L1.52209 100.443L2.52652 98.8356L4.33448 97.0276L5.94157 96.0232L7.34776 95.6214H10.361L13.1734 96.425L15.3832 97.8312L16.7894 99.4382L17.5929 101.648V104.059L16.9903 106.67L17.1911 107.675L19.2 109.483L21.4097 111.09L24.0212 113.299L26.0301 114.906L28.6416 117.116L30.8514 118.924L33.4629 121.134L34.2664 122.138L34.4673 123.745L34.6682 124.951L34.8691 125.352L37.2797 124.147L39.4894 123.946L40.4938 123.143L43.1054 119.728L48.3284 112.496L50.9399 108.076L53.5514 104.46L54.7567 101.849L54.9576 100.644L54.1541 99.84L51.1408 98.6347L44.3107 96.2241L39.2885 93.8135L34.6682 90.8002L31.8558 88.7913L28.8425 86.1798L26.6328 83.9701L23.6195 79.9524L21.8115 77.14L19.6018 72.9214L18.5973 69.9081L17.9947 67.4975L17.5929 63.6807V59.4621L18.1956 55.4444L19.6018 51.2258L21.8115 47.0072L23.8204 44.1948L26.4319 41.1815L28.039 39.5744L29.646 38.1682L32.2575 35.9585L35.6726 33.347L38.6859 31.1372L41.9 28.9275L44.9133 26.7178L48.3284 24.508L52.7479 21.6956L57.3682 18.6823L63.9974 14.2629L68.0151 11.4505L70.024 9.84338L72.8364 7.43276L77.055 3.21417L78.863 1.00443L79.6665 0Z" fill="black"/>
<path d="M7.34776 95.6216H10.361L13.1734 96.4251L15.3832 97.8313L16.7894 99.4384L17.5929 101.648V104.059L16.9903 106.67L17.1911 107.675L19.2 109.483L21.4097 111.09L24.0212 113.299L26.0301 114.907L28.6416 117.116L30.8513 118.924L33.4629 121.134L34.2664 122.138L34.4673 123.746L34.6682 124.951L34.8691 125.353L37.2797 124.147L39.4894 123.946L40.4938 123.143L43.1054 119.728L48.3284 112.496L50.9399 108.076L53.5514 104.461L54.7567 101.849L54.9576 100.644L54.154 99.8402V99.4384L56.5647 99.8402L62.993 100.845L68.4169 101.246H77.4567L82.4789 100.845L87.3001 100.041V100.443L85.2913 101.447L84.4877 102.251V103.255L86.8984 103.858L89.309 105.063L91.117 106.469L92.5231 107.876L94.3311 110.085L96.34 112.697L98.5497 115.308L100.759 118.121L103.371 121.335L107.389 126.357L110 129.973L111.406 132.584L111.607 133.991L111.005 136L109.799 137.807L109.398 138.008L107.389 136.401L105.179 134.593L104.174 133.991V135.799L105.581 138.611L107.188 140.821L108.795 142.629V143.633L108.192 143.834L101.965 144.236L99.1524 144.638L95.5364 145.843L93.5276 147.048L93.1258 148.454L92.724 150.865L91.7196 153.276L90.5143 154.883L89.7108 155.887L87.7019 157.092L85.2913 158.097L84.4877 158.9L84.2868 159.905L84.6886 160.909L85.0904 166.936L85.8939 172.962L87.3001 180.194L90.3134 192.047L91.3178 195.06L92.3223 196.064L94.532 197.872L96.7417 199.479L99.1524 201.689L100.96 203.698L102.166 205.707L102.969 207.916L102.768 209.323L102.367 209.724L92.5231 209.925H88.9072L86.8984 209.724L86.4966 209.323L86.2957 208.519V205.506L87.0992 201.89V200.484L84.2868 196.667L82.8807 194.658L81.0727 191.846L78.8629 188.631L76.0506 184.815L74.0417 182.002L70.8275 177.784L68.4169 174.57L66.6089 172.36L64.3992 170.753L62.7921 169.949L62.5912 171.556L62.993 173.565L63.3948 180.395L64.1983 185.819L65.4036 190.439L67.4125 196.265L69.4213 201.488L71.4302 206.309L71.832 207.515V208.318L70.2249 208.519H53.9532L50.3372 208.318V207.113L51.1408 205.908L53.3505 204.301L56.1629 202.894L61.7877 201.287L61.5868 200.082L59.1762 195.863L55.962 189.234L53.7523 184.413L50.9399 177.985L48.7301 172.159L47.1231 166.936L45.3151 159.704L44.3107 154.079L43.9089 150.062L43.708 138.812L43.3062 136.2L42.3018 135.196L41.6992 134.995L38.6859 136.803L38.2841 137.004H36.4761L35.0699 136.2L33.262 134.392L31.8558 132.183L31.454 131.379L31.0522 128.768L30.6505 128.366L28.4407 128.768L27.2354 129.37L24.0212 131.781L22.6151 131.982L22.2133 131.58L20.6062 124.147L18.9991 119.326L17.392 116.112L15.1823 112.697L13.977 111.692H8.35219L6.14245 111.291L4.1336 110.286L2.52652 108.88L1.3212 106.871L0.919434 105.465V102.452L1.52209 100.443L2.52652 98.8357L4.33448 97.0278L5.94157 96.0234L7.34776 95.6216Z" fill="black"/>
<path d="M81.2733 35.9585H88.3043L91.3176 36.3603L95.5362 37.5656L99.353 39.3735L101.563 41.1815L103.572 43.1904L104.978 45.4001L105.781 47.2081L106.585 50.824V54.4399L106.183 57.4532L105.38 60.4665L103.973 63.8816L101.563 68.1002L99.1521 71.5152L96.5406 74.7294L96.3397 74.9303H94.7327L86.0946 73.5241L77.4565 72.3187L66.6087 71.1134L55.3591 70.109L47.1228 69.7072H25.6281L24.8246 68.5019L23.4184 64.0824L23.0166 61.4709V57.0515L23.6193 53.2346L25.0255 49.4178L26.6325 46.6054L28.0387 44.7975L31.052 41.7842L34.2662 39.7753L37.4803 38.57L40.0919 37.9673L41.8998 37.7665H43.7078L46.3193 38.57L49.5335 40.9806L51.7432 43.1904L53.3503 45.1992L55.7609 48.4134L57.5689 51.4267H58.1715L59.7786 49.4178L61.9884 47.0072L65.0016 43.9939L67.814 41.7842L70.8273 39.7753L74.2424 37.9673L77.4565 36.762L79.2645 36.1594L81.2733 35.9585Z" fill="#FDD7AD"/>
<path d="M79.6668 0L80.2695 0.200885L81.8766 3.41505L83.4837 5.82567L85.4925 8.43718L87.9031 11.2496L89.3093 12.6558L90.7155 14.2629L93.5279 17.0753L95.135 18.4814L96.7421 20.0885L98.3492 21.4947L102.367 25.5124L103.974 26.9186L105.782 28.9275L109.8 32.9452L111.407 34.3514L114.42 37.5656L115.826 38.9718L117.232 40.5788L119.241 42.7886L122.255 46.8063L124.464 50.2213L126.473 54.4399L127.478 57.855L127.879 60.4665V63.078L127.076 67.0957L125.87 70.7116L123.862 74.9302L123.259 75.5329L123.661 73.1223L124.866 69.7072L125.268 67.6984H125.67L125.87 65.6895V61.6718L124.665 57.6541L123.661 55.0426L122.255 52.4311L121.25 52.0293L119.442 52.632L117.634 53.0337H114.621L112.21 53.4355L111.005 54.8417L110.001 54.4399L109.8 54.0382L109.398 50.824L108.795 47.8107L107.791 44.9983L106.184 42.1859L104.376 40.1771L102.367 38.3691L99.1527 36.3602L97.1439 35.3558L93.7288 34.3514L91.72 33.7487L85.8943 33.347H81.8766L78.4615 33.9496L75.0465 34.954L70.4261 37.1638L67.6137 38.9718L64.6004 41.1815L63.9978 41.3824V41.7841L62.9933 42.5877H62.5916V42.9895L60.9845 44.3957L58.1721 47.208L57.5694 47.0072V46.2036H57.1677L55.7615 44.1948L54.1544 42.1859L52.3464 40.1771L50.5385 38.3691L49.1323 37.3647L48.9314 36.9629L48.1278 36.762L47.9269 36.3602L45.1146 35.3558L43.9092 35.1549H39.2889L35.4721 36.1594L32.2579 37.7664L29.4455 39.5744L28.8428 39.7753V40.1771L27.2358 41.5833L25.026 43.9939L23.0172 47.208L21.8119 49.8196L20.4057 53.8373L19.803 57.855L19.6021 60.4665L19.4012 61.6718L19.2003 65.6895L19.6021 70.7116L18.5977 69.9081L17.995 67.4975L17.5933 63.6806V59.4621L18.1959 55.4444L19.6021 51.2258L21.8119 47.0072L23.8207 44.1948L26.4322 41.1815L28.0393 39.5744L29.6464 38.1682L32.2579 35.9585L35.6729 33.347L38.6862 31.1372L41.9004 28.9275L44.9137 26.7177L48.3287 24.508L52.7482 21.6956L57.3686 18.6823L63.9978 14.2629L68.0155 11.4505L70.0243 9.84338L72.8367 7.43276L77.0553 3.21417L78.8633 1.00443L79.6668 0Z" fill="black"/>
<path d="M43.9092 147.852H48.3287L54.1543 148.253L64.3995 149.459L74.6446 151.066L76.0508 151.467L77.6579 155.083L79.0641 156.891L80.8721 158.298L82.8809 159.101H84.2871L84.6889 160.106L85.0907 166.132L85.8942 172.159L87.3004 179.391L90.3137 191.243L91.3181 194.256L92.3226 195.261L94.5323 197.068L96.742 198.676L99.1527 200.885L100.961 202.894L102.166 204.903L102.969 207.113L102.769 208.519L102.367 208.921L92.5234 209.122H88.9075L86.8986 208.921L86.4969 208.519L86.296 207.715V204.702L87.0995 201.086V199.68L84.2871 195.863L82.8809 193.854L81.073 191.042L78.8632 187.828L76.0508 184.011L74.042 181.199L70.8278 176.98L68.4172 173.766L66.6092 171.556L64.3995 169.949L62.7924 169.145L62.5915 170.752L62.9933 172.761L63.3951 179.591L64.1986 185.015L65.4039 189.636L67.4128 195.461L69.4216 200.684L71.4305 205.506L71.8322 206.711V207.515L70.2252 207.715H53.9534L50.3375 207.515V206.309L51.1411 205.104L53.3508 203.497L56.1632 202.091L61.788 200.484L61.5871 199.278L59.1765 195.06L55.9623 188.43L53.7526 183.609L50.9402 177.181L48.7304 171.355L47.1233 166.132L45.3154 158.9L44.311 153.275L43.9092 149.258V147.852Z" fill="black"/>
<path d="M31.2531 70.3101H39.2885L39.6903 70.7118L40.2929 70.3101H44.9133L49.7345 70.5109L50.3372 70.7118L56.3638 71.1136L56.5646 71.3145V75.5331L56.9664 72.118L57.5691 71.9171V71.3145L63.1939 71.5154L70.6266 72.3189L72.6355 72.7207L76.4523 73.1225L77.0549 73.3233V73.926H77.4567V73.5242L80.0682 73.7251L86.8983 74.7295L92.9249 75.3322L95.1346 75.734V76.3366L94.3311 77.1402L93.9293 78.1446L94.532 79.149L94.3311 80.1534L92.5231 82.1623L90.916 83.5685L88.9072 85.1756L85.8939 87.1844L83.0815 88.7915L78.4611 91.2021L74.4434 92.8092L70.4257 94.2154L67.0107 95.019L62.7921 95.8225L60.9841 96.0234H55.1584L53.9531 95.8225V95.4207H51.9443L51.1407 95.019L48.7301 94.4163L46.1186 93.4119V93.0101L45.1142 92.6083L41.9 91.0012L40.2929 89.9968L39.6903 89.7959V89.3942L38.6858 88.9924L36.4761 87.3853L33.8646 85.1756L32.2575 83.1667L32.0566 82.3632L33.0611 82.1623L33.4628 82.3632L33.2619 81.3588L31.454 79.3499L30.0478 77.5419V77.1402H29.646V76.5375L29.0434 76.3366V75.734H28.6416L27.0345 73.1225L26.231 71.7163V70.7118L26.6327 70.5109L31.2531 70.3101Z" fill="black"/>
<path d="M80.6707 38.771H88.3044L90.9159 39.3737L92.3221 39.9763L93.3265 42.186L94.3309 43.994L94.5318 45.1993L94.3309 45.4002L94.1301 48.8153L93.9292 49.4179H93.5274L92.9247 51.6277L92.1212 53.6365L90.5141 55.6454L90.1123 56.6498L89.1079 57.6542L87.7017 59.4622L87.0991 60.0648L86.0946 61.6719L85.2911 61.8728V60.0648L85.0902 60.4666H84.6884L84.8893 59.4622L85.2911 58.2569V55.4445L84.4876 53.6365L83.0814 52.4312L81.4743 51.8285H79.2645L77.0548 52.6321L75.8495 53.4356L74.8451 54.4401L73.6397 56.6498L73.4389 57.6542V60.0648L74.0415 61.471L74.8451 62.6764L77.6575 64.6852L78.461 65.087H81.4743L82.8805 64.8861L82.6796 65.4887L80.4698 66.0914L78.8628 66.2923L76.8539 66.0914H71.8318V66.2923L68.015 66.0914L65.4035 65.2879L61.9884 64.0826L60.984 63.8817L61.3857 63.4799L59.176 62.6764L56.1627 62.2746L48.9309 61.8728H46.3193L44.5114 62.4755H43.9087L44.1096 61.6719L44.9131 60.6675L43.1052 61.471L42.7034 61.2702L43.9087 60.4666L45.5158 58.2569L45.7167 57.6542V54.6409L44.9131 52.6321L43.5069 50.8241L41.699 49.6188L39.2884 49.0161L37.0786 49.217L35.0698 50.2215L34.0653 51.8285L33.6636 53.4356L33.8645 55.4445L34.668 57.8551L35.4715 58.6586L35.8733 59.6631L37.6813 61.0693L39.0875 61.6719V62.0737L40.0919 62.4755L41.4981 62.6764L42.9043 62.2746H43.7078L43.5069 63.279L42.7034 64.0826L42.3016 64.2834H40.8954L39.891 63.4799L38.6857 64.0826L37.6813 63.0781L34.668 62.8772L32.86 62.0737L30.8512 60.8684L30.2485 59.4622L29.0432 55.8463L28.0388 53.6365L27.8379 51.6277L28.2397 49.217L28.8423 47.2082L29.445 46.2038H29.8467L30.2485 45.4002L32.0565 43.7931L34.4671 42.3869L36.6768 41.5834L38.6857 41.1816L41.4981 40.9807L44.9131 41.3825L46.922 42.186L49.7344 44.3958L50.1362 45.1993H50.5379V45.6011L51.3415 46.0029L52.5468 46.8064L54.3548 49.0161L55.1583 49.4179L55.5601 48.8153L56.1627 49.0161L57.5689 51.4268H58.1716L59.7787 49.4179L61.9884 47.0073L63.9973 44.9984H64.399L64.1981 46.0029L63.1937 46.4046L62.9928 47.0073L61.5866 48.0117L63.3946 46.8064L65.6043 44.9984L70.2247 42.186L73.6397 40.7798L77.8583 39.3737L80.6707 38.771Z" fill="#FDD7AD"/>
<path d="M81.8763 33.146H85.894L91.7197 33.5478L93.7286 34.1504L97.5454 35.3557L100.559 36.9628L102.768 38.5699L104.777 40.3779L106.585 42.3867L108.192 45.4L109.197 48.4133L109.799 51.8283L110 54.0381L110.603 54.6407L111.005 54.8416L111.406 54.0381L112.21 53.2345L114.822 52.8328H117.634L121.049 52.0292L121.652 51.8283L122.656 52.6319L124.263 56.0469L125.468 59.462L126.071 61.6717V65.6894L125.669 67.6983H125.468L125.268 62.6761L123.861 61.0691L122.656 60.6673L120.446 60.4664L120.245 60.6673H117.232V61.0691L116.228 61.6717H114.822L112.612 62.2744L110.201 63.2788H108.795L107.59 63.8815L106.384 65.2877L104.375 68.9036L102.969 71.1133L100.96 73.7248L98.9516 75.9346L97.5454 77.5417L94.5321 80.5549L92.925 81.7603L93.3268 80.9567L94.3312 79.9523L94.1303 78.5461L93.7286 78.1443L94.3312 76.939L95.1348 76.1355V75.9346L92.925 75.5328L85.4923 74.7293L77.4569 73.5239V73.9257L76.8542 74.1266L77.0551 73.3231L72.6356 72.9213L69.2206 72.3186L63.194 71.716L57.5692 71.3142V71.9169L57.1674 72.1178L56.5648 76.3363H56.3639V71.3142L50.3373 70.9124L49.7347 70.7116L44.9134 70.5107H40.2931L39.4895 70.9124L39.2886 70.5107H31.2532L26.2311 70.7116L26.8338 72.5195L28.6417 75.3319V75.7337H29.0435L29.2444 76.3363L29.6461 76.5372V77.1399H30.0479L32.0568 79.7514L33.6639 81.7603L33.463 82.5638L32.2577 82.3629L32.6594 83.5682L34.2665 85.3762L36.4762 87.1842L38.686 88.7912L39.6904 89.3939V89.7957L40.6948 89.9965L42.5028 91.2019L45.3152 92.6081L44.7125 92.8089L40.0922 90.3983L35.8736 87.5859L34.8692 87.9877L32.2577 88.3895L30.6506 87.1842L29.6461 86.3806L28.8426 86.1797L26.6329 83.97L23.6196 79.9523L21.8116 77.1399L19.6019 72.9213L18.7983 70.7116V69.5062L19.401 70.1089L18.9992 64.685L19.2001 61.0691L19.401 60.4664L19.8028 56.2478L20.4054 53.2345L22.0125 48.8151L23.6196 45.8018L25.2267 43.592L27.4364 41.1814L28.4408 40.177H28.8426V39.7752L31.8559 37.7664L34.8692 36.1593L38.2842 35.1548L39.2886 34.954H43.909L45.717 35.3557L48.1276 36.3602V36.7619L49.132 36.9628L50.1365 37.9672L51.7435 39.3734L53.9533 41.5832L56.163 44.3956L57.1674 45.8018V46.2035H57.5692V47.0071L58.5736 46.8062L59.9798 45.1991L62.1896 42.9894H62.5913V42.5876L63.5958 41.7841H63.9975V41.3823L67.6135 38.7708L69.8232 37.3646L74.0418 35.1548L77.6577 33.9495L80.4701 33.3469L81.8763 33.146ZM81.2737 35.9584L79.2648 36.1593L75.0462 37.5655L71.8321 39.1726L68.6179 41.1814L65.8055 43.3911L63.3949 45.6009L60.3816 48.6142L58.7745 50.623L57.7701 51.6274L56.3639 49.4177L54.5559 46.8062L52.9488 44.7973L51.1409 42.5876L49.132 40.5788L45.9179 38.369L43.7081 37.7664H41.9002L38.8869 38.1681L34.6683 39.5743L32.2577 40.9805L30.4497 42.3867L27.4364 45.4L25.8293 48.0115L24.4231 50.8239L23.4187 54.239L23.0169 57.0514V61.4708L23.6196 64.8859L25.0258 68.9036L25.6284 69.7071H47.1232L55.3595 70.1089L68.8188 71.3142L80.4701 72.7204L91.3179 74.3275L94.733 74.9301H96.3401L97.9472 73.1222L100.76 69.3054L103.17 65.2877L104.576 62.4753L105.782 59.2611L106.384 56.4487L106.585 54.4398V50.8239L105.782 47.208L104.375 44.3956L102.969 42.5876L100.96 40.5788L98.9516 39.1726L95.5365 37.5655L91.3179 36.3602L88.3047 35.9584H81.2737Z" fill="black"/>
<path d="M91.3178 106.871L92.5231 107.876L94.331 110.085L96.3399 112.697L98.5496 115.308L100.759 118.121L103.371 121.335L107.389 126.357L110 129.973L111.406 132.584L111.607 133.991L111.005 135.999L109.799 137.807L109.397 138.008L107.389 136.401L105.179 133.79L102.166 130.776L100.759 129.169L99.1523 127.763L96.9426 125.754L95.3355 124.348L93.3266 122.741L89.108 120.732L89.7107 122.741L89.9116 123.143V124.348L89.7107 124.549L89.3089 127.964L86.2956 136.803L85.4921 139.214L83.0815 140.017H81.6753L76.4522 138.812L76.2514 138.41L70.0239 137.205L64.3991 136.401L64.1982 135.999L66.8098 129.571L67.8142 127.161L69.4213 123.946L71.631 119.728L74.0416 115.911L75.8496 113.701L76.854 113.299V112.898L77.4567 112.496L81.6753 111.491L83.885 111.09L86.2956 109.884L88.3045 109.081L90.1125 108.277H90.7151L91.1169 107.273L91.3178 106.871Z" fill="black"/>
<path d="M80.0683 5.02197H80.47V5.42374L81.4745 5.82551L82.4789 6.62906V7.03083H82.8807L83.6842 8.03525L85.0904 9.84322L86.2957 11.2494L89.5099 14.4636V14.8654H89.9117V15.2671H90.3134V15.6689L91.117 16.0707L92.7241 17.6777L94.1302 19.2848L95.1347 20.2893V20.691H95.5364L96.9426 22.2981L97.1435 22.9008L97.9471 23.3025V23.7043L98.7506 24.1061L101.362 26.5167L102.768 27.722L104.175 29.3291L105.982 31.3379L107.389 32.5433V32.945L108.192 33.3468L111.607 36.7619L113.013 38.3689L117.433 42.7884L119.643 45.6008L121.652 48.6141L124.665 53.6362L126.272 59.4619L126.473 60.8681V64.8858L125.669 69.1044L124.866 72.3186L124.263 74.1265L123.46 75.5327L123.259 74.9301L123.861 72.5194L124.866 69.707L125.267 67.6982H125.669L125.87 65.6893V61.6716L124.665 57.6539L123.66 55.0424L122.254 52.4309L121.25 52.0291L119.442 52.6318L117.634 53.0336H114.621L112.21 53.4353L111.005 54.8415L110 54.4398L109.799 54.038L109.398 50.8238L108.795 47.8105L107.79 44.9982L106.183 42.1858L104.375 40.1769L102.367 38.3689L99.1524 36.3601L97.1435 35.3557L93.7285 34.3512L91.7196 33.7486L85.8939 33.3468H81.8762L79.8674 33.5477V33.1459L80.6709 32.945L79.8674 31.7397L80.47 29.53L80.8718 28.3247L81.2736 26.7176L81.0727 24.307V19.4857L80.47 18.8831V17.276L80.6709 16.6733L80.47 15.8698H80.0683L80.2692 15.0662L80.47 14.0618V11.2494L80.6709 10.8476V9.64233L79.6665 7.23171V5.42374L80.0683 5.02197Z" fill="black"/>
<path d="M7.34776 95.6216H10.361L13.1734 96.4251L15.3832 97.8313L16.7894 99.4384L17.5929 101.648V104.059L16.9903 106.67L17.1911 107.675L19.2 109.483L21.4097 111.09L24.0212 113.299L26.0301 114.907L28.6416 117.116L30.8513 118.924L33.4629 121.134L34.2664 122.138L34.4673 123.746L34.6682 124.951L34.8691 125.353L37.2797 124.147L39.4894 123.946L40.4938 123.143L43.1054 119.728L45.7169 116.112L45.9178 116.514L44.7124 119.728L43.3062 124.75L42.1009 130.174L41.2974 133.991L40.4938 135.196L39.4894 136.401L38.2841 137.004H36.4761L35.0699 136.2L33.262 134.392L31.8558 132.183L31.454 131.379L31.0522 128.768L30.6505 128.366L28.4407 128.768L27.2354 129.37L24.0212 131.781L22.6151 131.982L22.2133 131.58L20.6062 124.147L18.9991 119.326L17.392 116.112L15.1823 112.697L13.977 111.692H8.35219L6.14245 111.291L4.1336 110.286L2.52652 108.88L1.3212 106.871L0.919434 105.465V102.452L1.52209 100.443L2.52652 98.8357L4.33448 97.0278L5.94157 96.0234L7.34776 95.6216Z" fill="#3F1F39"/>
<path d="M81.2739 35.9585H88.3049L91.3181 36.3603L95.5367 37.5656L99.3536 39.3735L101.563 41.1815L103.572 43.1904L104.978 45.4001L105.782 47.2081L106.585 50.824V54.4399L106.184 57.4532L105.38 60.4665L103.974 63.8816L101.563 68.1002L99.1527 71.5152L96.5412 74.7294L96.3403 74.9303H94.7332L86.0951 73.5241L77.4571 72.3187V72.1179H78.4615V71.5152L77.6579 71.1134V70.3099L79.6668 69.3055L81.8765 68.301L83.0818 67.8993L85.0907 66.8948L85.6934 66.694L86.0951 65.8904L86.6978 65.6895L87.0996 64.886L88.104 64.4842L88.5057 63.6807L89.5102 62.4754H89.9119L90.3137 61.4709H90.7155L91.1173 60.6674L92.9252 58.2568L93.5279 57.0515H93.9297L94.5323 55.0426L95.3358 53.2346L95.9385 51.8284L96.5412 49.8196L96.9429 48.6143L97.1438 46.8063H97.5456L97.7465 42.9895L96.5412 41.5833L94.1305 40.1771L90.5146 38.9718L87.3004 38.57H84.8898L80.6712 38.9718L77.2562 39.7753L72.4349 41.3824L69.2208 42.9895L65.0022 45.601L63.1942 47.2081L61.788 48.2125L61.3862 48.0116L62.9933 46.8063L63.596 46.2036L64.1986 45.8019V44.7975L66.2075 42.9895L69.8234 40.378L73.0376 38.57L75.6491 37.3647L79.265 36.1594L81.2739 35.9585Z" fill="#FDD7AD"/>
<path d="M56.7657 103.255L59.3772 103.456L67.0108 104.26H80.2693L80.4702 105.063L79.064 106.269L77.6578 108.278H77.256L76.8542 109.282L76.2516 110.085H75.8498L75.448 111.291L73.4392 114.103L71.6312 117.116L70.0241 119.929L67.2117 125.152L64.6002 130.777L63.3949 134.192L62.7922 136L59.5781 135.799L58.5737 135.598L56.5648 129.772L55.1586 123.143L54.7568 120.331V114.103L55.3595 109.282L56.5648 103.657L56.7657 103.255Z" fill="#4AA5A2"/>
<path d="M51.3415 149.458H54.9574L61.3858 150.061L69.0194 151.266L73.238 151.869L75.4478 152.472L76.0504 154.079L76.4522 157.494L77.2557 160.306L78.8628 165.128L79.4655 167.739V170.351L78.8628 171.355L77.8584 172.359L77.0548 172.761V173.565L75.046 173.967L74.8451 174.167L72.6354 173.967L71.6309 172.962L69.6221 171.355L68.8185 170.953V170.551L68.015 170.15L65.6044 167.337L64.1982 165.73L63.3946 164.726V164.324H62.9929L61.9884 163.32L61.5867 162.516L60.7831 162.114L58.7743 160.306L58.3725 160.105V159.704H57.9707L57.1672 158.699L54.3548 156.891V156.489L53.5512 156.088L52.5468 155.284L51.1406 153.074V149.659L51.3415 149.458Z" fill="black"/>
<path d="M57.5689 71.3145L63.1937 71.5153L70.6264 72.3189L72.6353 72.7207L75.6486 73.1224L76.2512 73.3233L75.6486 75.533L74.6441 80.1534L74.2424 83.3676L73.8406 90.1977L68.4167 92.0056L63.5954 93.0101L60.3813 93.4118H57.7698L57.5689 93.0101L56.7653 85.5773L56.5645 82.3631V77.5419L57.368 71.9171L57.5689 71.3145Z" fill="white"/>
<path d="M84.2869 115.107H87.0993L89.7108 115.509L92.1214 116.514L94.5321 118.322L95.5365 119.125L96.5409 120.13L96.9427 120.933H97.3445L98.3489 121.938L98.5498 122.54L99.3533 122.942L99.5542 123.545L100.157 123.745V124.147L100.96 124.549L103.371 127.562L105.782 130.977L106.183 131.379L107.991 131.178L108.996 130.776H109.799L110 130.174L111.005 131.781L111.406 132.584L111.607 133.991L111.005 135.999L109.799 137.807L109.398 138.008L107.389 136.401L105.179 133.79L102.166 130.776L100.76 129.169L99.1524 127.763L96.9427 125.754L95.3356 124.348L93.3268 122.741L89.1082 120.732L89.7108 122.741L89.9117 123.143V124.348L89.7108 124.549L89.309 127.964L86.2958 136.803L85.4922 139.214L83.0816 140.017H81.6754L76.4524 138.812L76.2515 138.41L75.448 138.008L75.8497 137.607L75.448 137.205L75.2471 136.2V134.794L75.8497 131.58L76.8542 128.366L77.8586 126.156L78.863 124.147L79.8674 122.741L81.4745 121.335L83.0816 119.326L83.6843 117.92L84.2869 116.715V115.107Z" fill="black"/>
<path d="M40.2932 70.7119H50.3374L56.364 71.1137L56.5649 71.7163L55.7613 76.5376L55.5605 79.1491V83.3677L56.1631 89.9969L56.364 91.604V93.412L52.9489 92.8093L48.9312 91.604L45.7171 90.1978L42.7038 88.5907L42.1011 87.7872L41.2976 85.1757L40.4941 80.9571L40.0923 78.1447V71.3146L40.2932 70.7119Z" fill="white"/>
<path d="M99.7549 133.187L100.558 133.388L102.567 134.995L104.174 137.004L104.576 136.803L105.982 139.214L107.389 141.022L108.795 142.629V143.633L108.192 143.834L101.965 144.236L99.1522 144.637L95.5363 145.843L93.5274 147.048L93.1257 148.454L92.7239 150.865L91.7195 153.276L90.5141 154.883L89.7106 155.887L87.7017 157.092L84.0858 157.293L82.4787 156.691L80.269 154.682L79.2646 152.673L78.8628 151.468V148.454L79.8672 146.044L80.6708 144.838L81.4743 143.834L83.2823 142.629L83.8849 142.428H87.3L89.3088 143.231L90.3133 143.03L91.5186 142.026L92.523 140.62H92.9248L93.3265 139.816L94.7327 138.41L96.1389 136.803L97.9469 134.794L99.3531 133.388L99.7549 133.187Z" fill="#3F1F39"/>
<path d="M98.349 25.1108L99.5544 25.5126L102.367 27.7223L103.974 29.5303L105.581 30.9365L107.389 32.5436V32.9454L108.192 33.3471L111.607 36.7622L113.014 38.3693L117.433 42.7887L119.643 45.6011L121.652 48.6144L124.665 53.6366L126.272 59.4622L126.473 60.8684V64.8861L125.669 69.1047L124.866 72.3189L124.263 74.1269L123.46 75.5331L123.259 74.9304L123.861 72.5198L124.866 69.7074L125.268 67.6985H125.669L125.87 65.6897V61.672L124.665 57.6543L123.661 55.0428L122.254 52.4312L121.25 52.0295L119.442 52.6321L117.634 53.0339H114.621L112.21 53.4357L111.005 54.8419L110 54.4401L109.8 54.0383L109.398 50.8242L108.795 47.8109L107.791 44.9985L106.184 42.1861L104.376 40.1772L102.367 38.3693L99.1526 36.3604L97.1437 35.356L94.5322 34.5525L95.3358 34.3516L98.349 35.356L98.1482 31.5392L98.349 29.7312V27.5215L97.7464 26.7179V25.3117L98.349 25.1108Z" fill="black"/>
<path d="M81.4745 33.5479H88.1037L92.5232 34.1505L96.5409 35.3558L99.7551 36.9629L101.965 38.3691L103.974 40.1771L104.978 41.1815L106.585 42.9895L108.393 46.8063L108.795 48.4134V50.0205L107.59 50.4222L106.987 50.2213L106.183 47.2081L104.576 43.9939L102.768 41.7842L101.563 40.7797L100.358 40.378L98.5498 39.1726L95.5365 37.7664L91.3179 36.5611L88.3046 36.1594H81.2736L79.2648 36.3602L75.0462 37.7664L71.832 39.3735L68.6178 41.3824L65.8055 43.5921L63.3948 45.8019L60.5824 48.6143L58.9753 50.6231L57.9709 51.8284L56.9665 50.824L55.1585 47.8107L53.5514 45.8019L53.1497 44.7974L50.9399 42.1859L48.1275 39.3735L45.3151 37.7664L43.5072 37.3647H41.4983L38.6859 37.7664L35.4718 38.7709L32.6594 40.1771L29.847 42.1859L28.2399 43.793L28.039 44.1948H27.6372L27.2355 44.9983L25.4275 47.8107L24.4231 49.8196L23.2178 53.2346L22.816 56.047V62.4753L23.4186 65.6895L24.624 69.1046L25.4275 70.5108V71.7161L24.2222 71.3143L24.0213 70.7116H23.6195L22.0124 67.0957L21.2089 64.4842L20.8071 62.4753V55.6452L21.4098 52.632L22.6151 49.016L24.624 45.1992L26.6328 42.5877L29.0434 40.1771L32.4585 37.9673L35.8735 36.5611L39.6904 35.5567L41.4983 35.3558H44.3107L46.9222 36.1594L49.9355 38.1682L50.739 38.7709V39.1726L51.5426 39.5744L52.3461 40.5788L53.3506 41.3824L54.7568 42.9895L55.7612 43.9939L57.1674 45.8019V46.2036H57.5691V47.0072L58.5736 46.8063L59.9798 45.1992L62.1895 42.9895H62.5913V42.5877L63.5957 41.7842H63.9975V41.3824L67.6134 38.7709L69.8232 37.3647L74.0417 35.1549L76.8541 34.1505L81.4745 33.5479Z" fill="#3F1F39"/>
<path d="M81.8766 33.146H85.8943L91.72 33.5478L93.7289 34.1504L97.5457 35.3557L100.559 36.9628L102.769 38.5699L104.778 40.3779L106.586 42.3867L108.193 45.4L109.197 48.4133L109.8 51.8283L110.001 54.0381L110.603 54.6407L111.005 54.8416L111.407 54.0381L112.21 53.2345L114.822 52.8328H117.634L121.049 52.0292L121.652 51.8283L122.656 52.6319L124.263 56.0469L125.469 59.462L126.071 61.6717V65.6894L125.67 67.6983H125.469L125.268 62.6761L123.862 61.0691L122.656 60.6673L120.447 60.4664L120.246 60.6673H117.232V61.0691L116.228 61.6717H114.822L112.612 62.2744L110.201 63.2788H108.795L107.59 63.8815L106.385 65.2876L104.376 68.9036L102.97 71.1133L100.961 73.7248L98.9519 75.9346L97.5457 77.5417L94.5324 80.5549L92.9253 81.7602L93.3271 80.9567L94.3315 79.9523L94.1306 78.5461L93.7289 78.1443L94.3315 76.939L95.1351 76.1355V75.9346L92.9253 75.5328L85.4926 74.7293L77.4571 73.5239V73.9257L76.8545 74.1266L77.0554 73.3231L72.6359 72.9213L71.0288 72.7204V72.5195H76.0509L79.0642 72.7204L79.8678 73.1222L84.8899 73.7248L85.4926 73.9257L89.1085 74.1266V73.9257L91.3182 74.1266L94.7333 74.7293H96.3404L98.5501 72.1177L101.362 68.1L103.371 64.4841L104.376 62.4753L105.581 59.2611L106.184 56.4487L106.385 54.4398V50.8239L105.581 47.208L104.175 44.3956L102.769 42.5876L100.961 40.7796L101.563 40.5788L103.572 42.3867L104.978 44.3956L106.385 47.208L106.786 48.4133L107.188 50.2212L108.594 50.0204V48.4133L107.791 45.8018L106.184 42.7885L104.376 40.5788L102.769 39.1726L100.76 37.7664L99.1528 36.7619L95.9386 35.3557L92.5235 34.3513L88.1041 33.7487H81.4748L78.6625 34.1504H77.658L78.4616 33.7487L81.8766 33.146Z" fill="black"/>
<path d="M52.346 108.679H53.3504L53.5513 120.933L54.1539 125.554L55.3592 130.777L56.7654 134.794V135.598H44.3105L44.5114 133.388L45.315 128.567L46.9221 122.339L48.9309 116.313L51.1406 110.688L52.346 108.679Z" fill="black"/>
<path d="M77.4568 73.5239L80.0683 73.7248L90.5144 75.3319L94.7329 76.1354L93.5276 77.5416L90.9161 79.9523L86.8984 82.9655L84.6887 84.7735L81.2736 86.7824L76.0506 89.3939L75.2471 89.5948V85.3762L75.6488 80.5549L76.4524 76.5372L77.4568 73.5239Z" fill="white"/>
<path d="M41.8998 37.7666H43.7078L46.3193 38.5701L49.5335 40.9808L51.7432 43.1905L53.3503 45.1994L55.7609 48.4135L55.3591 49.418H54.5556L52.5467 47.2082L51.1405 45.6011L48.7299 43.1905L46.922 41.9852L45.7166 41.3825L42.5025 40.7799H39.6901L36.0741 41.5834L33.2618 42.7887L30.8511 44.5967L29.0432 46.4047L27.4361 49.0162L25.6281 53.2348L25.0255 56.2481V57.8551L25.829 61.4711L26.4317 62.6764L26.6325 63.6808L27.8378 64.6852L28.4405 65.2879L29.244 65.8905V66.2923L30.0476 66.6941L30.4494 67.4976L30.6502 68.7029L42.1007 68.9038L46.1184 69.1047L50.7388 69.5065V69.7074H25.6281L24.8246 68.5021L23.4184 64.0826L23.0166 61.4711V57.0516L23.6193 53.2348L25.0255 49.418L26.6325 46.6056L28.0387 44.7976L31.052 41.7843L34.2662 39.7755L37.4803 38.5701L40.0919 37.9675L41.8998 37.7666Z" fill="black"/>
<path d="M57.9706 114.706H60.783L64.5998 115.308L67.2113 116.313L68.2158 117.116L68.4166 118.121L68.2158 118.723L68.6175 118.924L68.4166 122.339L67.814 123.946L63.3945 126.156H62.9927V126.558L60.1803 127.562H58.975L58.5733 127.16L56.9662 126.96H56.3635L55.56 123.946L55.1582 121.134V115.308L57.9706 114.706Z" fill="#4AA5A2"/>
<path d="M89.7109 16.272L92.1215 17.0755L94.5321 19.687L95.1348 20.2897V20.6915H95.5366L96.9428 22.2985L97.1437 22.9012L97.9472 23.303V23.7047L98.7507 24.1065L101.362 26.5171L102.768 27.7224L104.175 29.3295L104.376 29.7313L103.572 29.3295L101.965 27.5216L99.3534 25.5127L97.7463 25.3118L97.9472 26.718L98.5499 27.5216V30.5348L98.349 32.5437L98.5499 35.557L95.3357 34.5525L92.7242 34.1508L91.7197 33.749L85.8941 33.3472L84.8896 33.1463V32.9455H89.9118L88.7065 31.5393L90.1127 30.5348L90.3136 29.5304L90.5144 28.3251L89.9118 25.3118L89.1082 23.303L87.9029 20.0888V18.6826L88.9074 17.2764L89.51 16.8746L89.7109 16.272Z" fill="black"/>
<path d="M71.4302 77.3408H72.6355L73.64 78.1444L74.4435 80.1532L74.2426 83.3674L73.8408 90.1975L68.4169 92.0055L65.8054 92.6081L62.1895 92.4072L61.1851 91.6037L61.3859 90.3984L61.9886 88.7913L62.7921 87.7869L64.801 83.97L66.4081 81.5594L68.216 79.5506L70.4258 78.1444L70.8276 77.5417L71.4302 77.3408Z" fill="white"/>
<path d="M21.0081 51.6279L21.209 52.2306L20.6063 54.6412L20.4054 55.8465V62.074L21.0081 65.2881L22.0125 68.5023L23.8205 72.52L25.8293 75.7342L27.6373 77.9439L28.0391 78.1448V78.5466H29.4453L31.0523 79.3501L31.2532 78.7474L33.463 81.359L33.6639 82.5643L32.2577 82.3634L32.6594 83.5687L34.2665 85.3767L36.4763 87.1846L38.686 88.7917L39.6904 89.3944V89.7961L40.6948 89.997L42.5028 91.2023L45.3152 92.6085L44.7126 92.8094L40.0922 90.3988L35.8736 87.5864L34.8692 87.9882L32.2577 88.3899L30.6506 87.1846L29.6461 86.3811L28.8426 86.1802L26.6329 83.9705L23.6196 79.9528L21.8116 77.1404L19.6019 72.9218L18.7983 70.712V69.5067L19.401 70.1094L18.9992 64.6855L19.2001 61.0695L19.401 60.4669L19.8028 56.2483L20.4054 53.235L21.0081 51.6279Z" fill="black"/>
<path d="M38.0833 48.8154L40.4939 49.0163L42.3018 49.8199L44.1098 51.2261L45.516 53.4358L45.9178 54.6411V57.6544L45.1142 59.2615L43.5072 60.6677L42.101 61.2703H39.2886L37.2797 60.4668L35.4717 59.0606L34.2664 57.4535L33.4629 54.4402L33.6638 52.4314L34.6682 50.4225L36.4762 49.2172L38.0833 48.8154Z" fill="black"/>
<path d="M79.2644 51.6279H81.4741L83.4829 52.4315L84.8891 53.8377L85.4918 55.4448V58.2571L84.6883 60.266L83.2821 62.074L81.4741 63.2793L80.2688 63.8819H76.6528L75.0458 63.0784L74.0413 61.8731L73.4387 60.8687L73.2378 60.0651V57.6545L73.6396 56.4492L74.8449 54.0386L76.6528 52.6324L78.4608 51.8288L79.2644 51.6279Z" fill="black"/>
<path d="M55.7614 137.004H57.9711L62.5915 137.406L65.8056 137.807L66.4083 138.008L66.2074 140.419L65.0021 148.253L64.8012 148.856H63.9977V148.454H61.7879L58.5738 148.253L56.5649 147.852L54.1543 147.651L54.3552 145.843L55.1587 140.821L55.3596 138.812L55.7614 137.004Z" fill="white"/>
<path d="M31.4541 70.7119H38.8868L39.0877 71.5155V77.9438L39.6904 82.5641L40.4939 86.5819L40.0921 86.7827L38.8868 85.9792L36.6771 84.1712L35.6727 82.9659L34.0656 81.5597L31.2532 78.5464L28.2399 74.5287L26.6328 71.7163L26.8337 70.9128L31.4541 70.7119Z" fill="white"/>
<path d="M98.349 25.1108L99.5544 25.5126L102.367 27.7223L103.974 29.5303L105.581 30.9365L107.389 32.5436V32.9454L108.192 33.3471L111.607 36.7622V37.164H111.206V36.7622L109.8 36.5613L109.599 37.164L110.402 37.5657L110.804 37.9675V39.1728L109.599 39.5746L109.398 40.1772H108.393H107.791L106.585 39.7755L106.384 40.1772L104.376 39.7755L102.969 38.9719L101.161 37.5657L98.349 35.9586L96.3402 35.1551L94.5322 34.5525L95.3358 34.3516L98.349 35.356L98.1482 31.5392L98.349 29.7312V27.5215L97.7464 26.7179V25.3117L98.349 25.1108Z" fill="black"/>
<path d="M45.717 116.112L45.9178 116.514L44.7125 119.728L43.3063 124.75L42.101 130.174L41.2975 133.991L40.4939 135.196L39.4895 136.401L38.2842 137.004H36.4762L35.07 136.2L33.2621 134.392L31.8559 132.183L31.4541 131.379L31.655 130.776L32.0568 131.58L33.0612 131.781L33.2621 130.776V130.174L34.2665 128.968L36.2753 125.955L37.2798 124.147L39.4895 123.946L40.4939 123.143L43.1055 119.728L45.717 116.112Z" fill="black"/>
<path d="M68.0156 138.812L69.8235 139.013L77.6581 140.419L79.6669 141.022L79.8678 141.624L78.8634 142.629L77.6581 144.236L76.8545 145.843L76.051 148.455L75.8501 150.262L75.0466 150.463L68.0156 149.459L66.8103 149.057L66.6094 148.856L66.8103 146.044L68.0156 138.812Z" fill="#3F1F39"/>
<path d="M51.7434 136.803L53.9532 137.004V139.214L52.9487 145.642L52.547 147.249L52.3461 147.45L44.7124 147.048L44.1098 146.847V148.254H43.9089L43.708 137.607L44.5115 137.205L45.1142 137.004L51.7434 136.803Z" fill="#3F1F39"/>
<path d="M117.031 43.3916L117.835 43.7934L118.236 44.396L119.241 44.9987L120.848 47.4093L122.254 49.619L124.665 53.6368L126.272 59.4624L126.473 60.8686V64.8863L125.669 69.1049L124.866 72.3191L124.263 74.1271L123.459 75.5333L123.258 74.9306L123.861 72.52L124.866 69.7076L125.267 67.6987H125.669L125.87 65.6899V61.6722L124.665 57.6545L123.66 55.043L122.254 52.4314L121.25 52.0297L119.442 52.6323L117.634 53.0341H114.62L112.21 53.4359L111.004 54.8421L110 54.4403L109.799 54.0385L109.397 50.8244L108.996 48.012L110.201 48.2128V47.8111L111.004 47.6102L114.42 48.6146L118.638 48.2128L117.835 46.0031L117.031 43.9943V43.3916Z" fill="black"/>
<path d="M94.331 198.073L95.1345 198.274L96.9425 199.68L98.9514 201.488L100.96 203.698L100.759 204.903L99.7549 205.506L98.9514 206.309L97.5452 206.912L94.7328 207.514H91.5186L89.3089 206.912L88.3044 205.907L88.1035 205.104H87.7018V204.501H87.3L87.0991 203.698L87.5009 202.492H87.9027V202.09H88.7062V201.689L90.1124 200.885L92.523 199.68L94.1301 198.675L94.331 198.073Z" fill="black"/>
<path d="M42.503 29.3296H43.7084L44.1101 29.7314L44.311 31.3384L44.1101 32.3429H43.7084L43.5075 33.1464L42.503 33.7491L42.3022 34.5526L43.5075 34.7535V34.9544L39.2889 35.1553L35.4721 36.1597L32.2579 37.7668L29.4455 39.5747L28.8428 39.7756V40.1774L27.2358 41.5836L25.026 43.9942L23.0172 47.2084L21.8119 49.8199L20.4057 53.8376L19.803 57.8553L19.6021 60.4668L19.4012 61.6721L19.2003 65.6898L19.6021 70.712L18.5977 69.9084L17.995 67.4978L17.5933 63.681V59.4624L18.1959 55.4447L19.6021 51.2261L21.8119 47.0075L23.8207 44.1951L26.4322 41.1818L28.0393 39.5747L29.6464 38.1685L32.2579 35.9588L35.6729 33.3473L36.4765 32.9455L36.0747 33.7491L37.8827 32.5438L39.6906 31.1376L40.6951 30.5349H41.0968V30.1331L42.1013 29.9322V29.5305L42.503 29.3296Z" fill="black"/>
<path d="M105.581 59.2612L105.983 59.663V60.2657L106.987 59.8639L107.791 60.0648L107.59 61.471L106.987 63.4798L105.782 65.4887L104.577 67.6984L102.769 70.7117L99.9563 74.3276L98.1483 76.5374L97.5457 77.5418L94.5324 80.5551L92.9253 81.7604L93.3271 80.9568L94.3315 79.9524L94.1306 78.5462L93.7289 78.1445L94.3315 76.9391L95.135 76.1356V75.9347L92.9253 75.5329L85.4926 74.7294L77.4571 73.5241V73.9259L76.8545 74.1267L77.0554 73.3232L72.6359 72.9214L71.0288 72.7205V72.5197H76.0509L79.0642 72.7205L79.8678 73.1223L84.8899 73.725L85.4926 73.9259L89.1085 74.1267V73.9259L91.3182 74.1267L94.7333 74.7294H96.3404L98.5501 72.1179L101.362 68.1002L103.371 64.4842L104.376 62.4754L105.581 59.2612Z" fill="#3F1F39"/>
<path d="M84.6891 103.255L87.9033 104.26L90.7156 106.068L91.3183 106.67L91.1174 107.474L90.7156 108.278H90.113L89.9121 108.679L87.5015 109.684L85.4926 110.487L83.2829 111.492L81.6758 111.693L77.4572 112.697L76.8546 112.898V113.3L75.6492 114.103L74.8457 114.907L75.2475 113.902L76.8546 111.693L77.6581 110.688L78.0599 109.684L79.4661 108.478L81.274 106.269L83.8855 103.657L84.6891 103.255Z" fill="black"/>
<path d="M70.2249 9.64258H70.6267L70.8276 10.2452L70.6267 10.8479H70.2249V11.2497H69.8231L69.4214 12.0532L68.4169 12.8567L69.4214 13.0576V13.4594L70.2249 13.6603L69.6223 13.8612L70.2249 14.4638L69.6223 14.6647L71.0285 15.2674L71.2293 16.2718L71.6311 16.4727L72.2338 17.4771L73.8408 19.2851L74.6444 19.8877L75.0462 21.2939L75.6488 21.4948L76.2515 24.9099L76.4524 26.7178L76.6532 30.1329L76.2515 32.1417L77.2559 33.5479L77.055 33.9497L78.0594 33.7488L77.6577 34.1506L75.6488 34.7532L74.6444 34.5524L73.2382 33.7488L73.4391 32.7444L74.0417 31.5391L74.4435 28.5258L74.8453 26.3161L74.0417 21.4948L73.0373 21.093L71.4302 18.8833L70.8276 18.0798L69.8231 15.87L67.4125 15.2674L65.4037 15.4683L63.1939 16.0709L62.1895 17.2762L61.5868 17.678L59.1762 18.0798L58.1718 18.6824L57.77 18.4815L63.9975 14.2629L68.0152 11.4505L70.024 9.84346L70.2249 9.64258Z" fill="black"/>
<path d="M25.4272 69.5068H47.1229L55.3592 69.9086L68.8185 71.1139L80.4698 72.5201L88.907 73.7254L89.3088 74.3281L85.492 74.1272L84.8893 73.9263L79.8672 73.3237L78.6619 72.9219L76.0504 72.721L70.6264 72.5201L63.1937 71.7166L57.5689 71.3148V71.9175L57.1671 72.1183L56.5645 76.3369H56.3636V71.3148L50.337 70.913L49.7344 70.7121L44.9131 70.5113H40.2928L39.4892 70.913L39.2883 70.5113H31.2529L26.2308 70.7121L26.0299 71.5157L25.829 70.1095L25.4272 69.9086V69.5068Z" fill="#3F1F39"/>
<path d="M86.8981 203.698L87.2998 204.502H87.7016V205.104H88.1034L88.706 206.31L90.514 207.113L91.5184 207.314H94.7326L97.9468 206.511L99.1521 205.908L100.156 204.904H100.759V203.899L101.764 204.904L102.768 207.113L102.969 208.519L102.567 209.524L102.366 209.725L92.5229 209.926H88.9069L86.8981 209.725L86.4963 209.323L86.2954 208.519V205.506L86.6972 203.899L86.8981 203.698Z" fill="black"/>
<path d="M98.1479 21.6958L98.9514 22.0976L102.366 25.5126L103.974 26.9188L105.782 28.9277L109.799 32.9454L111.406 34.3516L114.42 37.5657L115.826 38.9719L117.232 40.579L119.241 42.7888L122.254 46.8065L124.464 50.2215L126.473 54.4401L127.477 57.8552L127.879 60.4667V63.0782L127.075 67.0959L126.272 69.7074H125.87L126.473 65.6897L126.674 64.0826V60.4667L125.87 57.2525L125.468 56.2481L124.665 52.6321L124.062 52.4313L123.058 50.6233L122.455 49.2171L121.852 48.2127L121.451 48.0118L121.049 47.0074L120.044 45.6012L119.643 45.4003L119.04 44.195L118.437 43.7932L117.835 42.7888L115.826 40.579V40.1773L115.022 39.7755L112.612 36.9631L111.205 35.356L109.598 33.9498L107.589 31.941L107.188 31.7401V31.3383L106.183 30.9365L105.38 29.9321L103.773 28.5259V27.9232L102.969 27.5215L102.166 26.517L101.161 25.5126L100.96 24.91L100.157 24.5082L99.1523 23.7047L98.9514 22.9011L97.947 22.4993L97.7461 21.8967L98.1479 21.6958Z" fill="black"/>
<path d="M91.3176 106.871L92.523 107.876L93.3265 108.88L93.1256 109.683L92.7238 110.286L89.5097 111.893L85.492 113.299L83.684 113.701L80.2689 114.706L76.4521 115.71L75.4477 116.112H74.4433L74.0415 116.313L74.4433 115.509L75.8495 113.701L76.8539 113.299V112.898L77.4566 112.496L81.6751 111.491L83.8849 111.09L86.2955 109.884L88.3044 109.081L90.1123 108.277H90.715L91.1168 107.273L91.3176 106.871Z" fill="black"/>
<path d="M37.8822 51.2256H40.0919L41.8999 52.4309L42.9043 53.6362L43.3061 54.6406V57.0513L42.5025 58.2566L41.2972 58.8592L39.0875 58.6583L37.8822 57.8548L36.476 56.2477L36.0742 55.2433V53.0336L36.6769 51.8282L37.8822 51.2256Z" fill="white"/>
<path d="M21.0081 51.6279L21.209 52.2306L20.6063 54.6412L20.4054 55.8465V62.074L20.8072 65.6899L21.209 67.8996L21.4098 68.7032H21.8116L22.4143 70.1094L23.0169 72.52L23.4187 73.9262V75.9351L23.6196 76.3368L23.4187 77.3413L22.2134 77.1404L21.6107 75.9351V75.3324H21.209L20.6063 74.1271H20.2045L18.9992 71.3147L18.7983 69.5067L19.401 70.1094L18.9992 64.6855L19.2001 61.0695L19.401 60.4669L19.8028 56.2483L20.4054 53.235L21.0081 51.6279Z" fill="black"/>
<path d="M79.2647 54.2393H81.2735L82.4788 55.2437V55.6455H82.8806V57.6543L81.6753 59.6632L79.6664 61.2702L79.2647 61.4711H77.8585L76.2514 60.6676L75.8496 59.6632V57.8552L76.4523 56.6499L77.6576 55.0428L79.2647 54.2393Z" fill="white"/>
<path d="M92.7241 17.8789L93.5277 18.2807L94.733 19.2851L96.1392 20.8922L96.9427 21.294L97.9471 22.2984L98.9516 22.901L99.1525 23.7046L99.956 24.1064L100.96 24.9099L101.764 26.1152L102.768 26.9187L103.773 27.9232L104.375 28.9276L105.581 29.932L106.585 30.9365L107.188 31.3382V31.74L107.991 32.1418L110.804 34.9542L112.21 36.1595L114.018 38.3692L115.424 39.9763L116.429 40.9807L118.437 43.1905V43.7931L119.241 44.1949L119.643 44.7975V45.4002L120.245 45.6011L121.451 47.2082V48.0117L122.053 48.2126L123.058 49.8197L123.66 51.2259L124.263 52.4312L124.665 52.6321L125.468 55.0427L125.87 56.4489L126.674 60.0648L126.875 61.0693V64.0825L126.473 67.4976L126.071 69.7073L125.468 71.7162L124.866 72.9215L124.665 72.3188L125.468 69.1047L126.272 64.8861V60.8684L125.669 57.8551L124.464 53.6365L122.455 50.2214L120.647 47.4091L118.237 43.994L115.424 40.9807L111.607 37.1639L110.201 35.5568L107.791 33.1462L106.183 31.74L104.375 29.932L102.969 28.3249L101.764 26.9187L99.5542 25.1108L97.9471 23.7046L96.5409 22.0975L95.5365 21.0931V20.6913H95.1347V20.2895L94.5321 20.0886L93.1259 18.4816L92.7241 17.8789Z" fill="black"/>
<path d="M22.4145 46.2036H22.8163L22.6154 48.0116L21.611 50.4222L20.4057 53.8373L19.803 57.855L19.6021 60.4665L19.4012 61.6718L19.2003 65.6895L19.6021 70.7116L18.5977 69.9081L17.995 67.4975L17.5933 63.6806V59.462L18.1959 55.4443L19.6021 51.2257L21.8119 47.0072L22.4145 46.2036Z" fill="black"/>
<path d="M73.439 117.518L73.8407 117.719L72.8363 119.728L71.4301 122.741L69.823 125.955L68.8186 128.165L67.6133 130.776L66.408 133.991L66.2071 134.794L66.6089 135.397L71.8319 136.401L74.0416 137.205L74.2425 137.607H72.4345L64.3991 136.401L64.1982 136L66.8098 129.571L67.8142 127.161L69.4213 123.946L71.631 119.728L72.6354 118.121L73.439 117.518Z" fill="black"/>
<path d="M79.6663 0L80.269 0.200885L81.8761 3.41505L83.4832 5.82568L85.492 8.43718L87.9026 11.2496L89.3088 12.6558L90.715 14.2629L93.5274 17.0753L95.1345 18.4815L96.7416 20.0885L98.3487 21.4947L98.1478 21.8965H97.746L97.5451 22.2983L96.9425 21.6956V21.2938L96.1389 21.093L94.7327 19.6868V19.285L93.9292 18.8832L90.9159 16.0708L90.3133 15.6691V15.2673H89.9115V14.8655H89.5097L86.6973 11.6514L85.6929 10.6469L84.8894 9.24073L83.8849 7.63364L82.8805 6.62922L82.6796 6.02656L82.2778 5.82568L81.8761 4.82125H81.4743L81.2734 4.01771H80.8716V3.61594H80.4699L80.0681 2.61151L79.6663 2.20974L78.8628 2.00885L79.4654 0.200885L79.6663 0Z" fill="black"/>
<path d="M29.445 80.9565L30.4494 81.961L32.2574 84.1707L34.4671 85.7778L36.476 87.7866L35.4716 87.5858L34.8689 87.9875L32.2574 88.3893L30.6503 87.184L29.6459 86.3804L28.8423 86.1796L26.8335 84.1707V83.7689L27.4362 83.5681L28.0388 83.7689V82.3627L28.8423 81.961L28.6415 81.5592L29.2441 81.3583L29.445 80.9565Z" fill="black"/>
<path d="M81.8763 33.146H85.894L91.7197 33.5478L93.7285 34.1504L97.5454 35.3557L100.559 36.9628L102.768 38.5699L104.777 40.3779L106.585 42.3867L108.192 45.4L109.197 48.4133L109.398 49.4177V53.0336L107.991 56.0469L107.389 57.2522H106.585V49.8195H106.987L107.188 50.2213L108.594 50.0204V48.4133L107.791 45.8018L106.183 42.7885L104.375 40.5788L102.768 39.1726L100.76 37.7664L99.1524 36.7619L95.9383 35.3557L92.5232 34.3513L88.1038 33.7487H81.4745L78.6621 34.1504H77.6577L78.4613 33.7487L81.8763 33.146Z" fill="#3F1F39"/>
<path d="M22.2133 115.309L23.2177 116.313L25.4275 118.724L27.2354 121.335L30.0478 125.554L30.6505 126.558L30.2487 127.563L29.8469 127.964L30.0478 128.366L28.6416 128.567L26.231 123.947L24.2221 120.532L22.6151 117.317L21.8115 116.112V115.509L22.2133 115.309Z" fill="black"/>
<path d="M41.4985 37.1636H43.5073L45.3153 37.5653L48.1277 39.1724L51.9445 42.9892L53.5516 44.9981L53.3507 45.3999L51.7436 43.5919L50.3374 41.9848L48.5294 40.3777L45.9179 38.5698L43.7082 37.9671H41.9002L38.8869 38.3689L34.6684 39.7751L32.2577 41.1813L30.4498 42.5875L27.6374 45.3999L26.0303 48.0114L24.6241 50.8238L23.6197 54.2388L23.2179 57.0512V62.8769H22.8161L22.6152 62.4751V56.0468L23.2179 52.6317L24.825 48.4132L26.6329 45.6008L27.6374 44.1946H28.0391L28.4409 43.391L30.2489 41.5831L34.0657 39.1724L37.079 37.9671L39.6905 37.3645L41.4985 37.1636Z" fill="black"/>
<path d="M84.6889 103.255L87.903 104.26L88.7066 105.465L88.1039 106.269L86.8986 106.67L85.0906 107.474L81.6756 108.679H80.4703L79.2649 109.483L76.8543 112.496L76.0508 113.099L76.4526 112.094L77.6579 110.688L78.0596 109.684L79.4658 108.478L81.2738 106.269L83.8853 103.657L84.6889 103.255Z" fill="black"/>
<path d="M89.1081 120.732L90.9161 121.335L93.9294 122.942L96.5409 125.353L98.1479 126.759L102.166 130.375L103.572 131.982L106.183 134.594L106.987 135.799L106.183 135.397L104.576 134.192L103.17 132.585L101.362 130.576L98.3488 127.563L96.7417 126.156L93.9294 123.746L91.9205 122.54L89.7108 121.335L90.5143 122.741L91.117 123.545V124.951L89.9116 128.165L87.7019 134.192L86.2957 137.808L85.6931 139.616L83.8851 140.017L83.0815 139.817L85.2913 139.214L87.3001 133.187L89.1081 127.964L89.5099 124.549L89.7108 124.348V123.143L89.1081 121.737V120.732Z" fill="black"/>
<path d="M77.4568 73.5239L80.0683 73.7248L82.2781 74.1266V74.5284L79.4657 75.5328L78.0595 76.939L76.8542 81.3585L76.2515 84.3717L76.0506 87.1841L76.2515 87.9877L77.6577 88.1886V88.5903L75.448 89.5948H75.2471V85.3762L75.6488 80.5549L76.4524 76.5372L77.4568 73.5239Z" fill="white"/>
<path d="M34.0654 123.143H34.2663L34.6681 124.951L34.869 125.353L36.8778 124.348H37.2796L36.8778 125.152L35.6725 127.161L34.0654 129.571H33.6637L33.2619 130.576L33.4628 130.978L33.061 131.781L32.4584 131.982V131.58H32.0566L31.4539 130.777L31.253 128.567V127.964H30.6504L31.0522 126.759L32.8601 124.951L34.0654 123.143Z" fill="black"/>
<path d="M65.8056 140.419H66.0065L65.8056 142.83L65.0021 148.253L64.8012 148.856H63.9976V148.454H61.7879L58.5737 148.253V148.053L60.9844 147.852L61.1852 146.646L62.5914 143.834L64.1985 141.624L64.8012 141.022L65.6047 140.821L65.8056 140.419Z" fill="white"/>
<path d="M58.7742 202.09L59.9795 202.492L60.3813 203.497L60.5822 203.697L60.3813 205.104L59.7786 205.706L58.5733 206.309L56.1627 206.51L54.3547 206.108L53.5512 205.706H52.145L50.7388 206.711L51.1405 205.907L53.3503 204.3L56.1627 202.894L58.7742 202.09Z" fill="black"/>
<path d="M93.5273 109.684L94.3309 110.085L96.3397 112.697L98.5495 115.308L100.759 118.121L103.371 121.335L107.388 126.357L109.598 129.37L109.196 129.772L108.192 129.169L105.982 126.156L103.572 123.545L101.965 121.536L100.357 119.326V118.924H99.9557L98.1477 116.715L96.7415 115.107L95.1344 113.099L94.13 111.492V111.09H93.7282L93.5273 109.684Z" fill="black"/>
<path d="M52.7476 116.313H52.9484L53.1493 117.317L53.3502 120.732L53.5511 120.933L54.1537 125.554L55.3591 130.777L56.5644 134.192V135.397L46.9219 135.196L47.3236 134.794L49.9352 134.393H55.3591L55.5599 133.79L54.3546 131.179L53.752 128.969L53.1493 125.955L52.5467 121.737L52.3458 117.719L52.7476 116.313Z" fill="black"/>
<path d="M88.104 74.9307L90.7155 75.1315L93.9297 75.5333L95.3359 75.9351L94.7332 76.9395L94.3314 77.1404L93.9297 78.1448L94.5323 79.1493L94.3314 80.1537L92.5235 82.1625L90.9164 83.5687L90.5146 82.9661H89.3093L88.7067 82.5643L89.1084 81.7608L90.5146 79.9528L92.7244 78.1448L94.5323 76.3369L92.7244 75.9351L88.104 75.1315V74.9307Z" fill="black"/>
<path d="M99.1521 137.205H100.157L99.5539 138.41L97.3442 140.821L94.13 143.834L92.5229 145.24L91.5185 145.642L90.3132 144.839L90.1123 144.236L91.7194 143.031L94.5318 141.223L97.5451 138.611L98.3486 138.21V137.808H98.7504V137.406L99.1521 137.205Z" fill="black"/>
<path d="M33.4628 81.3584L38.2841 86.1796L38.0832 86.5814L35.4717 84.9743L34.869 85.577L35.6726 85.9788L37.6814 87.7867L39.2885 88.5903V88.992L40.0921 89.1929L42.9044 91.0009L46.1186 92.608L49.1319 93.8133L52.9487 95.2195V95.4204L51.3416 95.2195L49.9354 94.8177L46.1186 93.4115V93.0097L45.1142 92.608L41.9 91.0009L40.2929 89.9965L39.6903 89.7956V89.3938L38.6859 88.992L36.4761 87.385L33.8646 85.1752L32.2575 83.1664L32.0566 82.3628L33.0611 82.1619L33.4628 82.3628V81.3584Z" fill="black"/>
<path d="M37.2798 124.147H37.6815L36.878 126.96L35.8736 130.174L34.4674 134.192H34.0656L34.2665 134.995L33.463 134.593L32.0568 132.585L31.4541 131.379L31.655 130.777L32.0568 131.58L33.0612 131.781L33.2621 130.777V130.174L34.2665 128.969L36.2753 125.955L37.2798 124.147Z" fill="black"/>
<path d="M39.2883 34.9541H43.9086L45.7166 35.3559L48.1272 36.3603V36.7621L49.1317 36.963L50.1361 37.9674L51.7432 39.3736L53.9529 41.5833L54.9573 42.7886L54.7565 43.1904L52.3458 40.7798L51.1405 39.3736L50.7387 39.1727V38.7709L49.9352 38.3692L46.9219 36.3603L44.3104 35.5568H41.498L38.6856 35.9585L34.6679 37.1638L31.4538 38.7709L28.8422 40.5789L26.4316 42.9895L24.8245 45.1993L24.021 45.601L24.4228 44.5966L26.6325 41.9851L28.4405 40.1771H28.8422V39.7753L31.8555 37.7665L34.8688 36.1594L38.2839 35.155L39.2883 34.9541Z" fill="black"/>
<path d="M50.9399 112.295H51.3417L50.9399 114.706L49.132 118.924L47.7258 123.143L46.1187 128.968L45.3151 132.383H45.1143V129.571L46.9222 122.339L48.9311 116.313L50.3373 112.697L50.9399 112.295Z" fill="black"/>
<path d="M84.2867 143.834H85.8938L86.8982 144.638L87.0991 146.445L86.4964 147.45L84.6885 148.053L83.2823 147.852L82.2778 146.847V145.441L83.2823 144.236L84.2867 143.834Z" fill="black"/>
<path d="M41.0967 31.1372L42.302 31.3381L42.5028 32.7443L41.6993 34.3514L43.5073 34.7531V34.954L39.2887 35.1549L35.4719 36.1593L33.2621 37.1638L32.8604 36.9629L34.4674 35.9585L37.2798 34.954V34.1505H37.6816L38.0834 32.9452L40.0922 31.7399L41.0967 31.1372Z" fill="black"/>
<path d="M46.1187 33.146H48.1276L49.3329 33.7487L50.1364 35.1548V37.1637L49.5338 37.3646L48.1276 36.7619L47.9267 36.3602L45.1143 35.3557V34.954L44.1099 34.7531V34.1504L46.1187 33.146Z" fill="black"/>
<path d="M44.1099 147.852H46.9223L56.9665 148.655L66.4081 149.86L73.2382 150.865L76.4524 151.668L77.4568 154.28L78.863 156.49L80.2692 157.695L82.2781 158.699L84.086 159.302V159.704H82.8807L80.8719 158.9L79.0639 157.494L77.8586 156.088L76.4524 153.275L76.0506 151.869L68.417 150.664L61.386 149.66L54.1541 148.856L44.1099 148.253V147.852Z" fill="black"/>
<path d="M83.2823 87.9883H83.8849V88.3901L78.0593 91.4033L72.8362 93.4122L71.2292 94.0148H69.6221L70.4256 93.4122L73.6398 92.006H74.0415V91.6042L77.6575 90.198L79.4655 89.3945L82.077 88.1892L83.2823 87.9883Z" fill="black"/>
<path d="M81.8763 33.146H85.894L91.7197 33.5478L93.7285 34.1504L97.5454 35.3557L100.559 36.9628L102.768 38.5699L104.777 40.3779L106.585 42.3867L108.192 45.4L108.795 47.0071L108.594 47.8106L107.59 45.4L106.183 42.7885L104.375 40.5788L102.768 39.1726L100.76 37.7664L99.1524 36.7619L95.9383 35.3557L92.5232 34.3513L88.1038 33.7487H81.4745L78.6621 34.1504H77.6577L78.4613 33.7487L81.8763 33.146Z" fill="black"/>
<path d="M20.0035 53.8374H20.2044L20.0035 56.248L19.6017 60.4666L19.4008 61.6719L19.1999 65.6896L19.6017 70.7118L18.5973 69.9082L17.9946 67.4976V65.4888L18.1955 65.087H18.5973L18.3964 63.6808V62.2746L18.5973 60.4666L18.9991 57.6542L19.8026 54.4401L20.0035 53.8374Z" fill="black"/>
<path d="M30.4498 41.9849L30.8515 42.1857L27.6374 45.3999L26.0303 48.0114L24.6241 50.8238L23.6197 54.2389L23.2179 57.0513V62.8769H22.8161L22.6152 62.4752V56.0468L23.2179 52.6318L24.825 48.4132L26.6329 45.6008L29.6462 42.7884L30.4498 41.9849Z" fill="black"/>
<path d="M54.7564 102.854H54.9573L54.7564 105.063L54.1538 107.474L53.752 112.496L53.5511 120.933H53.3502L53.1494 108.88L52.3458 108.679L51.944 109.483L51.7432 109.081L52.7476 106.269L53.5511 104.661L54.1538 103.255L54.7564 102.854Z" fill="black"/>
<path d="M89.1079 120.732L90.9159 121.335L93.9292 122.942L96.5407 125.353L98.1478 126.759L102.165 130.375L103.572 131.982L106.183 134.594L106.987 135.799L106.183 135.397L104.576 134.192L103.17 132.585L101.362 130.576L98.3486 127.563L96.7416 126.156L93.9292 123.746L91.9203 122.54L89.7106 121.335L89.5097 122.139L89.1079 121.737V120.732Z" fill="black"/>
<path d="M6.3435 96.2241H8.35235L8.95501 97.2285V98.6347L8.15146 99.6392L6.3435 99.8401L5.33907 99.0365L5.13818 97.6303L5.74084 96.6259L6.3435 96.2241Z" fill="black"/>
<path d="M71.0288 72.5195H76.0509L79.0642 72.7204L79.8678 73.1222L84.8899 73.7248L85.8943 74.1266L89.3094 74.5284L89.5103 74.9302H86.8988L77.4571 73.524V73.9257L76.8545 74.1266L77.0554 73.3231L72.6359 72.9213L71.0288 72.7204V72.5195Z" fill="black"/>
<path d="M19.8028 56.248H20.0037V64.2835L20.6063 66.6941L20.4054 67.8994L19.8028 68.7029L20.0037 70.5109L20.2045 72.118H19.8028L19.6019 72.9215L18.7983 70.7118V69.5065L19.401 70.1091L18.9992 64.6852L19.2001 61.0693L19.401 60.4666L19.8028 56.248Z" fill="black"/>
<path d="M39.6902 40.5791H42.5026L45.7167 41.1818L47.9265 42.3871L50.3371 44.5968L51.7433 46.003L51.5424 46.4048L50.538 45.6012V45.1995H50.1362L49.3327 44.195L46.5203 42.1862L44.9132 41.5835L41.2973 41.1818L37.6813 41.5835L35.0698 42.3871L32.6592 43.5924L30.8512 44.9986L29.8468 46.2039L29.2441 46.003L31.253 43.9942L34.0654 42.1862L36.6769 41.1818L39.6902 40.5791Z" fill="black"/>
<path d="M57.77 165.931L58.5736 166.333L61.1851 168.141L63.1939 169.547V169.949H62.7922L62.5913 171.556V172.761L61.5868 171.757L60.1806 169.547L59.1762 168.342L58.3727 167.538L57.77 165.931Z" fill="black"/>
<path d="M7.34804 95.6216H10.3613V95.8225L8.95512 96.0234L9.75866 97.2287V98.8357L8.75424 100.041L7.74981 100.644H6.34361L4.93742 99.8402L4.53564 99.0366V97.4296L5.1383 96.4251L7.34804 95.6216ZM6.34361 96.2242L5.33919 97.2287L5.1383 98.0322L5.54007 99.2375L6.34361 99.8402L8.15158 99.6393L8.95512 98.6349V97.2287L8.35247 96.2242H6.34361Z" fill="black"/>
<path d="M122.254 49.8198L123.057 50.2216L124.263 52.4313L124.665 52.6322L125.468 55.0428L125.87 56.449L126.673 60.065L126.874 61.0694V64.0827L126.472 67.4977L126.071 69.7075L125.468 71.7163L124.865 72.9216L124.665 72.319L125.468 69.1048L126.272 64.8862V60.8685L125.669 57.8552L124.464 53.6366L122.455 50.2216L122.254 49.8198Z" fill="black"/>
<path d="M46.9225 121.335H47.3242L46.5207 124.549L45.3154 129.571L44.311 135.598L46.1189 135.397H54.9579V135.598L43.9092 136L44.1101 132.384L44.9136 128.969L45.918 124.549L46.9225 121.335Z" fill="black"/>
<path d="M58.9751 168.141L59.9795 169.146L61.1848 170.753L62.3901 172.561L62.7919 172.761L62.9928 173.565V177.583H62.591V176.578H62.1893L61.5866 175.373L60.7831 172.159L59.9795 169.949L58.9751 168.543V168.141Z" fill="black"/>
<path d="M36.878 124.348H37.2798L36.878 125.152L35.6727 127.161L34.0656 129.571H33.6638L33.2621 130.576L33.463 130.977L33.0612 131.781L32.4585 131.982V131.58H32.0568L31.4541 130.776V129.973L32.6594 129.169L34.4674 127.361L36.0745 125.152V124.75L36.878 124.348Z" fill="black"/>
<path d="M84.6889 103.255L86.4968 103.858V104.059L84.6889 104.26L82.68 106.068L81.2738 107.675L79.2649 109.483L76.8543 112.496L76.0508 113.099L76.4526 112.094L77.6579 110.688L78.0596 109.684L79.4658 108.478L81.2738 106.269L83.8853 103.657L84.6889 103.255Z" fill="black"/>
<path d="M125.468 55.0425L125.87 55.6451L127.075 59.6628L127.678 60.8682L127.879 63.0779L127.075 67.0956L126.272 69.7071H125.87L126.473 65.6894L126.674 64.0823V60.4664L125.87 57.2522L125.468 56.2478V55.0425Z" fill="black"/>
<path d="M92.7241 17.8789L93.5277 18.2807L94.733 19.2851L96.1392 20.8922L96.9427 21.294L97.9471 22.2984L98.9516 22.901L99.1525 23.7046L99.956 24.1064L100.96 24.9099L101.764 26.1152L102.768 26.9187L102.969 27.5214L102.166 27.3205L99.1525 24.709L97.9471 23.7046L96.5409 22.0975L95.5365 21.0931V20.6913H95.1347V20.2895L94.5321 20.0886L93.1259 18.4816L92.7241 17.8789Z" fill="black"/>
<path d="M39.2883 34.9541H41.498V35.155L38.4847 35.5568L34.6679 36.7621L33.0608 37.5656L32.4582 38.1683L29.6458 39.9762L27.6369 41.7842L25.829 43.7931L24.8245 45.1993L24.021 45.601L24.4228 44.5966L26.6325 41.9851L28.4405 40.1771H28.8422V39.7753L31.8555 37.7665L34.8688 36.1594L38.2839 35.155L39.2883 34.9541Z" fill="black"/>
<path d="M82.8807 35.5566H87.9028L91.9205 36.1593L95.9382 37.3646L99.1524 38.9717L100.96 40.177V40.5788L100.157 40.177L98.148 38.9717L95.5364 37.7664L91.3179 36.5611L88.3046 36.1593H79.6665V35.9584L82.8807 35.5566Z" fill="black"/>
<path d="M20.606 64.6851L21.0077 65.2877L22.0122 68.5019L23.8201 72.5196L25.829 75.7338L27.6369 77.9435L28.0387 78.1444V78.5461H29.4449L31.052 79.3497L31.2529 78.747L31.6547 79.9523L30.6502 79.7515L29.244 79.3497L28.4405 79.5506L27.0343 78.1444V77.7426H26.6325L25.2263 75.5329L23.8201 73.524L22.4139 70.7116L21.8113 69.3054V68.7028H21.4095L21.0077 67.8992L20.606 65.6895V64.6851Z" fill="black"/>
<path d="M52.3459 108.679H53.3504V120.732H53.1495L52.9486 112.697L52.7477 112.295H52.1451L51.7433 111.692V111.09L51.1406 111.291L51.3415 110.286L52.3459 108.679Z" fill="black"/>
<path d="M95.1348 76.1357L96.1393 76.3366L96.7419 76.9393L96.541 77.9437L95.9384 78.5464L95.5366 79.5508L93.126 81.7605V81.1579L94.3313 79.9526L94.1304 78.5464L93.7286 78.1446L94.3313 76.9393L95.1348 76.1357Z" fill="black"/>
<path d="M25.4272 69.5068L31.052 69.7077V69.9086L44.7122 70.1095V70.3104L40.2928 70.5113L39.4892 70.913L39.2883 70.5113H31.2529L26.2308 70.7121L26.0299 71.5157L25.829 70.1095L25.4272 69.9086V69.5068Z" fill="black"/>
<path d="M45.3152 117.518L45.5161 118.322L44.1099 122.942L42.7037 128.969L41.9002 133.589L41.2975 134.794L41.0966 135.397L40.0922 136L39.6904 135.799L40.8957 134.392L41.4984 132.384L42.7037 126.357L44.3108 120.33L45.3152 117.518Z" fill="black"/>
<path d="M89.1082 73.9258L91.3179 74.1267L96.1392 74.9302L95.1348 75.9346L92.925 75.5329L89.51 75.1311L89.3091 74.7293L85.894 74.3276V74.1267H89.1082V73.9258Z" fill="black"/>
<path d="M96.5408 140.218L96.7417 140.62L95.3355 142.227L93.1258 144.235L91.9204 145.039L91.1169 144.838L90.916 144.035L92.9249 142.628L94.7328 141.423L96.5408 140.218Z" fill="black"/>
<path d="M38.0833 48.8154H39.2886V49.0163L36.6771 49.619L35.4717 50.4225L34.4673 51.6278L34.0655 52.8331V54.842L34.8691 57.2526L36.2753 59.0606L38.0833 60.2659L39.6903 60.8686H42.7036L42.101 61.2703H39.2886L37.2797 60.4668L35.4717 59.0606L34.2664 57.4535L33.4629 54.4402L33.6638 52.4314L34.6682 50.4225L36.4762 49.2172L38.0833 48.8154Z" fill="black"/>
<path d="M84.0857 144.637H85.8937L86.0945 144.838L85.8937 146.646L84.8892 147.249L83.483 147.048L82.8804 146.646V145.642L84.0857 144.637Z" fill="black"/>
<path d="M38.4849 88.3896L39.2884 88.5905V88.9923L40.0919 89.1932L42.9043 91.0012L46.1185 92.6082L49.1318 93.8136L52.9486 95.2197V95.4206L51.3415 95.2197L49.9353 94.818L46.1185 93.4118V93.01L45.1141 92.6082L41.8999 91.0012L40.2928 89.9967L39.6902 89.7958V89.3941L38.6857 88.9923L38.4849 88.3896Z" fill="black"/>
<path d="M77.2557 90.8003H78.0593V91.4029L72.8362 93.4118L71.2292 94.0145H69.6221L70.4256 93.4118L74.6442 91.6038L77.2557 90.8003Z" fill="black"/>
<path d="M31.0521 69.5068H47.1229V69.7077L38.8866 69.9086V70.1095H29.2441V69.9086H31.0521V69.5068Z" fill="black"/>
<path d="M89.1081 127.964L89.309 128.768L89.1081 130.375L87.7019 134.192L86.2957 137.808L85.6931 139.616L83.8851 140.017L83.0815 139.817L85.2913 139.214L87.3001 133.187L89.1081 127.964Z" fill="black"/>
<path d="M22.4141 46.2036H22.8158L22.615 48.0116H22.0123L21.4096 49.8195L20.4052 52.2302L19.6017 53.6364L19.4008 53.0337L18.999 53.2346L19.6017 51.2257L21.8114 47.0072L22.4141 46.2036Z" fill="black"/>
<path d="M79.064 72.5195L81.8764 72.7204L88.9073 73.7248L89.3091 74.3275L85.4923 74.1266L84.8896 73.9257L79.8675 73.3231L79.064 72.9213V72.5195Z" fill="black"/>
<path d="M70.6263 86.9834H72.0325L72.2334 88.3896L71.6308 89.394L69.8228 89.7958H69.2201L68.8184 88.7914L69.421 88.3896H70.0237L70.2246 87.5861L70.6263 86.9834Z" fill="white"/>
<path d="M38.4849 70.7119H38.8866L39.0875 71.5155V77.9438L39.6902 82.5641L40.4937 86.5819L40.0919 86.7827L38.8866 85.9792H39.4893L39.8911 86.1801L38.8866 80.9571L38.4849 77.1402V70.7119Z" fill="black"/>
<path d="M100.96 40.5791L101.764 40.78L103.571 42.3871L104.978 44.3959L106.384 47.2083L106.786 48.4136V49.8198L106.183 49.6189L105.379 46.6057L104.174 44.3959L102.768 42.588L100.96 40.78V40.5791Z" fill="black"/>
<path d="M26.8335 123.143L27.8379 123.545L29.2441 125.353L29.8468 126.558L30.2485 126.759L29.8468 127.563L29.445 127.964H28.8423V126.759H28.4406V126.357H28.0388L26.8335 123.746V123.143Z" fill="black"/>
<path d="M74.6445 151.869H76.0507L76.6534 152.472L77.4569 154.682L78.8631 156.891L80.2693 158.097L82.2782 159.101L84.0861 159.704V160.105H82.8808L80.872 159.302L79.064 157.896L77.8587 156.49L76.4525 153.677L76.0507 152.271L74.6445 152.07V151.869Z" fill="black"/>
<path d="M54.7569 142.428H54.9578L54.7569 144.637L54.1542 147.651H56.5648L58.5737 148.053L63.9976 148.454V148.655H60.7834L57.5693 148.454L56.9666 148.253L54.1542 148.053L53.7524 147.852V146.245L54.3551 143.432L54.7569 142.428Z" fill="black"/>
<path d="M28.4407 123.946H29.0433L30.6504 126.558L30.2486 127.562L29.8469 127.964L30.0477 128.366L28.6415 128.567L27.2354 125.955V124.75L27.6371 124.951L28.0389 125.754V126.357H28.4407V126.759H28.8424V127.964L29.8469 127.361L30.2486 126.759L29.4451 126.357L28.6415 124.75L28.4407 123.946Z" fill="black"/>
<path d="M53.5511 106.469H53.752L53.5511 120.933H53.3502L53.1494 108.88L52.3458 108.679L51.944 109.483L51.7432 109.081L52.1449 107.675L53.1494 107.273L53.5511 106.469Z" fill="black"/>
<path d="M34.467 38.9722L35.6723 39.1731L35.2706 39.5748L32.8599 40.7801L31.052 41.9854L30.0475 42.5881L27.8378 44.7978L27.436 44.597L27.6369 44.1952H28.0387L28.4405 43.3916L30.2484 41.5837L34.0653 39.1731L34.467 38.9722Z" fill="black"/>
<path d="M115.826 41.1816L116.63 41.5834L118.438 43.1905V43.7931L119.241 44.1949L119.643 44.7976V45.4002L120.246 45.6011L121.451 47.2082V48.0117L122.054 48.2126L123.058 49.8197L122.857 50.2215L121.853 49.2171L119.844 46.2038L118.036 43.7931L115.826 41.3825V41.1816Z" fill="black"/>
<path d="M72.4346 137.607L74.4434 137.808L76.2514 138.21L76.4523 138.812L78.4611 139.013L81.6753 139.817L83.0815 140.018V140.218H81.4744L75.6487 139.013L73.2381 138.611L72.4346 138.009V137.607Z" fill="black"/>
<path d="M22.2133 115.309L23.2177 116.313L25.4275 118.724L25.2266 119.125L24.2221 118.523V119.527L25.0257 121.134L24.8248 121.536L22.816 117.719L21.8115 116.112V115.509L22.2133 115.309Z" fill="black"/>
<path d="M28.0389 40.1772L28.4406 40.3781L26.03 42.7888L24.222 45.1994L22.8158 47.61L22.4141 46.8065L22.8158 46.6056L22.6149 45.802L24.0211 43.9941L24.8247 42.9896L26.6327 41.5834L28.0389 40.1772Z" fill="black"/>
<path d="M34.2661 85.5771L35.0697 85.9789L37.4803 87.9878L39.69 89.394V89.7957L40.6944 89.9966L42.5024 91.2019L45.3148 92.6081L44.7122 92.809L40.0918 90.3984L36.4759 87.9878L35.4714 86.9833L34.467 86.1798L34.2661 85.5771Z" fill="black"/>
<path d="M42.5025 28.5259V29.1285L42.1008 29.9321L41.0964 30.133V30.5347L39.891 31.1374L38.4848 32.3427L37.4804 33.1462L36.476 33.7489H36.0742L36.476 32.7445L40.0919 30.133L42.5025 28.5259Z" fill="black"/>
<path d="M81.8763 33.146H85.894L91.7197 33.5478L92.5232 33.7487V34.1504L90.1126 33.9495L88.1038 33.7487H81.4745L78.6621 34.1504H77.6577L78.4613 33.7487L81.8763 33.146Z" fill="black"/>
<path d="M31.2533 70.3101H38.8869V70.7118L31.4541 70.9127H27.0347V70.5109L31.2533 70.3101Z" fill="black"/>
<path d="M23.2179 53.2349H23.4188V55.2437L23.2179 57.0517V62.8774H22.8161L22.6152 62.4756V56.0473L23.017 53.4357L23.2179 53.2349Z" fill="black"/>
<path d="M7.34792 95.6216H10.3612V95.8225L8.955 96.0234L9.75855 97.2287V98.8357L9.35678 99.2375L9.15589 98.8357L8.75412 99.0366V97.2287L8.35235 96.4251H6.3435L5.74084 96.626L5.53995 97.2287L5.13818 96.4251L7.34792 95.6216Z" fill="black"/>
<path d="M71.0288 72.5195H76.0509L77.2563 72.9213L79.2651 73.3231L81.274 73.524V73.9257L78.6625 73.7248L77.4571 73.524V73.9257L76.8545 74.1266L77.0554 73.3231L72.6359 72.9213L71.0288 72.7204V72.5195Z" fill="black"/>
<path d="M73.0373 92.0059L73.64 92.2067L70.0241 93.8138L70.4258 94.2156L68.2161 94.8183H66.0063L66.8099 94.2156L72.0329 92.4076L73.0373 92.0059Z" fill="black"/>
<path d="M38.8867 72.5195H39.0876L39.2885 77.5417L40.092 83.3673L40.8956 86.3806L40.6947 87.1842L39.8911 86.7824L40.2929 86.5815L39.4894 82.5638L38.8867 77.9434V72.5195Z" fill="black"/>
<path d="M26.6327 70.5112H27.0345L26.8336 71.7165L28.0389 73.9263L30.8513 77.7431L32.2575 79.3502L31.6549 79.5511L30.0478 77.5422V77.1404H29.646V76.5378L29.0434 76.3369V75.7342H28.6416L27.0345 73.1227L26.231 71.7165V70.7121L26.6327 70.5112Z" fill="black"/>
<path d="M95.5362 141.825L95.938 142.026L94.13 143.834L92.5229 145.24L91.5185 145.642L90.3132 144.838L90.1123 144.236L91.7194 143.031L92.5229 142.83L91.7194 143.633L91.1167 144.035L91.3176 144.838L92.322 144.638L95.3353 142.026L95.5362 141.825Z" fill="black"/>
<path d="M46.3197 38.1685L48.3286 39.3738L51.9445 42.9897L53.5516 44.9986L53.3507 45.4003L51.7436 43.5924L50.3374 41.9853L48.5295 40.3782L45.918 38.5702L46.3197 38.1685Z" fill="black"/>
<path d="M56.3633 71.1138H60.1801L61.1845 71.3147V71.5155L57.5686 71.3147V71.9173L57.1668 72.1182L56.5642 76.3368H56.3633V71.1138Z" fill="black"/>
<path d="M97.3444 74.5288L97.5453 74.9306L98.1479 74.7297V75.1315L98.5497 75.3323L97.7462 76.7385L97.1435 77.3412L96.7417 78.3456L95.7373 79.1492L95.9382 78.3456L96.5408 77.5421L96.9426 75.5332V74.7297L97.3444 74.5288Z" fill="black"/>
<path d="M47.5244 36.1592L48.1271 36.3601V36.7618L49.1315 36.9627L50.1359 37.9671L51.743 39.3733L53.9527 41.5831L54.9572 42.7884L54.7563 43.1902L52.3457 40.7795L51.1404 39.3733L50.7386 39.1725V38.7707L49.935 38.3689L47.9262 36.9627L47.5244 36.1592Z" fill="black"/>
<path d="M25.4272 120.531L26.2308 120.933L28.0388 123.344L27.8379 123.745L26.8334 123.143L27.0343 124.348L26.4317 123.545L25.4272 121.536V120.531Z" fill="black"/>
<path d="M37.8825 34.7534H43.5073V34.9543L39.2887 35.1552L35.4719 36.1596L33.2621 37.164L32.8604 36.9632L34.4674 35.9587L37.8825 34.7534Z" fill="black"/>
<path d="M38.0833 48.8154H39.2886V49.0163L36.6771 49.619L35.4717 50.4225L34.4673 51.6278L34.0655 52.8331V54.842L34.2664 56.2482H33.8647L33.4629 54.4402L33.6638 52.4314L34.6682 50.4225L36.4762 49.2172L38.0833 48.8154Z" fill="black"/>
<path d="M30.4496 41.9849L30.8514 42.1857L27.6372 45.3999L26.4319 47.2079L25.8292 47.8105L25.6283 48.2123H25.2266L25.6283 47.007L27.0345 45.199L29.4452 42.9893L30.4496 41.9849Z" fill="black"/>
<path d="M53.9531 95.4204L62.7921 95.6213V95.8222L60.9841 96.0231H55.1584L53.9531 95.8222V95.4204Z" fill="black"/>
<path d="M35.2709 84.7739L37.0789 85.7784L38.0833 86.7828L38.2842 87.1845L37.0789 87.3854L35.4718 85.9792L34.8691 85.5775L35.2709 84.7739Z" fill="black"/>
<path d="M107.991 33.146L108.795 33.5478L111.808 36.561L113.214 38.1681L114.42 39.1726L115.826 40.7796L115.625 41.1814L111.607 37.1637L110.201 35.5566L107.991 33.3469V33.146Z" fill="black"/>
<path d="M89.1079 120.732L90.9159 121.335L93.9292 122.942L94.9336 124.147H94.3309L92.7238 122.942L89.7106 121.335L89.5097 122.139L89.1079 121.737V120.732Z" fill="black"/>
<path d="M33.6638 129.571H34.0656L33.8647 130.777L33.0612 132.384V133.388V133.991L31.8559 132.183L31.4541 131.379L31.655 130.777L32.0568 131.58L33.0612 131.781L33.2621 130.777V130.174L33.6638 129.571Z" fill="black"/>
<path d="M124.865 70.5112H125.066L124.865 72.3192L124.263 74.1272L123.459 75.5334L123.258 74.9307L123.861 72.5201L124.664 70.7121L124.865 70.5112Z" fill="black"/>
<path d="M46.1187 93.2109H47.5248L51.9443 94.818L52.9488 95.2198V95.4207L51.3417 95.2198L49.9355 94.818L46.1187 93.4118V93.2109Z" fill="black"/>
<path d="M87.3001 134.191L87.501 134.593L86.2957 137.807L85.6931 139.615L83.8851 140.017L83.0815 139.816L85.2913 139.214L86.8984 134.392L87.3001 134.191Z" fill="black"/>
<path d="M125.87 61.27H126.272V66.2922L125.468 69.7072L124.865 70.7116L124.665 70.3099L125.267 67.6983H125.669L125.87 65.6895V61.27Z" fill="black"/>
<path d="M89.51 122.138L90.1126 122.942L90.7153 123.946L90.5144 124.951L89.51 127.964H89.3091L89.51 124.549L89.7109 124.348V123.143L89.51 122.138Z" fill="black"/>
<path d="M88.104 74.9307L90.7155 75.1315L93.9297 75.5333L95.3359 75.9351L94.7332 76.9395L93.9297 77.5422L93.5279 77.3413L94.5323 76.3369L92.7244 75.9351L88.104 75.1315V74.9307Z" fill="black"/>
<path d="M59.1763 167.539L60.1807 167.94L61.9887 169.547L62.3904 169.748V171.355L61.386 170.351L59.9798 168.744L59.1763 167.539Z" fill="black"/>
<path d="M77.2555 90.8003H78.059V91.4029L75.6484 92.4074H74.2422L75.2466 91.4029L77.2555 90.8003Z" fill="black"/>
<path d="M92.7241 17.8789L93.5277 18.2807L94.733 19.2851L96.1392 20.8922L98.148 23.1019L98.3489 23.7046H97.9471L96.5409 22.0975L95.5365 21.0931V20.6913H95.1347V20.2895L94.5321 20.0886L93.1259 18.4816L92.7241 17.8789Z" fill="black"/>
<path d="M62.9927 142.629L63.1935 143.432L61.9882 145.24L61.1847 147.048L60.9838 148.053H60.582L60.7829 146.446L62.1891 143.633L62.9927 142.629Z" fill="white"/>
<path d="M63.9971 44.9985H64.3989L64.198 46.003L63.1935 46.4047L62.9927 47.0074L61.5865 48.0118L60.582 49.0162V48.4136L63.9971 44.9985Z" fill="black"/>
<path d="M34.4672 38.9722L35.6725 39.1731L35.2707 39.5748L32.8601 40.7801L32.0566 41.3828L31.6548 41.1819L32.6592 39.9766L34.4672 38.9722Z" fill="black"/>
<path d="M39.6905 124.549L40.0923 124.75L40.4941 126.96L40.2932 127.763H39.8914L39.4897 126.96H39.8914L39.6905 125.956H39.2888L39.0879 124.75L39.6905 124.549Z" fill="black"/>
<path d="M89.1082 73.9258L91.3179 74.1267V74.5284L92.1215 74.7293L91.7197 74.9302L90.9162 74.7293H89.3091L85.894 74.3276V74.1267H89.1082V73.9258Z" fill="black"/>
<path d="M45.7172 34.3516L47.1234 34.5524L47.7261 34.9542V35.356H48.1278V35.9586L46.3199 35.5569V35.1551L45.5163 34.9542L45.3154 34.5524L45.7172 34.3516Z" fill="black"/>
<path d="M123.661 52.2305L124.464 53.2349L125.469 56.4491L125.268 57.2526L124.665 56.2482L124.263 54.2393L123.661 53.034V52.2305Z" fill="black"/>
<path d="M72.4346 137.607L74.4434 137.808L75.4479 138.009L75.6487 138.812L73.2381 138.611L72.4346 138.009V137.607Z" fill="black"/>
<path d="M31.6547 81.3584L32.4582 81.5593L33.0609 82.1619L32.2574 82.3628L32.6591 83.5681L33.8644 84.7734L33.6636 85.1752L32.2574 83.769L31.2529 82.3628L31.4538 81.5593L31.6547 81.3584Z" fill="black"/>
<path d="M19.8027 61.873H20.0036L20.2045 63.4801H20.6063L20.8072 65.6899L21.008 66.6943L20.2045 65.8908L19.8027 63.8819V61.873Z" fill="black"/>
<path d="M46.5202 34.1509L47.9264 34.3518L48.9308 35.758V36.3606L47.1229 36.1597L46.7211 35.758L48.1273 35.9588V35.3562H47.7255V34.9544L46.3193 34.5526L46.5202 34.1509Z" fill="black"/>
<path d="M31.4541 70.7119H35.8735V70.9128L27.2355 71.3146L26.8337 72.1181L26.6328 71.1137L26.8337 70.9128L31.4541 70.7119Z" fill="black"/>
<path d="M125.87 68.3008H126.071V70.1087L124.865 72.9211L124.665 72.3185L125.468 69.1043L125.87 68.3008Z" fill="black"/>
<path d="M51.1404 22.7002H51.5421V23.102L50.3368 23.5037V23.9055H49.935V24.3073H49.5333V24.709L48.328 25.5126L47.5244 25.7135L47.7253 24.9099L51.1404 22.7002Z" fill="black"/>
<path d="M76.2515 72.7202H79.0639L79.8674 73.122L82.6798 73.5238L82.8807 73.9255H81.2736V73.5238H79.2647L76.2515 72.9211V72.7202Z" fill="black"/>
<path d="M55.5604 48.8154L56.163 49.0163L56.5648 50.2216L55.9621 50.8243L55.1586 50.4225L54.7568 49.619L55.5604 48.8154Z" fill="black"/>
<path d="M105.581 46.2036H105.982L106.786 48.4134V49.8195L106.183 49.6187L105.581 47.208V46.2036Z" fill="black"/>
<path d="M18.7983 69.5068L19.6019 70.5113H20.0037L20.2045 72.1183H19.8028L19.6019 72.9219L18.7983 70.7121V69.5068Z" fill="black"/>
<path d="M34.0656 124.348L34.8691 124.951L34.6682 125.754L32.8603 126.96L32.4585 126.759L33.262 125.553H33.6638L34.0656 124.348Z" fill="black"/>
<path d="M75.6489 73.1221L77.0551 73.323L77.256 74.5283L76.8542 75.9345H76.4525L76.0507 73.7247L76.2516 73.323L75.6489 73.1221Z" fill="black"/>
<path d="M22.0124 48.0117H22.4141L21.8115 49.8197L20.807 52.6321L20.4053 52.2303L20.6062 51.4268L21.8115 48.4135L22.0124 48.0117Z" fill="black"/>
<path d="M82.6799 145.441L83.0817 145.642L82.8808 146.647L84.8896 147.249L84.0861 147.651H82.8808L82.479 147.249V145.642L82.6799 145.441Z" fill="black"/>
<path d="M41.9002 132.183L42.1011 132.785L41.4984 134.593L41.0966 135.397L40.0922 135.999L39.6904 135.799L40.8957 134.392L41.4984 132.384L41.9002 132.183Z" fill="black"/>
<path d="M28.039 39.5747L28.4408 39.7756L26.6328 41.7844L26.0302 42.3871H25.6284L26.0302 41.5836L28.039 39.5747Z" fill="black"/>
<path d="M82.8806 73.7251H84.8895L85.4921 73.926V74.3278H82.8806L81.6753 74.1269V73.926L82.8806 73.7251Z" fill="black"/>
<path d="M47.5244 36.1592L48.1271 36.3601V36.7618L49.1315 36.9627L50.1359 37.9671L51.1404 38.7707V39.1725H50.7386V38.7707L49.935 38.3689L47.9262 36.9627L47.5244 36.1592Z" fill="black"/>
<path d="M102.567 27.5215L103.371 27.7224L103.773 27.9233L104.375 28.9277L105.179 30.133V30.7356L102.768 28.1241L102.567 27.5215Z" fill="black"/>
<path d="M47.1229 25.312L47.3238 26.1156L45.315 27.12L44.3105 27.5218V27.12L47.1229 25.312Z" fill="black"/>
<path d="M96.5411 140.218L96.742 140.62L95.3358 142.227L94.7331 142.628L94.934 141.825L94.5322 141.624L96.5411 140.218Z" fill="black"/>
<path d="M38.4849 88.3896L39.2884 88.5905V88.9923L40.0919 89.1932L42.1008 90.3985L41.2973 90.5994L39.6902 89.7958V89.3941L38.6857 88.9923L38.4849 88.3896Z" fill="black"/>
<path d="M22.8161 57.6543H23.017L23.2179 62.8773H22.8161L22.6152 62.4755L22.8161 57.6543Z" fill="black"/>
<path d="M27.2354 124.75L27.6371 124.951L28.0389 125.754V126.357H28.4407V126.759H28.8424V127.964L28.4407 127.161L27.6371 126.759L27.2354 125.955V124.75Z" fill="black"/>
<path d="M91.9204 122.138L92.9248 122.339L94.5319 123.544L94.9337 124.348L94.1301 123.946L92.3222 122.741L91.9204 122.54V122.138Z" fill="black"/>
<path d="M51.3419 109.482H51.7437L51.1411 111.29L49.9357 114.103L49.7349 113.5L51.1411 109.683L51.3419 109.482Z" fill="black"/>
<path d="M39.6904 82.564L40.0922 83.3675L40.8957 86.3808L40.6949 87.1843L39.8913 86.7826L40.2931 86.5817L39.6904 83.7693V82.564Z" fill="black"/>
<path d="M24.0213 50.8237H24.2222L24.0213 52.6317L23.6195 54.2388H23.4187L23.2178 52.6317L24.0213 50.8237Z" fill="black"/>
<path d="M97.3447 200.082L98.7509 201.287L99.7554 202.493L99.1527 202.694L98.3492 201.689L97.3447 200.685V200.082Z" fill="black"/>
<path d="M54.7567 142.428H54.9576L54.7567 144.637L54.5558 145.843H54.154L53.9531 146.245L54.154 144.637L54.5558 143.231L54.7567 142.428Z" fill="black"/>
<path d="M89.1084 127.964L89.3093 128.768L89.1084 130.375L88.9075 130.978L88.104 131.58L88.5058 129.772L89.1084 127.964Z" fill="black"/>
<path d="M27.8379 126.758L28.6414 127.16V127.964L29.6459 127.562L30.2485 127.16L29.8467 127.964L30.0476 128.365L28.6414 128.566L27.8379 127.16V126.758Z" fill="black"/>
<path d="M42.5029 28.5259V29.1285L42.1011 29.9321L40.0923 30.5347V30.133L42.5029 28.5259Z" fill="black"/>
<path d="M78.0594 73.1221L81.2736 73.5238V73.9256L78.6621 73.7247L77.4567 73.5238L77.2559 73.9256V73.323L78.0594 73.1221Z" fill="black"/>
<path d="M32.6596 37.3647L33.0614 37.5656L32.4588 38.1683L30.6508 39.3736L30.249 39.1727L31.2535 38.1683L32.6596 37.3647Z" fill="black"/>
<path d="M98.3486 23.7046L99.1522 24.1064L100.157 25.1108L101.161 25.7134L101.764 26.7179L100.96 26.3161L98.3486 23.9055V23.7046Z" fill="black"/>
<path d="M75.4482 138.209L76.4526 138.41V138.812L78.4614 139.013V139.214H76.6535L75.649 139.013V138.611L75.0464 138.41L75.4482 138.209Z" fill="black"/>
<path d="M23.2178 78.9482L23.8204 79.1491L25.2266 81.158L25.0257 81.7606L23.2178 79.35V78.9482Z" fill="black"/>
<path d="M20.606 64.6851L21.0077 65.2877L21.6104 67.4975V68.7028L21.0077 67.8992L20.606 65.6895V64.6851Z" fill="black"/>
<path d="M91.3178 143.633L91.7196 143.834L91.5187 144.436L92.3222 144.235L93.1258 143.633L93.5275 143.834L91.9204 145.039L91.1169 144.838L90.916 144.035L91.3178 143.633Z" fill="black"/>
<path d="M83.684 144.035L84.2867 144.236L83.2823 145.039L82.6796 145.642L82.4787 146.847H82.2778V145.441L83.2823 144.236L83.684 144.035Z" fill="black"/>
<path d="M94.5322 123.746L95.3358 124.147L97.1437 125.754L96.5411 125.955L94.934 124.549L94.5322 123.746Z" fill="black"/>
<path d="M95.5366 141.825L95.9384 142.026L94.1304 143.834L93.126 144.437L93.5277 143.633L95.5366 141.825Z" fill="black"/>
<path d="M26.6327 70.5112H27.0345L26.8336 71.7165L27.4363 72.9219L27.2354 73.3236L26.231 71.7165V70.7121L26.6327 70.5112Z" fill="black"/>
<path d="M40.6944 30.1328H41.0962V30.5346L39.8909 31.1372L39.0873 31.9408L38.6855 31.7399L39.4891 30.5346L40.6944 30.1328Z" fill="black"/>
<path d="M74.6445 151.869H76.0507L76.6534 152.472L76.8543 154.28L76.4525 153.677L76.0507 152.271L74.6445 152.07V151.869Z" fill="black"/>
<path d="M65.0018 137.808L66.408 138.009V138.41L66.0062 138.611H64.1982V138.209L65.0018 137.808Z" fill="white"/>
<path d="M41.9001 88.5908L42.9045 88.7917L43.3063 89.7961L42.3019 89.5952L41.6992 89.1935L41.9001 88.5908Z" fill="black"/>
<path d="M36.6772 85.979L38.0834 86.7825L38.2843 87.1843L37.079 87.3852L36.6772 86.7825V85.979Z" fill="black"/>
<path d="M123.661 52.2305L124.464 53.2349L124.866 54.2393V54.842L124.263 54.6411L123.862 53.2349L123.661 52.2305Z" fill="black"/>
<path d="M65.6044 43.5923L66.0062 43.7932L64.6 45.6011L64.1982 44.7976L65.6044 43.5923Z" fill="black"/>
<path d="M65.6042 140.017L66.006 140.419L65.6042 141.022L64.3989 141.222L64.8007 140.218L65.6042 140.017Z" fill="white"/>
<path d="M53.3502 104.661L53.752 104.862L52.7476 106.67L51.7432 107.273L52.1449 106.469L53.3502 104.661Z" fill="black"/>
<path d="M34.2661 85.5771L35.0697 85.9789L36.8776 87.586H36.275L34.467 86.1798L34.2661 85.5771Z" fill="black"/>
<path d="M76.0506 73.9258H76.2515L76.0506 75.332L75.6488 76.7382H75.2471L75.8497 74.1267L76.0506 73.9258Z" fill="black"/>
<path d="M98.3486 38.5703L100.558 39.7756L100.96 40.5792L100.157 40.1774L98.3486 38.9721V38.5703Z" fill="black"/>
<path d="M97.3445 139.415H97.7462V140.017H97.3445L96.9427 140.821L96.5409 141.022V140.419L96.1392 140.218L97.3445 139.415Z" fill="black"/>
</svg>
