<svg width="1751" height="1746" viewBox="0 0 1751 1746" fill="none" xmlns="http://www.w3.org/2000/svg">
<rect x="221" y="503" width="1440" height="739" fill="white"/>
<g opacity="0.1">
<mask id="path-2-outside-1_35_25330" maskUnits="userSpaceOnUse" x="0" y="0" width="1751" height="1746" fill="black">
<rect fill="white" width="1751" height="1746"/>
<path d="M56.927 53H1696.73H1698V873V1691.73V1693H58.1933H54L56.927 53ZM77.1872 71.9815V255.469H279.789V274.451H77.1872V660.407H482.39L481.124 881.858H462.13V679.389H291.185H77.1872V1267.81L278.523 1269.08V1489.27H259.529V1286.8H253.197H77.1872L75.9209 1667.69V1672.75H462.13V1085.59L260.795 1084.33L258.89 864.142H278.523L279.789 1065.35H664.732V660.407H867.333V457.938H1090.2V476.92H887.594L886.327 616.117V657.877L887.594 660.407H1272.54V274.451H684.992V478.185H664.732V255.469L1291.53 256.735L1292.8 679.389H686.258L684.992 680.654L683.726 1062.81L684.992 1065.35H887.594V1084.33H482.39L481.124 1671.49L482.39 1672.75H867.333V1470.28H1090.2V1489.27H887.594L886.327 1609.48V1671.49L887.594 1672.75L1570.11 1674.02H1661.28H1677.74V1489.27H1671.41H1273.8L1272.54 1288.06L1119.32 1286.8H684.992L683.726 1489.27H665.998L664.732 1267.81H1069.94V883.123L977.498 881.858H868.6V864.142L1475.14 862.877V459.204H1494.13L1495.4 881.858H1090.2L1088.93 1218.46V1266.55L1090.2 1267.81H1495.4V1286.8H1292.8L1291.53 1465.22L1292.8 1470.28H1677.74V1084.33H1675.21H1273.8V1066.61L1677.74 1065.35V274.451H1675.21H1476.4V256.735L1677.74 255.469V71.9815H482.39L481.124 476.92H260.795V459.204L462.13 457.938V71.9815H444.403H77.1872Z"/>
</mask>
<path d="M56.927 53H1696.73H1698V873V1691.73V1693H58.1933H54L56.927 53ZM77.1872 71.9815V255.469H279.789V274.451H77.1872V660.407H482.39L481.124 881.858H462.13V679.389H291.185H77.1872V1267.81L278.523 1269.08V1489.27H259.529V1286.8H253.197H77.1872L75.9209 1667.69V1672.75H462.13V1085.59L260.795 1084.33L258.89 864.142H278.523L279.789 1065.35H664.732V660.407H867.333V457.938H1090.2V476.92H887.594L886.327 616.117V657.877L887.594 660.407H1272.54V274.451H684.992V478.185H664.732V255.469L1291.53 256.735L1292.8 679.389H686.258L684.992 680.654L683.726 1062.81L684.992 1065.35H887.594V1084.33H482.39L481.124 1671.49L482.39 1672.75H867.333V1470.28H1090.2V1489.27H887.594L886.327 1609.48V1671.49L887.594 1672.75L1570.11 1674.02H1661.28H1677.74V1489.27H1671.41H1273.8L1272.54 1288.06L1119.32 1286.8H684.992L683.726 1489.27H665.998L664.732 1267.81H1069.94V883.123L977.498 881.858H868.6V864.142L1475.14 862.877V459.204H1494.13L1495.4 881.858H1090.2L1088.93 1218.46V1266.55L1090.2 1267.81H1495.4V1286.8H1292.8L1291.53 1465.22L1292.8 1470.28H1677.74V1084.33H1675.21H1273.8V1066.61L1677.74 1065.35V274.451H1675.21H1476.4V256.735L1677.74 255.469V71.9815H482.39L481.124 476.92H260.795V459.204L462.13 457.938V71.9815H444.403H77.1872Z" fill="black"/>
<path d="M56.927 53H1696.73H1698V873V1691.73V1693H58.1933H54L56.927 53ZM77.1872 71.9815V255.469H279.789V274.451H77.1872V660.407H482.39L481.124 881.858H462.13V679.389H291.185H77.1872V1267.81L278.523 1269.08V1489.27H259.529V1286.8H253.197H77.1872L75.9209 1667.69V1672.75H462.13V1085.59L260.795 1084.33L258.89 864.142H278.523L279.789 1065.35H664.732V660.407H867.333V457.938H1090.2V476.92H887.594L886.327 616.117V657.877L887.594 660.407H1272.54V274.451H684.992V478.185H664.732V255.469L1291.53 256.735L1292.8 679.389H686.258L684.992 680.654L683.726 1062.81L684.992 1065.35H887.594V1084.33H482.39L481.124 1671.49L482.39 1672.75H867.333V1470.28H1090.2V1489.27H887.594L886.327 1609.48V1671.49L887.594 1672.75L1570.11 1674.02H1661.28H1677.74V1489.27H1671.41H1273.8L1272.54 1288.06L1119.32 1286.8H684.992L683.726 1489.27H665.998L664.732 1267.81H1069.94V883.123L977.498 881.858H868.6V864.142L1475.14 862.877V459.204H1494.13L1495.4 881.858H1090.2L1088.93 1218.46V1266.55L1090.2 1267.81H1495.4V1286.8H1292.8L1291.53 1465.22L1292.8 1470.28H1677.74V1084.33H1675.21H1273.8V1066.61L1677.74 1065.35V274.451H1675.21H1476.4V256.735L1677.74 255.469V71.9815H482.39L481.124 476.92H260.795V459.204L462.13 457.938V71.9815H444.403H77.1872Z" stroke="#03C805" stroke-width="106" mask="url(#path-2-outside-1_35_25330)"/>
</g>
</svg>
