<svg width="1234" height="333" viewBox="0 0 1234 333" fill="none" xmlns="http://www.w3.org/2000/svg">
<path d="M152.689 280.248L164.728 154.85L92.1613 103.515L63.4654 108.149L58.8731 90.7734L86.4188 84.9786L77.2341 58.3427L95.6035 52.5479L102.488 91.934L166.069 129.659L167.699 17.1113H186.672L189.204 52.3559L206.291 35.9652L219.282 48.6569L196.039 73.9151L208.004 167.057L244.254 139.854L235.93 118.253L251.983 109.853L257.924 132.656L293.016 101.194L302.201 117.409L213.821 193.852L222.153 280.197L152.689 280.248Z" fill="#C47F25"/>
<path d="M992.316 276L1004.93 144.472L928.885 90.6279L898.813 95.4886L894 77.2632L922.867 71.1851L913.242 43.2471L932.492 37.169L939.707 78.4805L1006.34 118.049L1008.05 0H1027.93L1030.58 36.9676L1048.49 19.7756L1062.1 33.0878L1037.75 59.5808L1050.28 157.276L1088.27 128.743L1079.55 106.086L1096.37 97.2752L1102.6 121.193L1139.37 88.1932L1149 105.201L1056.38 185.381L1065.11 275.947L992.316 276Z" fill="#C47F25"/>
<path d="M58.7812 349.736L143.458 195.887L247.67 349.736H58.7812Z" fill="#259E51"/>
<path d="M182.123 349.736L271.019 168.355L371.012 349.736H182.123Z" fill="#4AA5A2"/>
<path d="M209.349 177.519L163.398 243.711H186.403L114.211 349.736H296.338L247.092 263.627L278.246 270.531L209.349 177.519Z" fill="#9EC865"/>
<path d="M95.1382 177.519L49.1874 243.711H72.1917L0 349.736H182.126L132.881 263.627L164.093 270.531L95.1382 177.519Z" fill="#00772C"/>
<path d="M407.198 207.352L369.223 262.08H388.181L328.532 349.737H479.1L438.409 278.565L464.13 284.255L407.198 207.352Z" fill="#4AA5A2"/>
<path d="M326.338 207.352L288.364 262.08H307.38L247.673 349.737H398.241L357.55 278.565L383.328 284.255L326.338 207.352Z" fill="#4AA5A2"/>
<path d="M813.453 349.736L898.129 195.887L1002.34 349.736H813.453Z" fill="#4AA5A2"/>
<path d="M936.797 349.736L1025.69 168.355L1125.69 349.736H936.797Z" fill="#259E51"/>
<path d="M964.021 177.519L918.07 243.711H941.074L868.883 349.736H1051.01L1001.76 263.627L1032.92 270.531L964.021 177.519Z" fill="#9EC865"/>
<path d="M849.811 177.519L803.86 243.711H826.865L754.673 349.736H936.799L887.554 263.627L918.766 270.531L849.811 177.519Z" fill="#4AA5A2"/>
<path d="M1161.87 207.352L1123.9 262.08H1142.85L1083.21 349.737H1233.77L1193.08 278.565L1218.8 284.255L1161.87 207.352Z" fill="#4AA5A2"/>
<path d="M1081.01 207.352L1043.04 262.08H1062.05L1002.35 349.737H1152.91L1112.22 278.565L1138 284.255L1081.01 207.352Z" fill="#00772C"/>
<path d="M244.325 349.408L407.037 53.7744L607.29 349.408H244.325Z" fill="#9EC865"/>
<path d="M481.338 349.408L652.158 0.871094L844.302 349.408H481.338Z" fill="#9EC865"/>
<path d="M541.174 0.871094L452.877 128.065H497.081L358.359 331.8H708.329L613.7 166.336L673.565 179.602L541.174 0.871094Z" fill="#4AA568"/>
<path d="M561.246 349.635L566.954 260.086L526.228 243.834L538.029 228.681C538.029 228.681 566.954 246.592 568.099 246.592C569.245 246.592 572.668 208.293 572.668 208.293L549.065 187.069L562.764 180.454L590.17 206.354L608.059 175.224L629.378 185.695L608.059 211.32L617.197 265.602L644.603 251.823L650.311 265.877L618.715 274.695L625.568 348.536L561.246 349.64V349.635Z" fill="#9F513A"/>
<path d="M913.835 75.8047L840.865 180.969H877.294L762.674 349.408H1052L973.811 212.647L1023.24 223.581L913.835 75.8047Z" fill="#4AA568"/>
<path d="M758.458 75.8047L685.488 180.969H722.028L607.297 349.408H896.625L818.434 212.647L867.969 223.581L758.458 75.8047Z" fill="#259E51"/>
</svg>
