<svg width="20" height="20" viewBox="0 0 20 20" fill="none" xmlns="http://www.w3.org/2000/svg">
<g clip-path="url(#clip0_42_6586)">
<path d="M10.001 1.8009C12.6729 1.8009 12.9893 1.81262 14.04 1.8595C15.0166 1.90247 15.5439 2.06653 15.8955 2.20325C16.3604 2.38293 16.6963 2.60168 17.0439 2.94934C17.3955 3.3009 17.6104 3.63294 17.79 4.09778C17.9268 4.44934 18.0908 4.98059 18.1338 5.95325C18.1807 7.00793 18.1924 7.32434 18.1924 9.99231C18.1924 12.6642 18.1807 12.9806 18.1338 14.0314C18.0908 15.0079 17.9268 15.5353 17.79 15.8868C17.6104 16.3517 17.3916 16.6876 17.0439 17.0353C16.6924 17.3868 16.3604 17.6017 15.8955 17.7814C15.5439 17.9181 15.0127 18.0822 14.04 18.1251C12.9854 18.172 12.6689 18.1837 10.001 18.1837C7.3291 18.1837 7.0127 18.172 5.96191 18.1251C4.98535 18.0822 4.45801 17.9181 4.10645 17.7814C3.6416 17.6017 3.30566 17.3829 2.95801 17.0353C2.60645 16.6837 2.3916 16.3517 2.21191 15.8868C2.0752 15.5353 1.91113 15.004 1.86816 14.0314C1.82129 12.9767 1.80957 12.6603 1.80957 9.99231C1.80957 7.32044 1.82129 7.00403 1.86816 5.95325C1.91113 4.97668 2.0752 4.44934 2.21191 4.09778C2.3916 3.63294 2.61035 3.297 2.95801 2.94934C3.30957 2.59778 3.6416 2.38293 4.10645 2.20325C4.45801 2.06653 4.98926 1.90247 5.96191 1.8595C7.0127 1.81262 7.3291 1.8009 10.001 1.8009ZM10.001 0.00012207C7.28613 0.00012207 6.94629 0.0118408 5.87988 0.0587158C4.81738 0.105591 4.08691 0.277466 3.4541 0.52356C2.79395 0.781372 2.23535 1.12122 1.68066 1.67981C1.12207 2.2345 0.782227 2.79309 0.524414 3.44934C0.27832 4.08606 0.106445 4.81262 0.0595703 5.87512C0.0126953 6.94543 0.000976562 7.28528 0.000976562 10.0001C0.000976562 12.715 0.0126953 13.0548 0.0595703 14.1212C0.106445 15.1837 0.27832 15.9142 0.524414 16.547C0.782227 17.2072 1.12207 17.7657 1.68066 18.3204C2.23535 18.8751 2.79395 19.2189 3.4502 19.4728C4.08691 19.7189 4.81348 19.8907 5.87598 19.9376C6.94238 19.9845 7.28223 19.9962 9.99707 19.9962C12.7119 19.9962 13.0518 19.9845 14.1182 19.9376C15.1807 19.8907 15.9111 19.7189 16.5439 19.4728C17.2002 19.2189 17.7588 18.8751 18.3135 18.3204C18.8682 17.7657 19.2119 17.2072 19.4658 16.5509C19.7119 15.9142 19.8838 15.1876 19.9307 14.1251C19.9775 13.0587 19.9893 12.7189 19.9893 10.004C19.9893 7.28919 19.9775 6.94934 19.9307 5.88294C19.8838 4.82044 19.7119 4.08997 19.4658 3.45715C19.2197 2.79309 18.8799 2.2345 18.3213 1.67981C17.7666 1.12512 17.208 0.781372 16.5518 0.527466C15.915 0.281372 15.1885 0.109497 14.126 0.0626221C13.0557 0.0118408 12.7158 0.00012207 10.001 0.00012207Z" fill="white"/>
<path d="M10.001 4.86343C7.16504 4.86343 4.86426 7.16422 4.86426 10.0002C4.86426 12.8361 7.16504 15.1369 10.001 15.1369C12.8369 15.1369 15.1377 12.8361 15.1377 10.0002C15.1377 7.16422 12.8369 4.86343 10.001 4.86343ZM10.001 13.3322C8.16113 13.3322 6.66895 11.84 6.66895 10.0002C6.66895 8.16031 8.16113 6.66812 10.001 6.66812C11.8408 6.66812 13.333 8.16031 13.333 10.0002C13.333 11.84 11.8408 13.3322 10.001 13.3322Z" fill="white"/>
<path d="M16.54 4.66022C16.54 5.32428 16.001 5.85944 15.3408 5.85944C14.6768 5.85944 14.1416 5.32038 14.1416 4.66022C14.1416 3.99616 14.6807 3.461 15.3408 3.461C16.001 3.461 16.54 4.00006 16.54 4.66022Z" fill="white"/>
</g>
<defs>
<clipPath id="clip0_42_6586">
<rect width="20" height="20" fill="white"/>
</clipPath>
</defs>
</svg>
