<svg width="18" height="20" viewBox="0 0 18 20" fill="none" xmlns="http://www.w3.org/2000/svg">
<path d="M9.52542 0H13.0158C13.3522 2.90989 15.0465 4.47256 18 4.84209V8.18539C17.1238 8.19698 16.2514 8.07114 15.4164 7.81272C14.574 7.54712 13.7777 7.15944 13.0545 6.6628V6.87575C13.0545 9.1543 13.059 11.4322 13.0545 13.7102C13.0493 15.3048 12.4744 16.694 11.395 17.8858C10.409 18.9769 9.17226 19.6658 7.69839 19.9013C5.75987 20.2114 3.9889 19.7949 2.44608 18.593C1.19435 17.6386 0.35731 16.262 0.100906 14.7361C-0.203277 13.0375 0.187264 11.4686 1.17779 10.0418C1.76928 9.18364 2.57358 8.48404 3.51652 8.00751C4.2307 7.63365 5.01792 7.41021 5.82689 7.35175C6.34825 7.31856 6.87413 7.34549 7.40967 7.34549V10.8347C7.20344 10.8053 6.9998 10.7646 6.79357 10.7483C4.83636 10.5967 3.20525 12.2652 3.57839 14.2012C3.80395 15.3699 4.54507 16.0864 5.69413 16.4459C7.24082 16.9282 9.0221 15.9737 9.43197 14.3941C9.50005 14.0997 9.53121 13.7983 9.52477 13.4966C9.53079 9.07059 9.53207 4.64459 9.52864 0.218586L9.52542 0Z" fill="white"/>
</svg>
